<svg width="141" height="42" viewBox="0 0 141 42" fill="none" xmlns="http://www.w3.org/2000/svg">
<g clip-path="url(#clip0_171807_185457)">
<path d="M33.9374 4.98631C33.9374 5.06338 33.9374 5.06338 33.8613 5.14044C32.6438 8.06888 30.7415 10.6891 28.3066 12.7698C28.1544 12.9239 28.0783 12.9239 27.9261 12.9239C27.6978 12.9239 27.4695 12.6927 27.3173 12.5386C25.1868 10.6891 22.3713 9.91842 19.5559 10.3037C16.8165 10.5349 14.3055 11.845 12.6314 14.0028C12.4792 14.157 12.4032 14.3111 12.251 14.4652C11.8705 14.9276 11.5661 15.467 11.3379 16.0065C11.2618 16.1606 11.1857 16.2377 11.1857 16.3918C11.0335 16.623 10.9574 16.9313 10.8813 17.1625C10.8052 17.3937 10.7291 17.7019 10.653 17.9331C10.2726 19.3973 10.1965 20.8615 10.3486 22.3258C10.3486 22.634 10.4247 22.9423 10.5008 23.2505C10.653 24.0982 10.9574 24.9459 11.4139 25.7166C11.5661 25.9478 11.7183 26.256 11.8705 26.4872C11.8705 26.5643 11.9466 26.6414 12.0227 26.6414C9.96818 28.2597 7.07666 31.1111 5.78308 35.3496C5.02215 34.4248 4.33731 33.5001 3.72857 32.6524C3.4242 32.19 3.11983 31.7276 2.81546 31.2652C2.66327 30.957 2.43499 30.6487 2.28281 30.3404C2.13062 30.0322 1.97844 29.7239 1.82625 29.3386C1.75016 29.1845 1.67407 28.9533 1.59797 28.7992C1.2936 28.0285 1.06532 27.2579 0.837044 26.4872C0.684859 25.8707 0.532673 25.2542 0.380488 24.7148C0.304395 24.4065 0.304395 24.0982 0.228302 23.867C0.0761162 22.4799 2.34097e-05 21.0927 0.0761162 19.7056C0.0761162 19.2432 0.152209 18.7037 0.228302 18.2414C0.304395 17.779 0.380488 17.4707 0.45658 17.0854C0.760952 15.6212 1.21751 14.157 1.82625 12.7698C2.13062 12.0762 2.43499 11.3826 2.81546 10.7661C2.96764 10.4579 3.19592 10.0726 3.4242 9.76429C5.32652 6.68172 8.06586 4.1386 11.2618 2.52026C11.8705 2.212 12.5553 1.90374 13.1641 1.59549C13.6206 1.44136 14.1533 1.21016 14.6859 1.05604C15.523 0.824843 16.4361 0.59365 17.3492 0.439522L18.2623 0.285393C21.2299 -0.33112 24.4258 -0.0999278 27.3934 0.901907C29.6001 1.74961 31.7307 2.82851 33.6331 4.29273C33.7852 4.3698 33.8613 4.44686 33.9374 4.60099C33.9374 4.75512 34.0135 4.83218 33.9374 4.98631Z" fill="white"/>
<path d="M33.4047 37.5841C30.5893 39.7419 27.2412 41.052 23.8171 41.6685C19.4037 42.285 14.9142 41.5144 10.9574 39.4337C9.81597 38.8171 8.75067 38.0465 7.68537 37.2759C7.68537 37.2759 7.68537 37.2759 7.60928 37.1988C7.53318 37.1217 7.45709 36.9676 7.45709 36.7364C8.14193 34.5786 9.28332 32.5749 10.8052 30.8795C10.8813 30.8025 10.8813 30.7254 10.9574 30.7254C11.0335 30.6483 11.1095 30.5713 11.1856 30.4171L11.2617 30.3401C11.6422 29.9548 11.9466 29.5694 12.327 29.2612C12.4792 29.1071 13.088 28.4135 13.3162 28.5676C13.6206 28.7217 13.8489 28.9529 14.1533 29.1071L14.4576 29.2612C17.8057 31.419 22.5235 31.9584 25.9476 29.9548C26.3281 29.7236 26.6325 29.4924 26.9369 29.1841C27.4695 28.6447 28.2304 28.6447 28.7631 29.1071L28.8392 29.1841C31.122 30.9566 32.8721 33.3456 33.7852 36.197C34.0896 36.6593 33.9374 37.3529 33.4047 37.5841Z" fill="white"/>
<path d="M27.3934 21.0154C27.3173 24.7145 24.2736 27.6429 20.5451 27.5659C16.8165 27.4888 14.0011 24.4062 14.0772 20.6301C14.1533 16.931 17.197 14.0025 20.9255 14.0796C24.578 14.2337 27.4695 17.3163 27.3934 21.0154Z" fill="white"/>
<path d="M53.2649 22.7105C52.8845 24.2518 52.1236 25.5619 50.9061 26.5638C49.6886 27.5656 48.2428 28.028 46.6449 28.028C44.7426 28.028 43.1446 27.3344 41.851 26.0243C40.5575 24.7142 39.8726 23.0959 39.8726 21.1693C39.8726 19.2427 40.4814 17.6243 41.7749 16.3142C43.0685 15.0041 44.6665 14.3105 46.4927 14.3105C48.1667 14.3105 49.5364 14.7729 50.83 15.7748C52.1236 16.7766 52.8845 18.0867 53.1889 19.705H49.3842C48.8516 18.472 47.8624 17.9326 46.5688 17.9326C45.6557 17.9326 44.9708 18.2408 44.4382 18.9344C43.9055 19.5509 43.6773 20.3216 43.6773 21.2463C43.6773 22.1711 43.9816 22.9417 44.5143 23.5583C45.0469 24.1748 45.8079 24.483 46.721 24.483C47.9385 24.483 48.8516 23.9436 49.4603 22.7876H53.2649V22.7105Z" fill="white"/>
<path d="M62.0156 18.1638C61.0264 18.1638 60.3416 18.3179 59.885 18.6261C59.2763 19.0115 59.048 19.628 59.048 20.5527V27.5656H55.2433V14.6959H58.8197V16.083H58.8958C59.5045 14.85 60.5698 14.3105 62.0917 14.3105V18.1638H62.0156Z" fill="white"/>
<path d="M76.0928 22.3256H66.6573C66.8855 23.944 67.8747 24.7146 69.6249 24.7146C70.538 24.7146 71.2989 24.3293 71.9077 23.5587H75.7884C75.2558 24.8687 74.4187 25.9476 73.3534 26.7183C72.212 27.566 70.9946 27.9513 69.6249 27.9513C67.7987 27.9513 66.2007 27.2577 64.9071 25.9476C63.6136 24.6376 62.9287 23.0192 62.9287 21.1697C62.9287 19.3201 63.5375 17.7018 64.831 16.3146C66.1246 14.9275 67.7226 14.2339 69.5488 14.2339C71.4511 14.2339 73.0491 14.9275 74.3426 16.3146C75.5601 17.6247 76.245 19.3201 76.245 21.2467C76.1689 21.6321 76.1689 22.0174 76.0928 22.3256ZM72.4403 19.7054C72.1359 18.2412 71.1467 17.4706 69.5488 17.4706C67.9508 17.4706 66.9616 18.2412 66.6573 19.7054H72.4403Z" fill="white"/>
<path d="M87.8872 27.5658V26.1786H87.8111C87.4306 26.7951 86.898 27.2575 86.2131 27.5658C85.6044 27.797 84.9196 27.9511 84.0825 27.9511C82.1802 27.9511 80.6584 27.2575 79.4409 25.9474C78.2995 24.6373 77.6907 23.019 77.6907 21.0924C77.6907 19.1658 78.2234 17.5474 79.3648 16.3144C80.5823 15.0043 82.1041 14.3107 83.9304 14.3107C85.4522 14.3107 86.6697 14.8502 87.6589 15.852V10.4575H91.4635V27.5658H87.8872ZM86.9741 18.7805C86.3653 18.1639 85.6044 17.8557 84.6913 17.8557C83.7782 17.8557 83.0172 18.1639 82.4085 18.7805C81.7998 19.397 81.4954 20.1676 81.4954 21.0924C81.4954 22.0172 81.7998 22.7878 82.4085 23.4043C83.0172 24.0208 83.7782 24.3291 84.6913 24.3291C85.6044 24.3291 86.4414 24.0208 87.0502 23.4043C87.6589 22.7878 87.9633 22.0172 87.9633 21.0153C87.8872 20.1676 87.5828 19.397 86.9741 18.7805Z" fill="white"/>
<path d="M94.2029 13.386V10.4575H98.0075V13.386H94.2029ZM94.2029 27.5658V14.6961H98.0075V27.4887H94.2029V27.5658Z" fill="white"/>
<path d="M105.236 17.6245V27.4887H101.432V17.6245H99.5294V14.6961H101.432V10.4575H105.236V14.6961H107.063V17.6245H105.236Z" fill="white"/>
<path d="M108.965 27.566V23.6357H112.922V27.566H108.965Z" fill="white"/>
<path d="M122.966 27.5656H119.314L114.748 14.7729H118.629L121.064 22.7876H121.14L123.575 14.7729H127.455L122.966 27.5656Z" fill="white"/>
<path d="M137.271 27.5656V20.5527C137.271 19.705 137.119 19.0885 136.891 18.7032C136.587 18.1638 136.054 17.9326 135.293 17.9326C134.456 17.9326 133.923 18.1638 133.543 18.7032C133.239 19.0885 133.086 19.7821 133.086 20.6298V27.5656H129.282V14.6959H132.782V16.083H132.858C133.619 14.85 134.76 14.3105 136.282 14.3105C137.576 14.3105 138.641 14.6959 139.554 15.3894C140.087 15.8518 140.467 16.4683 140.696 17.239C140.848 17.8555 141 18.6261 141 19.4738V27.4885H137.271V27.5656Z" fill="white"/>
</g>
<defs>
<clipPath id="clip0_171807_185457">
<rect width="141" height="42" fill="white" transform="translate(0 -0.100098)"/>
</clipPath>
</defs>
</svg>
