<svg width="134" height="42" viewBox="0 0 134 42" fill="none" xmlns="http://www.w3.org/2000/svg">
<path fill-rule="evenodd" clip-rule="evenodd" d="M18.0201 20.1942H20.9384V25.0348C21.0027 24.9709 21.0692 24.9095 21.138 24.8506C21.4828 24.5556 21.8839 24.3254 22.3415 24.1598C22.6612 24.0368 22.998 23.9497 23.3516 23.8984C23.5795 23.8653 23.8144 23.8471 24.0563 23.8438C24.0832 23.8435 24.1102 23.8433 24.1373 23.8433C24.8207 23.8433 25.4311 23.9551 25.9684 24.1787C26.3874 24.353 26.762 24.5954 27.0921 24.9057C27.1006 24.9136 27.1089 24.9215 27.1173 24.9295C27.128 24.9397 27.1386 24.95 27.1492 24.9604C27.15 24.9612 27.1508 24.962 27.1517 24.9628C27.4045 25.2068 27.6159 25.4894 27.7859 25.8106C27.8834 25.9948 27.9673 26.1917 28.0375 26.4013C28.1074 26.6099 28.1638 26.831 28.2067 27.0647C28.2407 27.2502 28.2663 27.4436 28.2833 27.6448C28.3004 27.8467 28.309 28.0565 28.309 28.2743V34.0087H25.3907V28.7212C25.3907 28.5642 25.3839 28.4153 25.3703 28.2743C25.3258 27.8147 25.2089 27.4401 25.0195 27.1505C25.0149 27.1434 25.0102 27.1363 25.0055 27.1294C24.9628 27.0662 24.9166 27.0073 24.8669 26.9525C24.6722 26.731 24.429 26.5713 24.1373 26.4733C23.9059 26.3956 23.644 26.3567 23.3516 26.3567C23.2989 26.3567 23.2469 26.3579 23.1957 26.3602C23.1792 26.361 23.1628 26.3619 23.1464 26.3629C22.8828 26.3791 22.6399 26.4272 22.4179 26.5072C22.1005 26.6215 21.8256 26.801 21.5932 27.0456C21.3977 27.2457 21.2459 27.4907 21.138 27.7805C21.0049 28.1377 20.9384 28.5629 20.9384 29.0563V34.0087H18.0201V20.1942ZM15.2524 37.1116V37.5762L14.8702 37.1116H11.1656L9.22878 34.7642V37.1116H0V17.8731H2.99312V17.4278L3.36053 17.8731H7.10131L9.01677 20.2013V17.8731H14.9023V17.0912H24.0563V20.7407C24.0833 20.7404 24.1103 20.7403 24.1373 20.7403C25.5595 20.7403 26.9393 21.0687 28.1457 21.8148L32.6507 16.9236H37.9753L41.6279 20.8892H47.017C47.5438 20.7881 48.0789 20.7403 48.6172 20.7403C50.5298 20.7403 52.3659 21.3342 53.8064 22.7394C55.376 24.2571 55.9067 26.291 55.9067 28.2743V37.1116H39.476C39.382 38.0845 38.9705 39.054 38.1517 39.8156C37.2687 40.6627 36.1605 41.0214 35.0885 41.0214C33.9916 41.0214 32.8878 40.6483 32.0058 39.8143C31.184 39.038 30.7913 38.0643 30.7007 37.1116H15.2524ZM33.3622 37.2353C33.3711 37.2604 33.3806 37.2858 33.3909 37.3114C33.4932 37.566 33.642 37.7764 33.8005 37.9342C33.9486 38.0815 34.1537 38.2293 34.4107 38.3337C34.6664 38.4376 34.9043 38.4707 35.0885 38.4707C35.2529 38.4707 35.4799 38.4423 35.732 38.3419C35.9826 38.2421 36.1907 38.098 36.3481 37.9439L36.1735 37.7508L35.9958 37.5739C35.9989 37.5709 36.002 37.5678 36.0052 37.5647C36.0185 37.5527 36.0316 37.5405 36.0442 37.5281L36.4136 37.8773C36.5708 37.7126 36.7088 37.503 36.8011 37.2613C36.8207 37.2099 36.8372 37.1599 36.851 37.1116H36.3096C36.327 37.0617 36.3412 37.0099 36.3521 36.956C36.3702 36.8664 36.3793 36.7714 36.3793 36.671C36.3793 36.2987 36.2546 35.9884 36.0052 35.7401C35.9861 35.7212 35.9667 35.7029 35.947 35.6854C35.9461 35.6846 35.9452 35.6838 35.9443 35.683C35.7066 35.4728 35.4213 35.3678 35.0885 35.3678C34.7684 35.3678 34.4939 35.4586 34.265 35.6404C34.2298 35.6684 34.1956 35.6986 34.1626 35.7309C34.1594 35.7339 34.1563 35.737 34.1532 35.7401C34.1196 35.7753 34.0884 35.8117 34.0596 35.8493C34.0421 35.8722 34.0255 35.8955 34.0098 35.9193C33.8684 36.1329 33.7977 36.3834 33.7977 36.671C33.7977 36.8939 33.8402 37.0901 33.9251 37.2597C33.7376 37.2571 33.5498 37.2492 33.3622 37.2353ZM34.0098 34.1574C34.0263 34.1575 34.043 34.1576 34.0596 34.1576C34.3168 34.1576 34.56 34.1439 34.7892 34.1164C34.8918 34.1041 34.9916 34.089 35.0885 34.0712C35.1867 34.0532 35.2819 34.0323 35.3743 34.0087C35.936 33.8648 36.3915 33.6167 36.741 33.2644C36.7815 33.2236 36.8207 33.1813 36.8583 33.1376C36.8664 33.1283 36.8743 33.1189 36.8822 33.1095C36.9725 33.0017 37.0543 32.8856 37.1276 32.7613V34.0087H39.8588V28.293C39.8588 28.2366 39.8582 28.1807 39.857 28.1254C39.8458 27.6084 39.7823 27.1388 39.6664 26.7166C39.5928 26.4484 39.498 26.1993 39.3822 25.9694C39.355 25.9154 39.3266 25.8624 39.2971 25.8106C39.2287 25.6904 39.154 25.5759 39.0731 25.4671C38.9353 25.2818 38.7794 25.1129 38.6054 24.9604C38.499 24.8654 38.3866 24.7766 38.2684 24.6938C38.2457 24.6779 38.2228 24.6622 38.1997 24.6468C38.1859 24.6376 38.172 24.6284 38.158 24.6193C37.9265 24.4691 37.6739 24.3406 37.4 24.234C37.253 24.1767 37.0998 24.1257 36.9405 24.0811C36.9164 24.0743 36.8921 24.0677 36.8677 24.0612C36.5763 23.9839 36.2649 23.9271 35.9335 23.8909C35.9239 23.8899 35.9142 23.8889 35.9045 23.8878C35.622 23.8581 35.3251 23.8433 35.0137 23.8433C34.9197 23.8433 34.826 23.8447 34.7325 23.8475C34.7175 23.848 34.7024 23.8485 34.6874 23.849C34.6652 23.8498 34.643 23.8507 34.6208 23.8516C34.3062 23.865 33.9944 23.8945 33.6855 23.9401C33.6666 23.9429 33.6478 23.9458 33.6289 23.9487C33.6227 23.9497 33.6164 23.9506 33.6101 23.9516C33.4177 23.9817 33.2264 24.0181 33.0362 24.0608C32.9029 24.0907 32.7701 24.1237 32.6379 24.1598C32.5371 24.1877 32.4383 24.2172 32.3412 24.2482C32.3305 24.2516 32.3199 24.255 32.3093 24.2585C32.2257 24.2855 32.1436 24.3138 32.0628 24.3431C31.8862 24.4074 31.7162 24.477 31.5529 24.5521C31.2922 24.672 31.0485 24.8058 30.8216 24.9535C30.7715 24.9861 30.7222 25.0194 30.6737 25.0534L31.7213 27.0828C31.8034 27.0179 31.8895 26.9563 31.9793 26.8978C32.2851 26.699 32.6356 26.5372 33.0308 26.4125C33.032 26.4121 33.0333 26.4117 33.0345 26.4113C33.1032 26.3886 33.1719 26.3674 33.2407 26.3477C33.2437 26.3468 33.2468 26.3459 33.2498 26.345C33.7022 26.2163 34.1592 26.1519 34.6208 26.1519C34.7579 26.1519 34.8888 26.1574 35.0137 26.1683C35.5935 26.2189 36.0425 26.3872 36.3606 26.6732C36.377 26.6874 36.393 26.7019 36.4087 26.7166C36.5232 26.8241 36.6191 26.9458 36.6966 27.0817C36.7008 27.089 36.7049 27.0964 36.7089 27.1038C36.7317 27.1452 36.7528 27.1879 36.7722 27.232C36.8844 27.4865 36.9405 27.7844 36.9405 28.1254H34.6208C34.3418 28.1254 34.0763 28.135 33.8246 28.1542C33.7554 28.1595 33.6872 28.1655 33.6201 28.1722C33.6108 28.1731 33.6015 28.1741 33.5923 28.175C33.2747 28.208 32.9804 28.2572 32.7095 28.3229C32.1991 28.4466 31.7716 28.6284 31.4268 28.8684C31.3997 28.8872 31.3732 28.9064 31.3471 28.926C30.6816 29.4345 30.3332 30.1234 30.3019 30.9926C30.3004 31.0342 30.2996 31.0764 30.2995 31.1189C30.2995 31.1202 30.2995 31.1215 30.2995 31.1229C30.2995 31.7062 30.4492 32.2275 30.7485 32.6868C30.9277 32.9617 31.1538 33.201 31.4268 33.4048C31.5529 33.4989 31.6891 33.5854 31.8352 33.6644C31.9012 33.7 31.9692 33.7341 32.0393 33.7666C32.0529 33.7728 32.0665 33.7789 32.0802 33.7849C32.0833 33.7863 32.0864 33.7877 32.0896 33.789C32.1225 33.8034 32.1557 33.8173 32.1892 33.8309C32.2141 33.8409 32.2391 33.8507 32.2643 33.8602C32.7739 34.0536 33.3558 34.1526 34.0098 34.1574ZM36.7576 31.2284C36.8293 31.1102 36.8903 30.982 36.9405 30.8436V29.8196H34.9389C34.9334 29.8196 34.928 29.8196 34.9226 29.8196C34.9004 29.8197 34.8784 29.8199 34.8566 29.8203C34.8339 29.8206 34.8114 29.8211 34.7892 29.8218C34.7316 29.8234 34.6755 29.8261 34.6208 29.8297C34.4863 29.8387 34.3609 29.8537 34.2447 29.8747C34.0871 29.9032 33.9464 29.9427 33.8227 29.9933C33.3696 30.1784 33.143 30.5115 33.143 30.9926C33.143 31.0371 33.145 31.0805 33.1491 31.1229C33.1496 31.1273 33.15 31.1317 33.1505 31.1362C33.1561 31.1881 33.1648 31.2385 33.1766 31.2872C33.1778 31.2922 33.179 31.2971 33.1803 31.3019C33.182 31.3086 33.1838 31.3153 33.1856 31.3219C33.1902 31.3385 33.1952 31.3549 33.2005 31.3711C33.2049 31.3844 33.2095 31.3976 33.2144 31.4107C33.2147 31.4113 33.2149 31.4119 33.2152 31.4125C33.2845 31.5964 33.4039 31.7543 33.5733 31.8862C33.7125 31.9843 33.8746 32.0597 34.0596 32.1121C34.2725 32.1725 34.5157 32.2027 34.7892 32.2027C34.8397 32.2027 34.8896 32.2016 34.9389 32.1993C35.2624 32.1843 35.5612 32.1201 35.8353 32.0067C35.8963 31.9815 35.9561 31.9538 36.0146 31.9237C36.0493 31.9058 36.0836 31.8871 36.1174 31.8676C36.3751 31.7104 36.583 31.5063 36.741 31.2553C36.7466 31.2464 36.7521 31.2374 36.7576 31.2284ZM31.5529 22.7076H33.6855L35.313 21.2926L36.9405 22.7076H39.0731L36.6038 20.0266H34.0222L31.5529 22.7076ZM42.5 34.0087H45.4183V29.0563C45.4183 28.5629 45.4848 28.1377 45.6178 27.7805C45.7258 27.4907 45.8775 27.2457 46.073 27.0456C46.2827 26.825 46.5268 26.6574 46.8055 26.5428C47.0395 26.4465 47.2979 26.3876 47.5806 26.366C47.5959 26.3649 47.6112 26.3638 47.6266 26.3629C47.6936 26.3587 47.7619 26.3567 47.8315 26.3567C48.1239 26.3567 48.3858 26.3956 48.6172 26.4733C48.9088 26.5713 49.152 26.731 49.3468 26.9525C49.3965 27.0073 49.4427 27.0662 49.4854 27.1294C49.4901 27.1363 49.4948 27.1434 49.4994 27.1505C49.6888 27.4401 49.8057 27.8147 49.8501 28.2743C49.8637 28.4153 49.8706 28.5642 49.8706 28.7212V34.0087H52.7888V28.2743C52.7888 26.8113 52.4031 25.7075 51.6315 24.9628C51.6307 24.962 51.6299 24.9612 51.629 24.9604C51.6184 24.95 51.6078 24.9397 51.5972 24.9295C50.8403 24.2054 49.847 23.8433 48.6172 23.8433C48.5459 23.8433 48.4752 23.8445 48.4052 23.8471C48.2092 23.8542 48.018 23.8713 47.8315 23.8983C47.6683 23.922 47.5087 23.9533 47.3528 23.9922C47.1376 24.0459 46.9292 24.1142 46.7278 24.197C46.3076 24.3606 45.9376 24.5775 45.6178 24.8477C45.5533 24.9022 45.4908 24.9588 45.4304 25.0177C45.3814 25.0654 45.3337 25.1146 45.2873 25.1651V23.9922H42.5V34.0087ZM12.6397 34.0087H15.1277V20.9761H12.1346V28.8887L5.62457 20.9761H3.11783V34.0087H6.11095V26.096L12.6397 34.0087ZM68.8615 34.0087H71.7798V29.0563C71.7798 28.5629 71.8463 28.1377 71.9793 27.7805C72.0873 27.4907 72.239 27.2457 72.4345 27.0456C72.667 26.801 72.9419 26.6215 73.2592 26.5072C73.4813 26.4272 73.7242 26.3791 73.9878 26.3629C74.0041 26.3619 74.0206 26.361 74.0371 26.3602C74.0883 26.3579 74.1403 26.3567 74.193 26.3567C74.4854 26.3567 74.7473 26.3956 74.9787 26.4733C75.2704 26.5713 75.5136 26.731 75.7083 26.9525C75.758 27.0073 75.8042 27.0662 75.8469 27.1294C75.8516 27.1363 75.8563 27.1434 75.8609 27.1505C76.0503 27.4401 76.1672 27.8147 76.2116 28.2743C76.2253 28.4153 76.2321 28.5642 76.2321 28.7212V34.0087H79.1504V28.2743C79.1504 27.2855 78.9741 26.4608 78.6217 25.8001C78.4527 25.4833 78.2431 25.2042 77.9931 24.9628C77.9922 24.962 77.9914 24.9612 77.9905 24.9604C77.98 24.95 77.9693 24.9397 77.9587 24.9295C77.2018 24.2054 76.2085 23.8433 74.9787 23.8433C74.9516 23.8433 74.9246 23.8435 74.8976 23.8438C74.6557 23.8471 74.4209 23.8653 74.193 23.8984C73.8393 23.9497 73.5026 24.0368 73.1828 24.1598C72.7253 24.3254 72.3242 24.5556 71.9793 24.8506C71.9106 24.9095 71.8441 24.9709 71.7798 25.0348V20.1942H68.8615V34.0087ZM66.5125 26.4498V24.2156H64.0057V21.7767H61.0874V24.2156H59.5348V26.4498H61.0874V30.5643C61.0874 31.7435 61.4117 32.6371 62.0602 33.2453C62.1128 33.2937 62.167 33.3401 62.2229 33.3846C62.264 33.4172 62.3059 33.4489 62.3488 33.4794C62.8244 33.8188 63.4124 34.0308 64.1126 34.1154C64.3452 34.1435 64.5902 34.1576 64.8475 34.1576C64.987 34.1576 65.1242 34.1531 65.2591 34.144C65.4186 34.1333 65.5749 34.1162 65.728 34.0928C65.7333 34.092 65.7385 34.0912 65.7437 34.0904C65.8842 34.0685 66.0219 34.0413 66.157 34.0087C66.5811 33.8969 66.9365 33.7356 67.2233 33.5246L66.4376 31.4766C66.2777 31.599 66.1012 31.6913 65.9079 31.7533C65.8544 31.7705 65.7997 31.7853 65.7437 31.7979C65.7045 31.8067 65.6646 31.8143 65.6241 31.8208C65.6085 31.8233 65.5928 31.8257 65.577 31.8279C65.5468 31.832 65.5162 31.8356 65.4853 31.8385C65.4118 31.8455 65.3364 31.849 65.2591 31.849C65.1097 31.849 64.9725 31.8333 64.8475 31.802C64.6388 31.7497 64.4642 31.6536 64.3238 31.5139C64.2204 31.3988 64.1422 31.2617 64.0892 31.1024C64.0858 31.0922 64.0826 31.082 64.0794 31.0717C64.0333 30.9216 64.0089 30.7525 64.006 30.5643C64.0058 30.552 64.0057 30.5396 64.0057 30.5271V26.4498H66.5125ZM57.9696 29.5528V30.5643C57.9696 32.3042 58.4616 34.134 59.922 35.5036L59.9328 35.5137L59.9436 35.5238C61.3494 36.8172 63.1303 37.2606 64.8475 37.2606C65.3963 37.2606 65.9435 37.2133 66.4842 37.1116H82.2682V36.3764C83.4268 36.9959 84.7231 37.2606 86.0421 37.2606C86.5605 37.2606 87.0751 37.2123 87.5813 37.1116H95.0527V36.2678C96.3878 36.9505 97.8379 37.2606 99.3361 37.2606C100.836 37.2606 102.289 36.9499 103.623 36.2563L103.639 36.2479L103.655 36.2394C103.666 36.2336 103.677 36.2279 103.687 36.2221V37.1116H115.679L115.628 37.2043L117.722 38.8354C118.692 39.591 119.816 40.0915 120.997 40.4104C122.155 40.7233 123.354 40.8725 124.582 40.8725C126.898 40.8725 129.185 40.3108 130.92 38.6955C132.732 37.0098 133.349 34.6736 133.349 32.333V20.8892H125.763C125.232 20.7883 124.686 20.7403 124.133 20.7403C122.731 20.7403 121.379 21.0557 120.133 21.7139C119.473 22.0593 118.878 22.4861 118.355 22.988C118.277 22.9037 118.196 22.8208 118.112 22.7394C116.671 21.3342 114.835 20.7403 112.922 20.7403C112.384 20.7403 111.849 20.7881 111.322 20.8892H107.497C107.285 20.2894 106.981 19.7256 106.595 19.2062L105.198 17.3252L103.933 17.7957C103.692 17.4309 103.396 17.0913 103.043 16.7857C101.96 15.8234 100.641 15.4528 99.3735 15.4528C97.9964 15.4528 96.6038 15.8227 95.4194 16.7548L94.3185 17.6211L94.1209 17.363L86.1835 20.2824L86.6712 20.8892H78.6217V21.6042C77.5055 21.0065 76.2592 20.7403 74.9787 20.7403C74.9517 20.7403 74.9247 20.7404 74.8976 20.7407V17.0912H65.7437V18.6737H57.9696V21.1126H56.4169V29.5528H57.9696ZM91.9348 34.0087V25.6812C92.0032 25.6539 92.0697 25.6243 92.1344 25.5925C92.1854 25.5674 92.2353 25.5409 92.284 25.5129C92.4241 25.4326 92.5546 25.3407 92.6757 25.2371C92.6822 25.2315 92.6888 25.2259 92.6953 25.2202C92.7294 25.1904 92.7628 25.1596 92.7954 25.1279C92.8158 25.1084 92.8359 25.0887 92.8556 25.0687C92.8565 25.0679 92.8573 25.0671 92.8581 25.0662C92.9805 24.9418 93.0884 24.8072 93.182 24.6624C93.2666 24.5314 93.3395 24.392 93.4005 24.2442C93.4342 24.1627 93.4642 24.0787 93.4907 23.9922C93.5883 23.673 93.6372 23.3193 93.6372 22.931C93.6372 22.8935 93.6366 22.8563 93.6356 22.8193C93.6343 22.7765 93.6323 22.7341 93.6296 22.692C93.6288 22.6792 93.6279 22.6664 93.6269 22.6537C93.5816 22.0505 93.3855 21.5224 93.0386 21.0692L91.3175 21.7022C91.4329 21.8457 91.5215 22.0025 91.5835 22.1725C91.6433 22.3364 91.6783 22.5127 91.6885 22.7013C91.6906 22.7401 91.6917 22.7794 91.6917 22.8193C91.6917 22.8573 91.6904 22.8945 91.6879 22.931C91.6677 23.2213 91.5675 23.4647 91.3872 23.6612C91.3827 23.6661 91.3782 23.6709 91.3736 23.6757C91.3729 23.6764 91.3722 23.6772 91.3715 23.6779C91.1722 23.8875 90.9048 23.9922 90.5692 23.9922H89.0165V28.9446C89.0165 28.9738 89.0163 29.0027 89.0159 29.0315C89.0086 29.4953 88.9423 29.8988 88.817 30.2418C88.7125 30.5279 88.567 30.7719 88.3805 30.9739C88.1692 31.1966 87.9238 31.3638 87.6443 31.4755C87.4084 31.5698 87.1482 31.6246 86.8638 31.6398C86.8472 31.6407 86.8306 31.6414 86.8138 31.642C86.7753 31.6435 86.7363 31.6442 86.6969 31.6442C86.4576 31.6442 86.2393 31.6192 86.0421 31.5692C85.6019 31.4575 85.2666 31.2212 85.0364 30.8602C84.8383 30.5497 84.718 30.147 84.6754 29.6521C84.6637 29.5163 84.6578 29.3735 84.6578 29.2239V23.9922H81.7395V29.6521C81.7395 30.6576 81.9157 31.4963 82.2682 32.1681C82.4378 32.4913 82.6482 32.7759 82.8994 33.0219C83.6726 33.779 84.7202 34.1576 86.0421 34.1576C86.0442 34.1576 86.0463 34.1576 86.0484 34.1576C86.2701 34.1573 86.4862 34.1429 86.6969 34.1144C86.8791 34.0897 87.0571 34.0545 87.2311 34.0087C87.4195 33.959 87.6031 33.8969 87.7819 33.8225C88.1651 33.6539 88.5102 33.4347 88.817 33.1647C88.9395 33.0569 89.0559 32.9411 89.1662 32.8171V34.0087H91.9348ZM87.7888 29.4505C87.7914 29.4606 87.7923 29.4661 87.7921 29.4663C87.7919 29.4666 87.7906 29.4615 87.7888 29.4505ZM106.805 34.0087H109.724V29.0563C109.724 28.5629 109.79 28.1377 109.923 27.7805C110.031 27.4907 110.183 27.2457 110.378 27.0456C110.588 26.825 110.832 26.6574 111.111 26.5428C111.345 26.4465 111.603 26.3876 111.886 26.366C111.901 26.3649 111.917 26.3638 111.932 26.3629C111.999 26.3587 112.067 26.3567 112.137 26.3567C112.429 26.3567 112.691 26.3956 112.922 26.4733C113.214 26.5713 113.457 26.731 113.652 26.9525C113.702 27.0073 113.748 27.0662 113.791 27.1294C113.795 27.1363 113.8 27.1434 113.805 27.1505C113.994 27.4401 114.111 27.8147 114.155 28.2743C114.169 28.4153 114.176 28.5642 114.176 28.7212V34.0087H117.094V28.2743C117.094 27.2462 116.904 26.3955 116.523 25.7221C116.361 25.4373 116.166 25.1842 115.937 24.9628C115.936 24.962 115.935 24.9612 115.934 24.9604C115.924 24.95 115.913 24.9397 115.902 24.9295C115.146 24.2054 114.152 23.8433 112.922 23.8433C112.851 23.8433 112.781 23.8445 112.71 23.8471C112.514 23.8542 112.323 23.8713 112.137 23.8983C111.974 23.922 111.814 23.9533 111.658 23.9922C111.443 24.0459 111.234 24.1142 111.033 24.197C110.613 24.3606 110.243 24.5775 109.923 24.8477C109.806 24.9464 109.696 25.0522 109.593 25.1651V23.9922H106.805V34.0087ZM104.718 22.7308C104.703 22.4585 104.651 22.1947 104.563 21.9392C104.457 21.6307 104.299 21.3345 104.088 21.0506L102.385 21.6836C102.491 21.8239 102.575 21.9682 102.638 22.1166C102.675 22.2025 102.704 22.2898 102.726 22.3784C102.755 22.492 102.772 22.6078 102.777 22.7259C102.778 22.7507 102.778 22.7756 102.778 22.8007C102.778 22.8387 102.777 22.8759 102.775 22.9124C102.765 23.0684 102.733 23.2105 102.679 23.3386C102.676 23.3466 102.673 23.3545 102.669 23.3623C102.618 23.4785 102.548 23.583 102.46 23.6757C102.455 23.682 102.449 23.6882 102.443 23.6944C102.374 23.7674 102.295 23.8277 102.205 23.8755C102.035 23.9657 101.827 24.0108 101.581 24.0108C101.552 24.0108 101.521 24.0103 101.487 24.0091C101.298 24.0026 101.023 23.9784 100.664 23.9364C100.558 23.9258 100.458 23.9161 100.362 23.9074C100.185 23.8911 100.026 23.8779 99.8867 23.8678C99.6969 23.8541 99.5417 23.8461 99.4211 23.8439C99.3977 23.8435 99.3756 23.8433 99.3548 23.8433C99.3486 23.8433 99.3423 23.8433 99.3361 23.8433C99.1775 23.8437 99.0213 23.8491 98.8675 23.8595C98.6183 23.8764 98.3753 23.9064 98.1385 23.9496C97.7214 24.0257 97.3236 24.1427 96.9452 24.3005C96.824 24.351 96.7047 24.4058 96.5875 24.4647C96.5772 24.4699 96.567 24.475 96.5567 24.4803C96.5353 24.4912 96.5139 24.5023 96.4926 24.5135C96.1544 24.6893 95.8448 24.8936 95.5639 25.1264C95.5553 25.1335 95.5468 25.1406 95.5383 25.1477C95.3655 25.2928 95.2036 25.4489 95.0527 25.6158C94.8524 25.8374 94.6714 26.0781 94.5097 26.3381C94.4417 26.4502 94.3786 26.5645 94.3204 26.681C94.3165 26.6887 94.3127 26.6965 94.3089 26.7043C94.0807 27.1671 93.9291 27.6639 93.854 28.1949C93.8172 28.4552 93.7988 28.7237 93.7988 29.0004C93.7988 29.9934 94.0358 30.8808 94.5097 31.6628C94.67 31.9273 94.851 32.1726 95.0527 32.3988C95.2029 32.5673 95.3646 32.7251 95.5378 32.8723C95.5463 32.8795 95.5547 32.8866 95.5632 32.8937C95.8382 33.1243 96.1418 33.3284 96.4739 33.506C97.322 33.9404 98.276 34.1576 99.3361 34.1576C100.396 34.1576 101.344 33.9404 102.18 33.506C102.512 33.3284 102.815 33.1243 103.09 32.8937C103.099 32.8866 103.107 32.8795 103.116 32.8723C103.323 32.6964 103.513 32.5052 103.687 32.2989C103.855 32.1009 104.007 31.8888 104.144 31.6628C104.618 30.8808 104.855 29.9934 104.855 29.0004C104.855 28.6713 104.828 28.3543 104.774 28.0494C104.707 27.6644 104.596 27.2988 104.443 26.9525C104.353 26.735 104.249 26.5277 104.131 26.3307C104 26.1124 103.853 25.9067 103.687 25.7136C103.568 25.5738 103.439 25.4407 103.302 25.3141C103.427 25.2486 103.544 25.1764 103.653 25.0975C103.665 25.0891 103.676 25.0807 103.687 25.0722C103.736 25.0363 103.782 24.9991 103.827 24.9606C103.842 24.9482 103.856 24.9356 103.87 24.923C104.058 24.7549 104.218 24.5626 104.35 24.346C104.369 24.3125 104.388 24.2787 104.407 24.2445C104.448 24.1663 104.486 24.0862 104.519 24.0044C104.521 24.0003 104.523 23.9963 104.524 23.9922C104.657 23.6621 104.724 23.3021 104.724 22.9124C104.724 22.875 104.723 22.8378 104.722 22.8007C104.721 22.7773 104.72 22.754 104.718 22.7308ZM100.413 26.4418C100.399 26.4355 100.384 26.4294 100.37 26.4234C100.233 26.3649 100.088 26.3195 99.9364 26.2871C99.8685 26.2725 99.7992 26.2606 99.7285 26.2513C99.608 26.2355 99.4835 26.2272 99.3548 26.2264C99.3486 26.2264 99.3423 26.2264 99.3361 26.2264C99.1535 26.2264 98.9787 26.2415 98.8117 26.2718C98.3926 26.3479 98.0225 26.5194 97.7016 26.7863C97.6979 26.7894 97.6942 26.7925 97.6905 26.7956C97.6192 26.8556 97.5504 26.9203 97.4841 26.9897C97.2547 27.2238 97.0795 27.4966 96.9583 27.808C96.9542 27.8184 96.9502 27.8288 96.9463 27.8393C96.8184 28.1807 96.7545 28.5677 96.7545 29.0004C96.7545 29.4447 96.8219 29.8425 96.9566 30.1939C97.0779 30.5101 97.2537 30.7887 97.4841 31.0298C97.5431 31.09 97.604 31.1465 97.6668 31.1994C97.6788 31.2095 97.6909 31.2195 97.703 31.2294C98.1515 31.5928 98.6959 31.7745 99.3361 31.7745C99.9655 31.7745 100.504 31.5929 100.951 31.2296C100.959 31.2231 100.966 31.2166 100.974 31.21C101.041 31.1541 101.106 31.094 101.169 31.0298C101.4 30.7887 101.576 30.5101 101.697 30.1939C101.832 29.8425 101.899 29.4447 101.899 29.0004C101.899 28.6794 101.864 28.3835 101.793 28.1128C101.788 28.0903 101.781 28.068 101.775 28.0458C101.699 27.778 101.587 27.5356 101.439 27.3186C101.389 27.2447 101.334 27.1738 101.276 27.1058C101.242 27.0661 101.206 27.0274 101.169 26.9897C100.947 26.7512 100.695 26.5685 100.413 26.4418ZM99.4045 29.3173C99.4317 29.3106 99.4657 29.3002 99.5048 29.2841C99.5988 29.2453 99.6703 29.1949 99.7154 29.1549C99.7213 29.1497 99.7267 29.1446 99.7317 29.1398C99.7353 29.1359 99.7389 29.1318 99.7425 29.1277C99.7671 29.0996 99.7907 29.0681 99.812 29.0342C99.8182 29.0242 99.8239 29.0145 99.8292 29.0052C99.8283 29.0036 99.8273 29.002 99.8264 29.0004C99.8254 28.9989 99.8245 28.9974 99.8236 28.9958C99.799 28.956 99.7711 28.9204 99.7431 28.8912L99.3495 29.2638L99.4045 29.3173ZM99.3267 29.2418L99.7165 28.8636C99.6724 28.8187 99.5902 28.7557 99.4799 28.7113C99.4569 28.7021 99.436 28.695 99.4176 28.6895C99.384 28.6795 99.3587 28.675 99.3445 28.673C99.341 28.6726 99.3382 28.6722 99.3361 28.672C99.3353 28.6719 99.3345 28.6718 99.3339 28.6718C99.3261 28.6724 99.3042 28.6745 99.2718 28.6821C99.2614 28.6845 99.2499 28.6875 99.2375 28.6911C99.2169 28.6972 99.1935 28.7051 99.168 28.7154C99.0553 28.7612 98.9758 28.824 98.937 28.8636L99.3267 29.2418ZM99.304 29.2638L99.2524 29.3139C99.2245 29.3066 99.1906 29.2957 99.1523 29.2798C99.0642 29.2431 98.9925 29.196 98.9402 29.1528C98.9286 29.1431 98.9178 29.1336 98.9081 29.1245C98.9004 29.1156 98.8927 29.1062 98.8852 29.0966C98.8699 29.077 98.8552 29.0561 98.8415 29.0342C98.8353 29.0242 98.8295 29.0145 98.8243 29.0052C98.8252 29.0036 98.8261 29.002 98.8271 29.0004C98.828 28.9989 98.8289 28.9974 98.8299 28.9958C98.8544 28.956 98.8824 28.9204 98.9103 28.8912L99.304 29.2638ZM99.2879 29.3222L99.3267 29.2854L99.3685 29.3249C99.3513 29.3279 99.3402 29.3289 99.3361 29.3292C99.3309 29.3288 99.314 29.3274 99.2879 29.3222ZM100.882 22.2594C100.894 22.2482 100.906 22.2369 100.917 22.2256C101.161 21.9893 101.341 21.7243 101.458 21.4303C101.513 21.2907 101.554 21.1447 101.581 20.9921C101.593 20.9259 101.601 20.8585 101.608 20.7899C101.615 20.7109 101.618 20.6302 101.618 20.5479C101.618 20.409 101.607 20.2764 101.584 20.1503C101.508 19.7357 101.307 19.3903 100.982 19.1143C100.936 19.0723 100.888 19.0326 100.838 18.9953C100.823 18.9843 100.809 18.9735 100.794 18.9629C100.789 18.9594 100.784 18.9559 100.779 18.9525C100.754 18.9354 100.729 18.9189 100.704 18.9029C100.338 18.6715 99.8946 18.5558 99.3735 18.5558C99.265 18.5558 99.159 18.5596 99.0555 18.5671C98.8017 18.5856 98.5627 18.6268 98.3384 18.6907C97.9702 18.7956 97.6418 18.9616 97.3531 19.1888L97.9518 20.3617C98.0121 20.3224 98.0727 20.2863 98.1334 20.2535C98.1488 20.2452 98.1642 20.237 98.1797 20.2291C98.1823 20.2278 98.1848 20.2265 98.1874 20.2252C98.196 20.2209 98.2046 20.2166 98.2131 20.2124C98.2853 20.1769 98.3577 20.146 98.4303 20.1198C98.4949 20.0965 98.5596 20.0768 98.6246 20.0608C98.6511 20.0543 98.6777 20.0483 98.7043 20.043C98.8208 20.0197 98.9378 20.008 99.0555 20.008C99.1712 20.008 99.2772 20.0225 99.3735 20.0516C99.495 20.0884 99.601 20.1483 99.6915 20.2314C99.7446 20.2761 99.789 20.3262 99.8247 20.3816C99.8351 20.3977 99.8448 20.4142 99.8537 20.4312C99.873 20.468 99.8888 20.5069 99.9012 20.5479C99.9211 20.6135 99.9321 20.6846 99.9343 20.761C99.9346 20.7706 99.9347 20.7802 99.9347 20.7899C99.9347 20.887 99.9206 20.9806 99.8923 21.0707C99.8555 21.1878 99.7948 21.2991 99.7102 21.4043C99.6296 21.5137 99.5125 21.6188 99.3587 21.7196C99.3574 21.7204 99.3561 21.7213 99.3548 21.7222C99.2669 21.7795 99.1671 21.8355 99.0555 21.8901C99.0313 21.9019 99.0065 21.9137 98.9811 21.9254C98.981 21.9255 98.9813 21.9253 98.9811 21.9254L99.8973 22.8938C99.9637 22.8636 100.028 22.8326 100.091 22.8007C100.377 22.6549 100.622 22.4908 100.828 22.3085C100.831 22.306 100.834 22.3035 100.836 22.301C100.844 22.2938 100.852 22.2866 100.86 22.2795C100.864 22.2762 100.867 22.2729 100.871 22.2697C100.874 22.2663 100.878 22.2628 100.882 22.2594ZM130.139 33.6363C130.184 33.342 130.212 33.0317 130.225 32.7054C130.229 32.5835 130.231 32.4594 130.231 32.333V23.9922H127.463V25.2769C127.354 25.1397 127.237 25.0123 127.114 24.8948C126.654 24.4576 126.094 24.1568 125.435 23.9922C125.206 23.9351 124.966 23.8944 124.713 23.8702C124.593 23.8587 124.47 23.8508 124.345 23.8467C124.275 23.8444 124.204 23.8433 124.133 23.8433C123.21 23.8433 122.362 24.0481 121.589 24.4577C121.361 24.5768 121.146 24.711 120.946 24.8602C120.936 24.8678 120.926 24.8754 120.916 24.8831C120.535 25.1723 120.205 25.517 119.928 25.9171C119.875 25.9933 119.823 26.0716 119.774 26.1519C119.39 26.7778 119.171 27.4853 119.115 28.2743C119.105 28.4085 119.101 28.545 119.101 28.6839C119.101 29.3153 119.199 29.8979 119.395 30.4317C119.495 30.706 119.622 30.9674 119.774 31.216C119.907 31.4319 120.052 31.6337 120.212 31.8216C120.424 32.0718 120.661 32.2972 120.921 32.4976C120.931 32.5053 120.941 32.513 120.951 32.5206C121.15 32.6709 121.363 32.807 121.589 32.9288C121.672 32.9718 121.757 33.0124 121.842 33.0507C122.194 33.2087 122.562 33.3272 122.943 33.4062C122.954 33.4084 122.964 33.4105 122.975 33.4126C123.347 33.4872 123.733 33.5246 124.133 33.5246C124.209 33.5246 124.284 33.5233 124.357 33.5207C124.478 33.5165 124.597 33.5088 124.713 33.4976C124.906 33.4791 125.093 33.4509 125.272 33.413C125.291 33.409 125.31 33.4049 125.329 33.4007C125.909 33.2709 126.415 33.0391 126.848 32.7054C126.939 32.635 127.027 32.5601 127.112 32.4807C127.163 32.4331 127.213 32.3839 127.261 32.333C127.279 32.3146 127.296 32.296 127.313 32.2772V32.7054C127.313 33.0971 127.269 33.4458 127.18 33.7517C127.11 33.9952 127.012 34.2115 126.885 34.4006C126.798 34.5311 126.697 34.6487 126.584 34.7534C126.145 35.1779 125.478 35.4062 124.582 35.4383C124.509 35.4409 124.434 35.4422 124.357 35.4422C124.283 35.4422 124.208 35.4408 124.133 35.438C123.567 35.4168 123.001 35.3153 122.436 35.1334C122.428 35.1309 122.42 35.1283 122.412 35.1257C122.305 35.0931 122.202 35.0585 122.101 35.0219C121.728 34.8857 121.397 34.7219 121.107 34.5303C121.019 34.4718 120.934 34.4107 120.853 34.347C120.845 34.3404 120.837 34.3339 120.829 34.3273C120.82 34.3204 120.812 34.3135 120.803 34.3065L119.643 36.3917C119.819 36.5285 120.008 36.6553 120.212 36.7723C120.471 36.9213 120.753 37.0543 121.058 37.1712C121.254 37.2462 121.458 37.3146 121.673 37.3764C121.686 37.3803 121.699 37.3841 121.713 37.3879C121.746 37.3973 121.779 37.4066 121.813 37.4157C122.053 37.4805 122.297 37.5364 122.544 37.5834C123.128 37.6942 123.732 37.7556 124.357 37.7674C124.432 37.7688 124.507 37.7695 124.582 37.7695C126.203 37.7695 127.483 37.4246 128.421 36.7349C128.441 36.7205 128.46 36.706 128.48 36.6914C128.588 36.6087 128.692 36.5212 128.791 36.429C129.508 35.7613 129.958 34.8305 130.139 33.6363ZM127.1 29.8181C127.105 29.8089 127.109 29.7997 127.114 29.7905C127.272 29.4649 127.351 29.096 127.351 28.6839C127.351 28.3575 127.301 28.0594 127.202 27.7897C127.176 27.7189 127.146 27.6501 127.114 27.5833C126.991 27.3333 126.82 27.1106 126.602 26.9152C126.407 26.7306 126.188 26.5831 125.946 26.4727C125.586 26.3085 125.175 26.2264 124.713 26.2264C124.51 26.2264 124.317 26.2422 124.133 26.2737C123.646 26.3573 123.226 26.5513 122.871 26.8559C122.867 26.8596 122.863 26.8632 122.859 26.8669C122.841 26.8827 122.823 26.8988 122.805 26.9152C122.565 27.1304 122.382 27.3786 122.258 27.66C122.124 27.9629 122.056 28.3042 122.056 28.6839C122.056 29.062 122.123 29.4037 122.256 29.7089C122.38 29.995 122.563 30.2491 122.805 30.4713C122.818 30.4832 122.831 30.4949 122.845 30.5065C122.859 30.5183 122.873 30.53 122.886 30.5415C123.238 30.8306 123.653 31.0153 124.133 31.0954C124.317 31.1261 124.51 31.1415 124.713 31.1415C125.132 31.1415 125.508 31.076 125.843 30.9449C126.126 30.834 126.379 30.6761 126.602 30.4713C126.812 30.2778 126.978 30.06 127.1 29.8181ZM124.283 28.8804C124.285 28.8858 124.288 28.8912 124.29 28.8967C124.336 29.0057 124.398 29.0965 124.459 29.1638C124.468 29.1738 124.477 29.1834 124.486 29.1924C124.496 29.2011 124.507 29.2099 124.519 29.2186C124.534 29.2295 124.55 29.2404 124.567 29.251C124.612 29.2785 124.655 29.2986 124.693 29.3122C124.699 29.3146 124.705 29.3167 124.711 29.3185C124.711 29.3183 124.712 29.318 124.713 29.3178C124.715 29.3171 124.717 29.3164 124.719 29.3156C124.752 29.3038 124.789 29.2865 124.828 29.263C124.851 29.249 124.872 29.2346 124.889 29.2206C124.896 29.2156 124.902 29.2108 124.907 29.206C124.912 29.2016 124.917 29.197 124.921 29.1924C124.99 29.1233 125.064 29.0221 125.117 28.8967C125.119 28.8912 125.122 28.8858 125.124 28.8804L124.703 28.4283L124.283 28.8804ZM124.705 28.4262L125.125 28.8781C125.169 28.7678 125.174 28.6937 125.174 28.6839C125.174 28.6756 125.17 28.619 125.139 28.5329C125.134 28.5182 125.128 28.5028 125.122 28.4865C125.12 28.4824 125.118 28.4782 125.116 28.4741C125.061 28.3467 124.983 28.2499 124.922 28.1934L124.705 28.4262ZM124.679 28.3981L124.487 28.1912C124.518 28.1629 124.556 28.1338 124.6 28.1076C124.64 28.0835 124.678 28.066 124.71 28.054C124.711 28.0544 124.712 28.0547 124.713 28.0551C124.738 28.065 124.766 28.0785 124.796 28.096C124.833 28.1182 124.865 28.1423 124.89 28.1648L124.679 28.3981ZM124.677 28.4003L124.271 28.8493C124.238 28.755 124.233 28.6928 124.233 28.6839C124.233 28.6938 124.232 28.6334 124.268 28.5329C124.271 28.5229 124.275 28.5125 124.279 28.5017C124.281 28.4967 124.283 28.4917 124.285 28.4865C124.341 28.353 124.422 28.2518 124.485 28.1934L124.677 28.4003Z" fill="#FFF7E6"/>
<path d="M26.6559 13.4359L24.8974 15.2605V18.5559H21.8856V5.52331H24.8974V11.6114L30.6966 5.52331H34.0638L28.6388 11.3321L34.3819 18.5559H30.8462L26.6559 13.4359Z" fill="#DA2E00"/>
<path d="M41.6446 8.39047C42.8917 8.39047 43.8956 8.76283 44.6564 9.50755C45.4296 10.2523 45.8162 11.3569 45.8162 12.8215V18.5559H42.8979V13.2684C42.8979 12.474 42.7233 11.8844 42.3741 11.4997C42.0249 11.1025 41.5198 10.9039 40.8589 10.9039C40.1231 10.9039 39.5369 11.1335 39.1004 11.5928C38.6639 12.0396 38.4457 12.7098 38.4457 13.6035V18.5559H35.5274V4.74136H38.4457V9.58202C38.8323 9.19725 39.2999 8.90557 39.8487 8.70697C40.3974 8.49597 40.996 8.39047 41.6446 8.39047Z" fill="#DA2E00"/>
<path d="M52.5209 8.39047C54.0798 8.39047 55.2771 8.76283 56.1127 9.50755C56.9482 10.2399 57.366 11.3507 57.366 12.8402V18.5559H54.6348V17.3085C54.0861 18.2393 53.0634 18.7048 51.5669 18.7048C50.7936 18.7048 50.1202 18.5745 49.5465 18.3138C48.9853 18.0532 48.555 17.6932 48.2557 17.234C47.9564 16.7747 47.8068 16.2534 47.8068 15.6701C47.8068 14.7392 48.156 14.0069 48.8543 13.4732C49.5652 12.9394 50.6565 12.6726 52.1281 12.6726H54.4477C54.4477 12.0396 54.2544 11.5555 53.8678 11.2204C53.4812 10.8729 52.9013 10.6991 52.1281 10.6991C51.5918 10.6991 51.0618 10.786 50.538 10.9597C50.0267 11.1211 49.5902 11.3445 49.2285 11.63L48.1809 9.60063C48.7296 9.21586 49.3844 8.91798 50.1451 8.70697C50.9184 8.49597 51.7103 8.39047 52.5209 8.39047ZM52.2964 16.7499C52.7953 16.7499 53.238 16.6382 53.6246 16.4148C54.0112 16.179 54.2856 15.8376 54.4477 15.3908V14.3668H52.4461C51.2488 14.3668 50.6502 14.7578 50.6502 15.5398C50.6502 15.9121 50.7936 16.21 51.0805 16.4334C51.3798 16.6444 51.7851 16.7499 52.2964 16.7499ZM52.4648 6.47282C52.814 6.31147 53.0572 6.1377 53.1944 5.95152C53.344 5.76534 53.4189 5.56055 53.4189 5.33713C53.4189 5.1013 53.3378 4.91513 53.1757 4.77859C53.0135 4.62965 52.8015 4.55518 52.5396 4.55518C52.1655 4.55518 51.7976 4.67309 51.4359 4.90892L50.8373 3.73599C51.3736 3.31398 52.047 3.10298 52.8576 3.10298C53.5186 3.10298 54.0549 3.28916 54.4664 3.66152C54.8905 4.02147 55.1025 4.49933 55.1025 5.0951C55.1025 6.1377 54.5288 6.91965 53.3814 7.44096L52.4648 6.47282Z" fill="#DA2E00"/>
<path d="M64.9058 18.7048C63.8458 18.7048 62.8917 18.4876 62.0437 18.0532C61.2081 17.6063 60.5533 16.9919 60.0794 16.21C59.6055 15.428 59.3686 14.5406 59.3686 13.5476C59.3686 12.5547 59.6055 11.6672 60.0794 10.8853C60.5533 10.1033 61.2081 9.49513 62.0437 9.06071C62.8917 8.61388 63.8458 8.39047 64.9058 8.39047C65.9659 8.39047 66.9137 8.61388 67.7493 9.06071C68.5849 9.49513 69.2396 10.1033 69.7135 10.8853C70.1874 11.6672 70.4244 12.5547 70.4244 13.5476C70.4244 14.5406 70.1874 15.428 69.7135 16.21C69.2396 16.9919 68.5849 17.6063 67.7493 18.0532C66.9137 18.4876 65.9659 18.7048 64.9058 18.7048ZM64.9058 16.3217C65.6541 16.3217 66.2652 16.0735 66.7391 15.577C67.2255 15.0681 67.4687 14.3916 67.4687 13.5476C67.4687 12.7036 67.2255 12.0334 66.7391 11.5369C66.2652 11.028 65.6541 10.7736 64.9058 10.7736C64.1575 10.7736 63.5402 11.028 63.0538 11.5369C62.5675 12.0334 62.3243 12.7036 62.3243 13.5476C62.3243 14.3916 62.5675 15.0681 63.0538 15.577C63.5402 16.0735 64.1575 16.3217 64.9058 16.3217Z" fill="#DA2E00"/>
<path d="M81.0589 18.7048C80.2233 18.7048 79.4064 18.6055 78.6083 18.4069C77.8101 18.1959 77.1741 17.9353 76.7002 17.625L77.6729 15.5398C78.1219 15.8252 78.6644 16.0611 79.3004 16.2472C79.9365 16.421 80.56 16.5079 81.1711 16.5079C82.4058 16.5079 83.0231 16.2038 83.0231 15.5956C83.0231 15.3101 82.8548 15.1053 82.518 14.9812C82.1813 14.8571 81.6637 14.7516 80.9653 14.6647C80.1422 14.5406 79.4625 14.3979 78.9263 14.2365C78.39 14.0751 77.9223 13.7897 77.5233 13.3801C77.1367 12.9705 76.9433 12.3871 76.9433 11.63C76.9433 10.997 77.1242 10.4384 77.4858 9.95438C77.86 9.4579 78.3963 9.07313 79.0946 8.80006C79.8055 8.527 80.6411 8.39047 81.6014 8.39047C82.3122 8.39047 83.0169 8.47115 83.7153 8.6325C84.4261 8.78145 85.0123 8.99245 85.4737 9.26551L84.501 11.3321C83.6155 10.8356 82.649 10.5874 81.6014 10.5874C80.9778 10.5874 80.5101 10.6743 80.1984 10.848C79.8866 11.0218 79.7307 11.2452 79.7307 11.5183C79.7307 11.8286 79.899 12.0458 80.2358 12.1699C80.5725 12.294 81.1088 12.4119 81.8446 12.5236C82.6677 12.6602 83.3411 12.8091 83.8649 12.9705C84.3887 13.1194 84.8439 13.3987 85.2305 13.8083C85.6172 14.2179 85.8105 14.7888 85.8105 15.5211C85.8105 16.1417 85.6234 16.6941 85.2492 17.1781C84.8751 17.6622 84.3264 18.0408 83.603 18.3138C82.8922 18.5745 82.0441 18.7048 81.0589 18.7048Z" fill="#DA2E00"/>
<path d="M91.6704 8.39047C93.2293 8.39047 94.4266 8.76283 95.2622 9.50755C96.0977 10.2399 96.5155 11.3507 96.5155 12.8402V18.5559H93.7843V17.3085C93.2356 18.2393 92.2129 18.7048 90.7164 18.7048C89.9431 18.7048 89.2697 18.5745 88.696 18.3138C88.1348 18.0532 87.7045 17.6932 87.4052 17.234C87.1059 16.7747 86.9563 16.2534 86.9563 15.6701C86.9563 14.7392 87.3055 14.0069 88.0039 13.4732C88.7147 12.9394 89.806 12.6726 91.2776 12.6726H93.5972C93.5972 12.0396 93.4039 11.5555 93.0173 11.2204C92.6307 10.8729 92.0508 10.6991 91.2776 10.6991C90.7413 10.6991 90.2113 10.786 89.6875 10.9597C89.1762 11.1211 88.7397 11.3445 88.378 11.63L87.3304 9.60063C87.8791 9.21586 88.5339 8.91798 89.2946 8.70697C90.0679 8.49597 90.8598 8.39047 91.6704 8.39047ZM91.4459 16.7499C91.9448 16.7499 92.3875 16.6382 92.7741 16.4148C93.1607 16.179 93.4351 15.8376 93.5972 15.3908V14.3668H91.5956C90.3983 14.3668 89.7997 14.7578 89.7997 15.5398C89.7997 15.9121 89.9431 16.21 90.23 16.4334C90.5293 16.6444 90.9346 16.7499 91.4459 16.7499ZM92.7928 4.5738H95.9356L92.5497 7.25478H90.2674L92.7928 4.5738Z" fill="#DA2E00"/>
<path d="M105.648 18.0718C105.361 18.2828 105.006 18.4441 104.582 18.5559C104.17 18.6551 103.734 18.7048 103.272 18.7048C102.075 18.7048 101.146 18.4007 100.485 17.7925C99.8364 17.1843 99.5122 16.2907 99.5122 15.1115V10.997H97.9595V8.76283H99.5122V6.32388H102.43V8.76283H104.937V10.997H102.43V15.0743C102.43 15.4963 102.536 15.8252 102.748 16.0611C102.973 16.2845 103.285 16.3962 103.684 16.3962C104.145 16.3962 104.538 16.2721 104.862 16.0238L105.648 18.0718Z" fill="#DA2E00"/>
<path fill-rule="evenodd" clip-rule="evenodd" d="M28.6388 11.3321L34.0638 5.52331H30.6966L24.8974 11.6114V5.52331H21.8856V18.5559H24.8974V15.2605L26.6559 13.4359L30.8462 18.5559H34.3819L28.6388 11.3321ZM35.5274 18.5559H38.4457V13.6035C38.4457 13.1101 38.5122 12.6849 38.6452 12.3277C38.7531 12.0379 38.9049 11.7929 39.1004 11.5928C39.3329 11.3482 39.6078 11.1687 39.9251 11.0544C40.1472 10.9744 40.39 10.9263 40.6537 10.9101C40.67 10.9091 40.6864 10.9082 40.7029 10.9074C40.7541 10.9051 40.8061 10.9039 40.8589 10.9039C41.1513 10.9039 41.4132 10.9428 41.6446 11.0205C41.9362 11.1185 42.1794 11.2782 42.3741 11.4997C42.4239 11.5545 42.4701 11.6134 42.5127 11.6766C42.5175 11.6835 42.5221 11.6906 42.5268 11.6977C42.7161 11.9873 42.833 12.3619 42.8775 12.8215C42.8911 12.9625 42.8979 13.1114 42.8979 13.2684V18.5559H45.8162V12.8215C45.8162 12.6037 45.8077 12.3939 45.7906 12.192C45.7735 11.9908 45.748 11.7974 45.7139 11.6119C45.671 11.3782 45.6146 11.1571 45.5447 10.9485C45.3521 10.3735 45.0568 9.894 44.6589 9.50999C44.6581 9.50918 44.6572 9.50836 44.6564 9.50755C44.6458 9.4972 44.6352 9.48692 44.6245 9.47672C44.6162 9.46872 44.6078 9.46077 44.5994 9.45286C43.8457 8.7446 42.8608 8.39047 41.6446 8.39047C41.6175 8.39047 41.5904 8.39066 41.5635 8.39103C41.3216 8.39434 41.0867 8.41252 40.8589 8.44557C40.5052 8.49688 40.1685 8.58401 39.8487 8.70698C39.3912 8.87255 38.99 9.10284 38.6452 9.39783C38.5765 9.45666 38.5099 9.51805 38.4457 9.58202V4.74136H35.5274V18.5559ZM41.5635 5.28785V1.63838H32.4095V2.42033H29.3561L28.0153 3.82801V2.42033H18.7678V21.6588H28.0153V20.0102L29.3646 21.6588H48.9341V21.4042C49.7917 21.6903 50.6828 21.8078 51.5669 21.8078C52.1071 21.8078 52.659 21.7626 53.2033 21.6588H60.4839V20.741C60.5118 20.7563 60.5398 20.7715 60.5679 20.7866L60.5923 20.7996L60.6168 20.8121C61.9535 21.4969 63.4055 21.8078 64.9058 21.8078C66.4053 21.8078 67.8588 21.4971 69.1929 20.8035L69.209 20.7951L69.225 20.7866C70.5359 20.0856 71.6104 19.0879 72.3833 17.8127C73.1758 16.5051 73.5422 15.0544 73.5422 13.5476C73.5422 12.0409 73.1758 10.5902 72.3833 9.2826C71.6088 8.00475 70.5293 7.00868 69.2089 6.31872C67.8727 5.60787 66.4133 5.28749 64.9058 5.28749C63.3944 5.28749 61.9336 5.60942 60.5927 6.31424C59.8847 6.68316 59.2458 7.13996 58.686 7.68089C58.5303 7.51038 58.3628 7.34565 58.183 7.18742C58.0915 7.10613 57.9984 7.02791 57.904 6.95268C58.1185 6.35391 58.2203 5.72716 58.2203 5.0951C58.2203 3.6826 57.6765 2.32735 56.5273 1.33281C55.4436 0.370533 54.1254 0 52.8577 0C51.4806 0 50.0879 0.369898 48.9035 1.30196L46.9019 2.87706L48.0356 5.09833L47.2313 5.46997L47.9267 6.20445C47.4302 6.42077 46.9532 6.67863 46.5023 6.98335C45.1167 5.79545 43.4134 5.28749 41.6446 5.28749C41.6175 5.28749 41.5905 5.28761 41.5635 5.28785ZM57.366 18.5559V12.8402C57.366 12.7838 57.3654 12.7279 57.3642 12.6726C57.353 12.1556 57.2895 11.686 57.1736 11.2638C57.0897 10.958 56.9783 10.6771 56.8395 10.4211C56.6489 10.0697 56.4067 9.7652 56.1127 9.50755C56.0913 9.4885 56.0697 9.46969 56.0478 9.45113C55.9608 9.37722 55.8701 9.30717 55.7756 9.24098C55.7529 9.22509 55.73 9.20942 55.7069 9.19398C55.6931 9.18475 55.6792 9.1756 55.6652 9.16654C55.3908 8.98836 55.0866 8.84086 54.7525 8.72404C54.4773 8.62779 54.1819 8.55237 53.8662 8.49778C53.7087 8.47055 53.5462 8.44849 53.3786 8.43163C53.106 8.40419 52.8201 8.39047 52.5209 8.39047C52.4698 8.39047 52.4187 8.39089 52.3676 8.39173C52.2876 8.39305 52.2077 8.39541 52.1281 8.39879C51.9963 8.4044 51.865 8.41283 51.7342 8.4241C51.5273 8.44192 51.3217 8.46682 51.1174 8.4988C50.831 8.54361 50.5472 8.60233 50.2658 8.67494C50.2255 8.68533 50.1853 8.69601 50.1451 8.70698C50.0664 8.72883 49.9887 8.75161 49.9122 8.77532C49.8909 8.78193 49.8696 8.78862 49.8484 8.79539C49.8378 8.79879 49.8271 8.80222 49.8165 8.80566C49.733 8.83274 49.6508 8.86097 49.5701 8.89033C49.1115 9.05705 48.6978 9.26049 48.3289 9.50066C48.2787 9.53331 48.2294 9.56663 48.1809 9.60064L49.2285 11.63C49.3107 11.5651 49.3967 11.5035 49.4866 11.445C49.7924 11.2462 50.1428 11.0844 50.538 10.9597C50.5392 10.9593 50.5405 10.9589 50.5418 10.9585C50.6104 10.9358 50.6791 10.9146 50.7479 10.8948C50.751 10.894 50.754 10.8931 50.7571 10.8922C51.2094 10.7635 51.6665 10.6991 52.1281 10.6991C52.1464 10.6991 52.1645 10.6992 52.1826 10.6994C52.2999 10.7006 52.4127 10.706 52.5209 10.7155C52.8174 10.7414 53.0797 10.798 53.3078 10.8855C53.5257 10.969 53.7124 11.0807 53.8678 11.2204C53.8842 11.2346 53.9003 11.2491 53.916 11.2638C54.0304 11.3713 54.1263 11.493 54.2038 11.6289C54.208 11.6362 54.2121 11.6436 54.2162 11.651C54.2389 11.6924 54.26 11.7351 54.2794 11.7792C54.3916 12.0337 54.4477 12.3315 54.4477 12.6726H52.1281C51.849 12.6726 51.5836 12.6822 51.3318 12.7014C51.2626 12.7067 51.1945 12.7127 51.1273 12.7194C51.118 12.7203 51.1088 12.7213 51.0995 12.7222C50.7819 12.7551 50.4877 12.8044 50.2167 12.8701C49.7064 12.9938 49.2788 13.1756 48.9341 13.4155C48.907 13.4344 48.8804 13.4536 48.8544 13.4732C48.1889 13.9817 47.8405 14.6706 47.8091 15.5397C47.8076 15.5814 47.8068 15.6236 47.8068 15.6661C47.8068 15.6674 47.8068 15.6687 47.8068 15.6701C47.8068 16.2534 47.9564 16.7747 48.2557 17.234C48.4349 17.5089 48.661 17.7482 48.9341 17.952C49.1171 18.0886 49.3213 18.2092 49.5465 18.3138C49.5601 18.32 49.5737 18.3261 49.5874 18.3321C49.6234 18.3479 49.6597 18.3632 49.6964 18.3781C50.2238 18.5907 50.8306 18.6996 51.517 18.7046C51.5336 18.7047 51.5502 18.7048 51.5669 18.7048C51.8241 18.7048 52.0672 18.691 52.2964 18.6636C52.5028 18.6388 52.6979 18.6029 52.8815 18.5559C53.4432 18.412 53.8988 18.1639 54.2482 17.8116C54.2888 17.7708 54.3279 17.7285 54.3656 17.6848C54.3736 17.6755 54.3816 17.6661 54.3895 17.6567C54.4797 17.5489 54.5615 17.4328 54.6348 17.3085V18.5559H57.366ZM54.2482 15.8025C54.2538 15.7936 54.2593 15.7846 54.2648 15.7756C54.3366 15.6574 54.3975 15.5292 54.4477 15.3908V14.3668H52.4461C52.4407 14.3668 52.4352 14.3668 52.4298 14.3668C52.4076 14.3669 52.3856 14.3671 52.3638 14.3675C52.3411 14.3678 52.3187 14.3683 52.2964 14.3689C52.2388 14.3706 52.1827 14.3733 52.1281 14.3769C51.9935 14.3859 51.8681 14.4009 51.7519 14.4219C51.5943 14.4504 51.4537 14.4899 51.3299 14.5405C50.8768 14.7256 50.6502 15.0587 50.6502 15.5397C50.6502 15.5843 50.6523 15.6277 50.6564 15.6701C50.6568 15.6745 50.6573 15.6789 50.6577 15.6833C50.6633 15.7353 50.672 15.7857 50.6838 15.8344C50.685 15.8394 50.6862 15.8442 50.6875 15.8491C50.6892 15.8558 50.691 15.8625 50.6928 15.8691C50.6974 15.8857 50.7024 15.9021 50.7077 15.9183C50.7121 15.9316 50.7168 15.9448 50.7217 15.9579C50.7219 15.9585 50.7221 15.9591 50.7224 15.9597C50.7917 16.1436 50.9111 16.3015 51.0805 16.4334C51.2197 16.5315 51.3818 16.6068 51.5669 16.6593C51.7797 16.7197 52.0229 16.7499 52.2964 16.7499C52.3469 16.7499 52.3968 16.7488 52.4461 16.7465C52.7696 16.7315 53.0684 16.6673 53.3425 16.5539C53.4035 16.5287 53.4633 16.501 53.5218 16.4709C53.5565 16.453 53.5908 16.4343 53.6246 16.4148C53.8824 16.2576 54.0902 16.0535 54.2482 15.8025ZM55.0679 4.69753C54.9921 4.28286 54.7916 3.93753 54.4664 3.66152C54.42 3.61946 54.3719 3.57977 54.3222 3.54245C54.3027 3.52782 54.283 3.51356 54.263 3.49966C54.2385 3.48259 54.2136 3.46607 54.1884 3.45011C53.8223 3.21869 53.3787 3.10298 52.8577 3.10298C52.7492 3.10298 52.6432 3.10676 52.5396 3.11432C52.2859 3.13283 52.0468 3.17403 51.8226 3.23792C51.4544 3.3428 51.126 3.50883 50.8373 3.73599L51.4359 4.90892C51.4963 4.86956 51.5568 4.83348 51.6175 4.80069C51.633 4.79236 51.6484 4.78424 51.6638 4.77634C51.6664 4.77503 51.669 4.77372 51.6715 4.77241C51.6801 4.76806 51.6887 4.76378 51.6973 4.75956C51.7694 4.72409 51.8418 4.69324 51.9145 4.66701C51.979 4.64369 52.0438 4.62403 52.1087 4.608C52.1353 4.60145 52.1619 4.59551 52.1885 4.59018C52.3049 4.56685 52.422 4.55518 52.5396 4.55518C52.6554 4.55518 52.7614 4.56973 52.8577 4.59882C52.9792 4.63556 53.0852 4.69548 53.1757 4.7786C53.2288 4.82332 53.2732 4.87338 53.3089 4.92876C53.3193 4.94486 53.3289 4.96141 53.3378 4.97841C53.3571 5.0152 53.373 5.0541 53.3854 5.0951C53.4063 5.16429 53.4174 5.23949 53.4187 5.32069C53.4188 5.32614 53.4189 5.33162 53.4189 5.33713C53.4189 5.43422 53.4047 5.52779 53.3765 5.61785C53.3397 5.73503 53.279 5.84625 53.1944 5.95153C53.1138 6.0609 52.9966 6.16599 52.8428 6.26679C52.754 6.32505 52.6529 6.38187 52.5396 6.43727C52.5334 6.4403 52.5272 6.44333 52.5209 6.44635C52.5027 6.45513 52.4841 6.46388 52.4653 6.4726C52.4651 6.47267 52.4655 6.47252 52.4653 6.4726L53.3814 7.44096C53.7554 7.27105 54.0684 7.07344 54.3205 6.84815C54.3359 6.83441 54.351 6.82056 54.366 6.80661C54.6277 6.56194 54.8197 6.28557 54.9419 5.97751C54.9924 5.85024 55.031 5.71757 55.0577 5.57948C55.0729 5.50047 55.0843 5.41969 55.0918 5.33713C55.0989 5.25808 55.1025 5.1774 55.1025 5.0951C55.1025 4.95616 55.091 4.82364 55.0679 4.69753ZM52.0763 5.29545L51.9906 5.18762C51.9944 5.21969 52.0004 5.25678 52.0096 5.29803C52.0318 5.29711 52.054 5.29625 52.0763 5.29545ZM68.6867 17.4184C69.0918 17.0738 69.4341 16.671 69.7135 16.21C70.1874 15.428 70.4244 14.5406 70.4244 13.5476C70.4244 12.5547 70.1874 11.6672 69.7135 10.8853C69.4416 10.4365 69.11 10.045 68.7189 9.71069C68.7016 9.69587 68.6841 9.68117 68.6666 9.66658C68.3898 9.43673 68.0841 9.23477 67.7493 9.06072C66.9137 8.61389 65.9659 8.39047 64.9058 8.39047C63.8458 8.39047 62.8917 8.61389 62.0437 9.06072C61.7089 9.23477 61.4031 9.43673 61.1264 9.66658C61.1178 9.67368 61.1093 9.68081 61.1008 9.68797C60.7691 9.96733 60.4797 10.2873 60.2326 10.6478C60.1796 10.7251 60.1285 10.8043 60.0794 10.8853C59.7211 11.4766 59.4982 12.1282 59.4108 12.8402C59.3826 13.0697 59.3686 13.3055 59.3686 13.5476C59.3686 14.5406 59.6055 15.428 60.0794 16.21C60.2021 16.4124 60.3369 16.6036 60.4839 16.7836C60.6719 17.014 60.8798 17.2259 61.1076 17.4195C61.116 17.4267 61.1245 17.4338 61.133 17.4409C61.408 17.6715 61.7115 17.8756 62.0437 18.0532C62.8917 18.4876 63.8458 18.7048 64.9058 18.7048C65.9659 18.7048 66.9137 18.4876 67.7493 18.0532C68.0917 17.8701 68.4037 17.6588 68.6854 17.4195C68.6858 17.4191 68.6862 17.4187 68.6867 17.4184ZM66.7391 15.577C66.9695 15.3359 67.1453 15.0573 67.2666 14.7411C67.4013 14.3897 67.4687 13.9919 67.4687 13.5476C67.4687 13.1016 67.4008 12.7041 67.2649 12.3552C67.1437 12.0438 66.9685 11.771 66.7391 11.5369C66.6774 11.4707 66.6134 11.4087 66.5471 11.3511C66.5393 11.3443 66.5315 11.3376 66.5236 11.331C66.0845 10.9594 65.5453 10.7736 64.9058 10.7736C64.2588 10.7736 63.7096 10.9638 63.2584 11.3443C63.2547 11.3475 63.251 11.3506 63.2473 11.3538C63.1806 11.4107 63.1162 11.4717 63.0538 11.5369C62.8245 11.771 62.6492 12.0438 62.528 12.3552C62.3922 12.7041 62.3243 13.1016 62.3243 13.5476C62.3243 13.9919 62.3916 14.3897 62.5264 14.7411C62.6476 15.0573 62.8235 15.3359 63.0538 15.577C63.1128 15.6372 63.1737 15.6937 63.2365 15.7466C63.2485 15.7567 63.2606 15.7667 63.2728 15.7766C63.7213 16.14 64.2656 16.3217 64.9058 16.3217C65.5444 16.3217 66.083 16.1409 66.5217 15.7794C66.5297 15.7729 66.5376 15.7663 66.5454 15.7596C66.6124 15.703 66.6769 15.6421 66.7391 15.577ZM66.2899 15.311C66.326 15.2914 66.3607 15.2714 66.3943 15.251C66.3944 15.2509 66.3942 15.251 66.3943 15.251C66.6875 15.0726 66.8892 14.8624 67.0438 14.6073C67.1991 14.351 67.3066 14.0268 67.3066 13.5476C67.3066 13.0685 67.1991 12.7443 67.0438 12.4879C66.89 12.2342 66.6921 12.0323 66.4021 11.864C66.3985 11.8619 66.3949 11.8598 66.3913 11.8578C66.3636 11.8419 66.3351 11.8263 66.3057 11.811L66.2896 11.8027L66.2736 11.7941C65.943 11.6173 65.5124 11.4935 64.9058 11.4935C64.3 11.4935 63.8554 11.6171 63.5025 11.8031L63.4949 11.8071L63.4873 11.811C63.4559 11.8273 63.4256 11.844 63.3961 11.8609C63.3944 11.8619 63.3926 11.863 63.3909 11.864C63.1009 12.0323 62.903 12.2342 62.7492 12.4879C62.5938 12.7443 62.4864 13.0685 62.4864 13.5476C62.4864 14.0268 62.5938 14.351 62.7492 14.6073C62.9029 14.8609 63.1028 15.07 63.3932 15.2476L64.8221 13.8611C64.8353 13.8646 64.8472 13.8673 64.8576 13.8694L63.3984 15.2508C63.4295 15.2697 63.4616 15.2883 63.4949 15.3065C63.8505 15.4838 64.2999 15.6018 64.9058 15.6018C65.5169 15.6018 65.9549 15.4819 66.2899 15.311ZM65.3989 13.5524C65.398 13.5508 65.3971 13.5492 65.3961 13.5476C65.3952 13.5461 65.3943 13.5446 65.3933 13.543C65.3688 13.5032 65.3408 13.4676 65.3129 13.4384L64.8576 13.8694C64.8837 13.8746 64.9005 13.876 64.9058 13.8764C64.9035 13.8764 64.9036 13.8766 64.9058 13.8764C64.9097 13.8761 64.9202 13.8752 64.9363 13.8724C64.9369 13.8723 64.9376 13.8722 64.9382 13.8721C64.9679 13.8669 65.0154 13.8557 65.0746 13.8313C65.1685 13.7925 65.2401 13.7421 65.2852 13.7021C65.291 13.6969 65.2965 13.6918 65.3014 13.687C65.3051 13.6831 65.3087 13.679 65.3123 13.6749C65.3369 13.6468 65.3605 13.6153 65.3817 13.5814C65.3879 13.5714 65.3937 13.5617 65.3989 13.5524ZM64.4779 13.6717C64.4876 13.6808 64.4983 13.6903 64.51 13.7C64.5622 13.7432 64.6339 13.7903 64.722 13.827C64.7604 13.8429 64.7942 13.8538 64.8221 13.8611L65.2862 13.4108C65.2422 13.3659 65.1599 13.3029 65.0496 13.2585C65.0266 13.2493 65.0058 13.2422 64.9874 13.2367C64.9537 13.2267 64.9285 13.2222 64.9142 13.2202C64.9108 13.2197 64.908 13.2194 64.9058 13.2192C64.8966 13.2201 64.8747 13.2229 64.8432 13.2308C64.8329 13.2334 64.8216 13.2366 64.8093 13.2404C64.7907 13.2461 64.7698 13.2534 64.7471 13.2626C64.6273 13.3113 64.5344 13.3819 64.4801 13.4384C64.4798 13.4387 64.4794 13.439 64.4791 13.4393C64.479 13.4395 64.4793 13.4392 64.4791 13.4393C64.4517 13.4683 64.4238 13.5038 64.3996 13.543C64.3987 13.5446 64.3978 13.5461 64.3968 13.5476C64.3959 13.5492 64.395 13.5508 64.394 13.5524C64.3993 13.5617 64.405 13.5714 64.4112 13.5814C64.4249 13.6033 64.4397 13.6242 64.455 13.6438C64.4625 13.6534 64.4701 13.6627 64.4779 13.6717ZM64.9058 13.2192C64.9058 13.2192 64.9059 13.2192 64.9058 13.2192V13.2192ZM61.7845 8.57349C61.4374 8.80021 61.1102 9.07032 60.8079 9.38463L61.7845 8.57349ZM77.8299 21.4117L77.8078 21.4059C76.8194 21.1446 75.8371 20.7742 74.9865 20.2172L72.7397 18.7461L74.6297 14.6945C74.0252 13.7105 73.8255 12.6158 73.8255 11.63C73.8255 10.3651 74.2017 9.1497 74.9839 8.10282L74.9877 8.09769L74.9916 8.09259C75.7775 7.04971 76.828 6.35243 77.9546 5.91196L77.9633 5.90856L77.972 5.90522C79.1207 5.46395 80.3531 5.28749 81.6014 5.28749C82.541 5.28749 83.4716 5.39318 84.3891 5.60272C85.1736 5.76926 85.9566 6.01615 86.6826 6.38684C86.7597 6.34892 86.8373 6.31208 86.9154 6.2763L91.4421 1.47081H104.862L102.652 3.2209H105.548V5.65984H108.055V14.1H107.462L109.405 19.1664L107.501 20.5671C106.834 21.0578 106.1 21.3659 105.38 21.5555L105.348 21.5638L105.316 21.5715C104.644 21.7337 103.959 21.8078 103.272 21.8078C102.038 21.8078 100.771 21.5787 99.6334 20.9694V21.6588H92.3528C91.8085 21.7626 91.2566 21.8078 90.7164 21.8078C89.5951 21.8078 88.4624 21.6187 87.4012 21.1366L87.3893 21.1312L87.3775 21.1257C86.9741 20.9383 86.5883 20.7126 86.2286 20.446C85.747 20.7649 85.2327 21.0173 84.7088 21.2151L84.6949 21.2204L84.6809 21.2255C83.5386 21.6443 82.3072 21.8078 81.0589 21.8078C79.9724 21.8078 78.9014 21.6783 77.8521 21.4172L77.8299 21.4117ZM76.7002 17.625C77.0476 17.8524 77.4821 18.0532 78.0038 18.2273C78.1937 18.2907 78.3952 18.3506 78.6083 18.4069C78.625 18.4111 78.6418 18.4152 78.6585 18.4193C78.6719 18.4225 78.6853 18.4258 78.6987 18.429C79.0218 18.5062 79.3479 18.5672 79.6772 18.612C80.1319 18.6739 80.5925 18.7048 81.0589 18.7048C81.0965 18.7048 81.1339 18.7046 81.1711 18.7042C82.1087 18.6947 82.9193 18.5645 83.603 18.3138C83.8549 18.2187 84.0856 18.1109 84.2952 17.9902C84.6874 17.7643 85.0054 17.4936 85.2493 17.1781C85.5932 16.7331 85.779 16.2304 85.8068 15.6701C85.8075 15.6557 85.8081 15.6413 85.8086 15.6268C85.809 15.6164 85.8093 15.606 85.8096 15.5956C85.8102 15.5709 85.8105 15.5461 85.8105 15.5211C85.8105 14.7888 85.6172 14.2179 85.2305 13.8083C84.9734 13.5358 84.6858 13.321 84.368 13.1639C84.208 13.0848 84.0403 13.0203 83.8649 12.9705C83.785 12.9459 83.7017 12.9215 83.6148 12.8975C83.5213 12.8716 83.4237 12.8461 83.322 12.8208C83.0913 12.7636 82.8397 12.7081 82.5674 12.6543C82.3408 12.6095 82.0999 12.566 81.8446 12.5236C81.7609 12.511 81.6799 12.4982 81.6014 12.4853C81.4981 12.4684 81.3993 12.4513 81.3049 12.4341C81.2854 12.4306 81.266 12.427 81.2468 12.4234C81.1842 12.4117 81.1235 12.4 81.065 12.3881C80.7157 12.3177 80.4393 12.2449 80.2358 12.1699C79.9436 12.0622 79.7782 11.8844 79.7395 11.6366C79.7392 11.6344 79.7389 11.6322 79.7385 11.63C79.7381 11.6268 79.7376 11.6237 79.7372 11.6205C79.7355 11.6074 79.7341 11.5941 79.7331 11.5807C79.7315 11.5603 79.7307 11.5395 79.7307 11.5183C79.7307 11.431 79.7466 11.3488 79.7785 11.2716C79.782 11.2631 79.7858 11.2546 79.7897 11.2462C79.8272 11.1655 79.8827 11.0906 79.9561 11.0214C79.9598 11.0179 79.9636 11.0144 79.9674 11.0109C80.0314 10.9525 80.1084 10.8982 80.1984 10.848C80.3584 10.7588 80.5595 10.6925 80.8017 10.6491C81.0314 10.608 81.2979 10.5874 81.6014 10.5874C81.7827 10.5874 81.9615 10.5948 82.1379 10.6097C82.1469 10.6104 82.1558 10.6112 82.1647 10.612C82.3441 10.6279 82.5211 10.6515 82.6955 10.6829C82.8694 10.7141 83.0409 10.753 83.2098 10.7996C83.2246 10.8037 83.2394 10.8079 83.2542 10.8121C83.406 10.8552 83.5557 10.9046 83.7034 10.9603C83.907 11.0369 84.1067 11.1254 84.3026 11.2257C84.321 11.2351 84.3393 11.2447 84.3576 11.2543C84.3694 11.2604 84.3811 11.2667 84.3929 11.2729C84.429 11.2923 84.4651 11.312 84.501 11.3321L85.4737 9.26551C85.2514 9.13393 85.0001 9.01677 84.7198 8.91401C84.6489 8.88801 84.5762 8.86294 84.5016 8.83879C84.2591 8.76029 83.997 8.69152 83.7153 8.6325C83.6087 8.60788 83.502 8.58513 83.3951 8.56426C83.0732 8.50142 82.75 8.45562 82.4255 8.42686C82.1517 8.4026 81.877 8.39047 81.6014 8.39047C80.6411 8.39047 79.8055 8.527 79.0947 8.80007C79.0813 8.80527 79.0681 8.81052 79.0549 8.81581C78.3759 9.08784 77.8529 9.46737 77.4858 9.95438C77.1688 10.3787 76.9908 10.8602 76.9516 11.3989C76.9487 11.4384 76.9466 11.4782 76.9452 11.5183C76.944 11.5553 76.9433 11.5925 76.9433 11.63C76.9433 12.3871 77.1367 12.9705 77.5233 13.3801C77.836 13.7011 78.1909 13.9458 78.5879 14.1144C78.6975 14.1609 78.8103 14.2016 78.9263 14.2365C79.0784 14.2823 79.2421 14.3265 79.4173 14.3693C79.5376 14.3987 79.6634 14.4274 79.7947 14.4553C79.8057 14.4577 79.8168 14.46 79.8279 14.4624C79.9362 14.4852 80.0481 14.5075 80.1637 14.5294C80.4138 14.5767 80.681 14.6218 80.9654 14.6647C81.0358 14.6735 81.1044 14.6824 81.1711 14.6916C81.2767 14.706 81.3777 14.7209 81.474 14.7363C81.4843 14.738 81.4945 14.7396 81.5047 14.7413C81.9369 14.8115 82.2747 14.8915 82.518 14.9812C82.8005 15.0853 82.9645 15.2462 83.01 15.4638C83.0139 15.4825 83.0169 15.5016 83.0191 15.5211C83.0218 15.5453 83.0231 15.5701 83.0231 15.5956C83.0231 15.6302 83.0211 15.6639 83.0171 15.6965C83.0071 15.7784 82.9845 15.854 82.9493 15.9234C82.9475 15.9271 82.9454 15.9312 82.9434 15.9348C82.9063 16.0048 82.8561 16.0683 82.7929 16.1255C82.7871 16.1308 82.7811 16.136 82.775 16.1412C82.5997 16.2908 82.3315 16.3946 81.9704 16.4526C81.7414 16.4895 81.4749 16.5079 81.1711 16.5079C81.1338 16.5079 81.0963 16.5076 81.0589 16.5069C80.9515 16.505 80.8438 16.5005 80.7357 16.4933C80.7196 16.4922 80.7036 16.4911 80.6875 16.4899C80.4749 16.4742 80.2609 16.4483 80.0454 16.412C79.799 16.3705 79.5507 16.3156 79.3004 16.2472C79.2644 16.2367 79.2287 16.226 79.1932 16.2151C79.1826 16.2118 79.1719 16.2086 79.1613 16.2053C79.1077 16.1886 79.0547 16.1715 79.0025 16.1541C78.7947 16.0849 78.598 16.0098 78.4122 15.9288C78.2553 15.8605 78.1063 15.788 77.9651 15.7114C77.8637 15.6563 77.7663 15.5991 77.6729 15.5397L76.7002 17.625ZM86.9563 15.6661C86.9563 15.6236 86.9571 15.5814 86.9586 15.5397C86.9588 15.5335 86.9591 15.5273 86.9593 15.5211C86.995 14.6607 87.3431 13.9781 88.0039 13.4732C88.1471 13.3656 88.3058 13.2689 88.48 13.183C88.7408 13.0544 89.0362 12.9501 89.3662 12.8701C89.6372 12.8044 89.9314 12.7551 90.249 12.7222C90.2583 12.7213 90.2675 12.7203 90.2768 12.7194C90.344 12.7127 90.4121 12.7067 90.4813 12.7014C90.7331 12.6822 90.9985 12.6726 91.2776 12.6726H93.5972C93.5972 12.3315 93.5411 12.0337 93.4289 11.7792C93.4095 11.7351 93.3884 11.6924 93.3657 11.651C93.3616 11.6436 93.3575 11.6362 93.3533 11.6289C93.2758 11.493 93.1799 11.3713 93.0655 11.2638C93.0498 11.2491 93.0337 11.2346 93.0173 11.2204C92.6992 10.9344 92.2503 10.7661 91.6704 10.7155C91.5455 10.7045 91.4146 10.6991 91.2776 10.6991C90.816 10.6991 90.359 10.7635 89.9066 10.8922C89.9035 10.8931 89.9005 10.894 89.8974 10.8948C89.8286 10.9146 89.7599 10.9358 89.6913 10.9585C89.69 10.9589 89.6888 10.9593 89.6875 10.9597C89.2923 11.0844 88.9419 11.2462 88.6361 11.445C88.5462 11.5035 88.4602 11.5651 88.378 11.63L87.3304 9.60064C87.7356 9.31648 88.1987 9.07972 88.7196 8.89033C88.8003 8.86097 88.8825 8.83274 88.966 8.80566C88.9766 8.80222 88.9873 8.79879 88.9979 8.79539C89.052 8.77813 89.1066 8.76135 89.1617 8.74504C89.2057 8.73205 89.25 8.71937 89.2946 8.70698C89.6155 8.61942 89.9396 8.55003 90.2669 8.4988C90.2667 8.49883 90.267 8.49878 90.2669 8.4988C90.6002 8.44665 90.9375 8.41325 91.2776 8.39879C91.3471 8.39584 91.4167 8.39367 91.4865 8.39229C91.5477 8.39108 91.609 8.39047 91.6704 8.39047C91.9775 8.39047 92.2706 8.40492 92.5497 8.43383C92.8175 8.46157 93.0724 8.50263 93.3144 8.55701C93.4336 8.5838 93.5497 8.61382 93.6626 8.64707C94.0921 8.7735 94.4761 8.94666 94.8147 9.16654C94.8237 9.17238 94.8327 9.17826 94.8417 9.18418C94.8466 9.18744 94.8515 9.1907 94.8564 9.19398C94.8795 9.20942 94.9024 9.22509 94.9251 9.24098C94.947 9.25631 94.9687 9.27185 94.9902 9.2876C95.0847 9.3569 95.1754 9.43022 95.2622 9.50755C95.7065 9.89697 96.0327 10.3934 96.2408 10.997C96.2707 11.0837 96.2981 11.1727 96.3231 11.2638C96.3496 11.3602 96.3733 11.4591 96.3943 11.5605C96.4653 11.9029 96.5051 12.2736 96.5137 12.6726C96.5149 12.7279 96.5155 12.7838 96.5155 12.8402V18.5559H93.7843V17.3085C93.711 17.4328 93.6292 17.5489 93.5389 17.6567C93.5311 17.6661 93.5231 17.6755 93.5151 17.6848C93.4774 17.7285 93.4383 17.7708 93.3977 17.8116C93.0483 18.1639 92.5927 18.412 92.031 18.5559C91.8474 18.6029 91.6523 18.6388 91.4459 18.6636C91.2168 18.691 90.9736 18.7048 90.7164 18.7048C90.6997 18.7048 90.6831 18.7047 90.6665 18.7046C89.9801 18.6996 89.3733 18.5907 88.8459 18.3781C88.8092 18.3632 88.7729 18.3479 88.7369 18.3321C88.7232 18.3261 88.7096 18.32 88.696 18.3138C88.5645 18.2527 88.4401 18.1862 88.323 18.1142C87.9403 17.879 87.6344 17.5856 87.4052 17.234C87.1059 16.7747 86.9563 16.2534 86.9563 15.6701C86.9563 15.6687 86.9563 15.6674 86.9563 15.6661ZM89.8572 15.9183C89.8616 15.9316 89.8663 15.9448 89.8712 15.9579C89.8714 15.9585 89.8717 15.9591 89.8719 15.9597C89.9413 16.1436 90.0606 16.3015 90.23 16.4334C90.3692 16.5315 90.5313 16.6068 90.7164 16.6593C90.9292 16.7197 91.1724 16.7499 91.4459 16.7499C91.4964 16.7499 91.5463 16.7488 91.5956 16.7465C91.9191 16.7315 92.2179 16.6673 92.492 16.5539C92.553 16.5287 92.6128 16.501 92.6713 16.4709C92.706 16.453 92.7403 16.4343 92.7741 16.4148C93.0319 16.2576 93.2397 16.0535 93.3977 15.8025C93.4033 15.7936 93.4089 15.7846 93.4143 15.7756C93.4861 15.6574 93.547 15.5292 93.5972 15.3908V14.3668H91.5956C91.5902 14.3668 91.5847 14.3668 91.5793 14.3668C91.5571 14.3669 91.5351 14.3671 91.5133 14.3675C91.4906 14.3678 91.4682 14.3683 91.4459 14.3689C91.3883 14.3706 91.3322 14.3733 91.2776 14.3769C91.143 14.3859 91.0176 14.4009 90.9014 14.4219C90.7438 14.4504 90.6032 14.4899 90.4794 14.5405C90.0263 14.7256 89.7997 15.0587 89.7997 15.5397C89.7997 15.5843 89.8018 15.6277 89.8059 15.6701C89.8063 15.6745 89.8068 15.6789 89.8072 15.6833C89.8128 15.7353 89.8215 15.7857 89.8333 15.8344C89.8345 15.8393 89.8357 15.8442 89.837 15.8491C89.8387 15.8558 89.8405 15.8625 89.8423 15.8691C89.8469 15.8857 89.8519 15.9021 89.8572 15.9183ZM99.5122 6.32388V8.76283H97.9595V10.997H99.5122V15.1115C99.5122 15.5278 99.5526 15.9084 99.6334 16.2535C99.7815 16.886 100.065 17.399 100.485 17.7925C100.537 17.8409 100.592 17.8873 100.648 17.9318C100.689 17.9644 100.731 17.9961 100.773 18.0266C101.249 18.366 101.837 18.578 102.537 18.6626C102.77 18.6907 103.015 18.7048 103.272 18.7048C103.412 18.7048 103.549 18.7003 103.684 18.6912C103.843 18.6805 104 18.6634 104.153 18.64C104.299 18.6177 104.442 18.5897 104.582 18.5559C105.006 18.4441 105.361 18.2828 105.648 18.0718L104.862 16.0238C104.702 16.1462 104.526 16.2385 104.333 16.3005C104.242 16.3297 104.147 16.3522 104.049 16.368C104.033 16.3705 104.018 16.3729 104.002 16.3751C103.971 16.3792 103.941 16.3828 103.91 16.3857C103.837 16.3927 103.761 16.3962 103.684 16.3962C103.534 16.3962 103.397 16.3805 103.272 16.3492C103.064 16.2969 102.889 16.2008 102.748 16.0611C102.645 15.946 102.567 15.8089 102.514 15.6496C102.511 15.6394 102.507 15.6292 102.504 15.6189C102.458 15.4688 102.434 15.2996 102.431 15.1115C102.431 15.0992 102.43 15.0868 102.43 15.0743V10.997H104.937V8.76283H102.43V6.32388H99.5122ZM95.9356 4.5738H92.7928L90.2674 7.25478H92.5497L95.9356 4.5738Z" fill="#FFF7E6"/>
<path d="M15.1277 20.9761V34.0087H12.6397L6.11095 26.096V34.0087H3.11783V20.9761H5.62457L12.1346 28.8887V20.9761H15.1277Z" fill="#DA2E00"/>
<path d="M24.1373 23.8433C25.3845 23.8433 26.3884 24.2156 27.1492 24.9603C27.9224 25.7051 28.309 26.8097 28.309 28.2743V34.0087H25.3907V28.7212C25.3907 27.9268 25.2161 27.3372 24.8669 26.9525C24.5177 26.5553 24.0126 26.3567 23.3516 26.3567C22.6158 26.3567 22.0297 26.5863 21.5932 27.0456C21.1567 27.4924 20.9384 28.1626 20.9384 29.0563V34.0087H18.0201V20.1942H20.9384V25.0348C21.325 24.6501 21.7927 24.3584 22.3415 24.1598C22.8902 23.9488 23.4888 23.8433 24.1373 23.8433Z" fill="#DA2E00"/>
<path d="M35.0137 23.8433C36.5726 23.8433 37.7699 24.2156 38.6054 24.9603C39.441 25.6927 39.8588 26.8035 39.8588 28.293V34.0087H37.1276V32.7613C36.5788 33.6922 35.5562 34.1576 34.0596 34.1576C33.2864 34.1576 32.613 34.0273 32.0393 33.7666C31.4781 33.506 31.0478 33.146 30.7485 32.6868C30.4492 32.2275 30.2995 31.7062 30.2995 31.1229C30.2995 30.192 30.6487 29.4597 31.3471 28.926C32.058 28.3923 33.1492 28.1254 34.6208 28.1254H36.9405C36.9405 27.4924 36.7472 27.0083 36.3606 26.6732C35.974 26.3257 35.3941 26.1519 34.6208 26.1519C34.0846 26.1519 33.5545 26.2388 33.0308 26.4125C32.5194 26.5739 32.0829 26.7973 31.7213 27.0828L30.6737 25.0534C31.2224 24.6687 31.8772 24.3708 32.6379 24.1598C33.4111 23.9488 34.2031 23.8433 35.0137 23.8433ZM34.7892 32.2027C35.2881 32.2027 35.7308 32.091 36.1174 31.8676C36.504 31.6318 36.7784 31.2904 36.9405 30.8436V29.8196H34.9389C33.7416 29.8196 33.143 30.2106 33.143 30.9926C33.143 31.3649 33.2864 31.6628 33.5733 31.8862C33.8726 32.0972 34.2779 32.2027 34.7892 32.2027ZM35.0885 37.9184C34.7144 37.9184 34.4026 37.8005 34.1532 37.5647C33.9162 37.3413 33.7977 37.0434 33.7977 36.671C33.7977 36.2987 33.9162 35.9884 34.1532 35.7401C34.4026 35.4919 34.7144 35.3678 35.0885 35.3678C35.4502 35.3678 35.7557 35.4919 36.0052 35.7401C36.2546 35.9884 36.3793 36.2987 36.3793 36.671C36.3793 37.0434 36.2546 37.3413 36.0052 37.5647C35.7682 37.8005 35.4627 37.9184 35.0885 37.9184ZM36.9405 22.7076L35.313 21.2926L33.6855 22.7076H31.5529L34.0222 20.0266H36.6038L39.0731 22.7076H36.9405Z" fill="#DA2E00"/>
<path d="M48.6172 23.8433C49.8643 23.8433 50.8683 24.2156 51.629 24.9603C52.4022 25.7051 52.7888 26.8097 52.7888 28.2743V34.0087H49.8706V28.7212C49.8706 27.9268 49.696 27.3372 49.3468 26.9525C48.9976 26.5553 48.4925 26.3567 47.8315 26.3567C47.0957 26.3567 46.5095 26.5863 46.073 27.0456C45.6365 27.4924 45.4183 28.1626 45.4183 29.0563V34.0087H42.5V23.9922H45.2873V25.1651C45.674 24.7431 46.1541 24.4204 46.7278 24.197C47.3015 23.9612 47.9313 23.8433 48.6172 23.8433Z" fill="#DA2E00"/>
<path d="M67.2233 33.5246C66.9365 33.7356 66.5811 33.8969 66.157 34.0087C65.7455 34.108 65.309 34.1576 64.8476 34.1576C63.6503 34.1576 62.7212 33.8535 62.0602 33.2453C61.4117 32.6371 61.0874 31.7435 61.0874 30.5643V26.4498H59.5348V24.2156H61.0874V21.7767H64.0057V24.2156H66.5125V26.4498H64.0057V30.5271C64.0057 30.9491 64.1117 31.278 64.3238 31.5139C64.5482 31.7373 64.86 31.849 65.2591 31.849C65.7205 31.849 66.1134 31.7249 66.4376 31.4766L67.2233 33.5246Z" fill="#DA2E00"/>
<path d="M74.9787 23.8433C76.2258 23.8433 77.2298 24.2156 77.9905 24.9603C78.7638 25.7051 79.1504 26.8097 79.1504 28.2743V34.0087H76.2321V28.7212C76.2321 27.9268 76.0575 27.3372 75.7083 26.9525C75.3591 26.5553 74.854 26.3567 74.193 26.3567C73.4572 26.3567 72.871 26.5863 72.4345 27.0456C71.9981 27.4924 71.7798 28.1626 71.7798 29.0563V34.0087H68.8615V20.1942H71.7798V25.0348C72.1664 24.6501 72.6341 24.3584 73.1828 24.1598C73.7316 23.9488 74.3302 23.8433 74.9787 23.8433Z" fill="#DA2E00"/>
<path d="M91.9348 23.9922V34.0087H89.1662V32.8171C88.7796 33.2515 88.3182 33.5866 87.7819 33.8225C87.2456 34.0459 86.6657 34.1576 86.0421 34.1576C84.7202 34.1576 83.6726 33.779 82.8994 33.0219C82.1261 32.2648 81.7395 31.1415 81.7395 29.6521V23.9922H84.6578V29.2239C84.6578 30.8374 85.3375 31.6442 86.6969 31.6442C87.3953 31.6442 87.9565 31.4208 88.3805 30.9739C88.8045 30.5147 89.0166 29.8382 89.0166 28.9446V23.9922H91.9348ZM90.0641 23.9922H90.5692C90.906 23.9922 91.1741 23.8867 91.3736 23.6757C91.5856 23.4523 91.6917 23.1668 91.6917 22.8193C91.6917 22.3849 91.5669 22.0125 91.3175 21.7022L93.0386 21.0692C93.4376 21.5905 93.6372 22.2111 93.6372 22.931C93.6372 23.8619 93.3566 24.5942 92.7954 25.1279C92.2466 25.6616 91.4796 25.9285 90.4944 25.9285H90.0641V23.9922Z" fill="#DA2E00"/>
<path d="M103.302 25.3141C103.801 25.7733 104.181 26.3195 104.443 26.9525C104.717 27.5731 104.855 28.2557 104.855 29.0004C104.855 29.9934 104.618 30.8808 104.144 31.6628C103.67 32.4447 103.015 33.0591 102.18 33.506C101.344 33.9404 100.396 34.1576 99.3361 34.1576C98.276 34.1576 97.322 33.9404 96.4739 33.506C95.6383 33.0591 94.9836 32.4447 94.5097 31.6628C94.0358 30.8808 93.7988 29.9934 93.7988 29.0004C93.7988 28.0075 94.0358 27.12 94.5097 26.3381C94.9961 25.5561 95.657 24.9479 96.4926 24.5135C97.3407 24.0667 98.2947 23.8433 99.3548 23.8433C99.6042 23.8433 100.041 23.8743 100.664 23.9364C101.088 23.986 101.394 24.0108 101.581 24.0108C101.968 24.0108 102.261 23.8991 102.46 23.6757C102.672 23.4523 102.778 23.1606 102.778 22.8007C102.778 22.4035 102.647 22.0311 102.385 21.6836L104.088 21.0506C104.512 21.6215 104.724 22.2421 104.724 22.9124C104.724 23.4461 104.599 23.924 104.35 24.346C104.1 24.7556 103.751 25.0783 103.302 25.3141ZM99.3361 31.7745C100.072 31.7745 100.683 31.5263 101.169 31.0298C101.656 30.5209 101.899 29.8444 101.899 29.0004C101.899 28.1564 101.656 27.4862 101.169 26.9897C100.695 26.4808 100.084 26.2264 99.3361 26.2264C98.5878 26.2264 97.9705 26.4808 97.4841 26.9897C96.9977 27.4862 96.7545 28.1564 96.7545 29.0004C96.7545 29.8444 96.9977 30.5209 97.4841 31.0298C97.9705 31.5263 98.5878 31.7745 99.3361 31.7745ZM98.9807 21.9256C99.3298 21.7643 99.573 21.5905 99.7102 21.4043C99.8599 21.2181 99.9347 21.0134 99.9347 20.7899C99.9347 20.5541 99.8537 20.3679 99.6915 20.2314C99.5294 20.0825 99.3174 20.008 99.0555 20.008C98.6813 20.008 98.3134 20.1259 97.9518 20.3617L97.3531 19.1888C97.8894 18.7668 98.5629 18.5558 99.3735 18.5558C100.034 18.5558 100.571 18.742 100.982 19.1143C101.406 19.4743 101.618 19.9521 101.618 20.5479C101.618 21.5905 101.045 22.3725 99.8973 22.8938L98.9807 21.9256Z" fill="#DA2E00"/>
<path d="M112.922 23.8433C114.17 23.8433 115.174 24.2156 115.934 24.9603C116.708 25.7051 117.094 26.8097 117.094 28.2743V34.0087H114.176V28.7212C114.176 27.9268 114.001 27.3372 113.652 26.9525C113.303 26.5553 112.798 26.3567 112.137 26.3567C111.401 26.3567 110.815 26.5863 110.378 27.0456C109.942 27.4924 109.724 28.1626 109.724 29.0563V34.0087H106.805V23.9922H109.593V25.1651C109.979 24.7431 110.459 24.4204 111.033 24.197C111.607 23.9612 112.237 23.8433 112.922 23.8433Z" fill="#DA2E00"/>
<path d="M130.231 23.9922V32.333C130.231 34.17 129.751 35.5353 128.791 36.429C127.831 37.3226 126.428 37.7695 124.582 37.7695C123.609 37.7695 122.686 37.6516 121.813 37.4157C120.94 37.1799 120.217 36.8386 119.643 36.3917L120.803 34.3065C121.227 34.6541 121.763 34.9271 122.412 35.1257C123.06 35.3367 123.709 35.4422 124.357 35.4422C125.368 35.4422 126.11 35.2126 126.584 34.7534C127.07 34.3065 127.313 33.6239 127.313 32.7054V32.2772C126.552 33.1088 125.492 33.5246 124.133 33.5246C123.21 33.5246 122.362 33.326 121.589 32.9288C120.828 32.5192 120.223 31.9483 119.774 31.216C119.325 30.4837 119.101 29.6397 119.101 28.6839C119.101 27.7282 119.325 26.8842 119.774 26.1519C120.223 25.4196 120.828 24.8548 121.589 24.4577C122.362 24.0481 123.21 23.8433 124.133 23.8433C125.592 23.8433 126.702 24.3211 127.463 25.2769V23.9922H130.231ZM124.713 31.1415C125.486 31.1415 126.116 30.9181 126.602 30.4713C127.101 30.012 127.351 29.4162 127.351 28.6839C127.351 27.9516 127.101 27.3621 126.602 26.9152C126.116 26.456 125.486 26.2264 124.713 26.2264C123.94 26.2264 123.304 26.456 122.805 26.9152C122.306 27.3621 122.056 27.9516 122.056 28.6839C122.056 29.4162 122.306 30.012 122.805 30.4713C123.304 30.9181 123.94 31.1415 124.713 31.1415Z" fill="#DA2E00"/>
<path fill-rule="evenodd" clip-rule="evenodd" d="M87.7888 29.4505C87.7914 29.4606 87.7923 29.4661 87.7921 29.4663C87.7919 29.4666 87.7906 29.4615 87.7888 29.4505ZM100.413 26.4418C100.399 26.4355 100.384 26.4294 100.37 26.4234C100.233 26.3649 100.088 26.3195 99.9364 26.2871C99.8685 26.2725 99.7992 26.2606 99.7285 26.2513C99.608 26.2355 99.4835 26.2272 99.3548 26.2264C99.3486 26.2264 99.3423 26.2264 99.3361 26.2264C99.1535 26.2264 98.9787 26.2415 98.8117 26.2718C98.3926 26.3479 98.0225 26.5194 97.7016 26.7863C97.6979 26.7894 97.6942 26.7925 97.6905 26.7956C97.6192 26.8556 97.5504 26.9203 97.4841 26.9897C97.2547 27.2238 97.0795 27.4966 96.9583 27.808C96.9542 27.8184 96.9502 27.8288 96.9463 27.8393C96.8184 28.1807 96.7545 28.5677 96.7545 29.0004C96.7545 29.4447 96.8219 29.8425 96.9566 30.1939C97.0779 30.5101 97.2537 30.7887 97.4841 31.0298C97.5431 31.09 97.604 31.1465 97.6668 31.1994C97.6788 31.2095 97.6909 31.2195 97.703 31.2294C98.1515 31.5928 98.6959 31.7745 99.3361 31.7745C99.9655 31.7745 100.504 31.5929 100.951 31.2296C100.959 31.2231 100.966 31.2166 100.974 31.21C101.041 31.1541 101.106 31.094 101.169 31.0298C101.4 30.7887 101.576 30.5101 101.697 30.1939C101.832 29.8425 101.899 29.4447 101.899 29.0004C101.899 28.6794 101.864 28.3835 101.793 28.1128C101.788 28.0903 101.781 28.068 101.775 28.0458C101.699 27.778 101.587 27.5356 101.439 27.3186C101.389 27.2447 101.334 27.1738 101.276 27.1058C101.242 27.0661 101.206 27.0274 101.169 26.9897C100.947 26.7512 100.695 26.5685 100.413 26.4418ZM99.3361 29.3292C99.3308 29.3288 99.3139 29.3274 99.2879 29.3222L99.3361 29.3292ZM127.114 27.5833C126.991 27.3333 126.82 27.1106 126.602 26.9152C126.407 26.7306 126.188 26.5831 125.946 26.4727C125.586 26.3085 125.175 26.2264 124.713 26.2264C124.51 26.2264 124.317 26.2422 124.133 26.2737C123.646 26.3573 123.226 26.5513 122.871 26.8559C122.867 26.8596 122.863 26.8632 122.859 26.8669C122.841 26.8827 122.823 26.8988 122.805 26.9152C122.565 27.1304 122.382 27.3786 122.258 27.66C122.124 27.9629 122.056 28.3042 122.056 28.6839C122.056 29.062 122.123 29.4037 122.256 29.7089C122.38 29.995 122.563 30.2491 122.805 30.4713C122.818 30.4832 122.831 30.4949 122.845 30.5065C122.859 30.5183 122.873 30.53 122.886 30.5415C123.238 30.8306 123.653 31.0153 124.133 31.0954C124.317 31.1261 124.51 31.1415 124.713 31.1415C125.132 31.1415 125.508 31.076 125.843 30.9449C126.126 30.834 126.379 30.6761 126.602 30.4713C126.812 30.2778 126.978 30.06 127.1 29.8181C127.105 29.8089 127.109 29.7997 127.114 29.7905C127.272 29.4649 127.351 29.096 127.351 28.6839C127.351 28.3575 127.301 28.0594 127.202 27.7897C127.176 27.7189 127.146 27.6501 127.114 27.5833Z" fill="#FFF7E6"/>
</svg>
