<svg width="188" height="190" viewBox="0 0 188 190" fill="none" xmlns="http://www.w3.org/2000/svg">
<path fill-rule="evenodd" clip-rule="evenodd" d="M132.539 172.928C111.201 194.396 76.7997 194.396 55.4608 172.928L16.4042 133.613C-4.93463 112.144 -4.93463 77.4849 16.4042 56.0167L55.4608 16.7015C76.7997 -4.76664 111.201 -4.76664 132.539 16.7015L171.596 56.0167C192.935 77.4849 192.935 112.144 171.596 133.613L132.539 172.928Z" fill="white"/>
<path fill-rule="evenodd" clip-rule="evenodd" d="M71.1096 152.366C68.2644 152.366 65.5485 149.521 65.5485 146.805C65.5485 144.995 66.4538 143.96 67.3591 143.055C68.2644 142.149 70.2043 141.244 71.1096 141.244C73.9547 141.244 76.6706 144.089 76.6706 146.805C76.7999 149.65 73.9547 152.366 71.1096 152.366Z" fill="#FD4363"/>
<path fill-rule="evenodd" clip-rule="evenodd" d="M91.6724 45.8006C88.8272 45.8006 86.1113 46.7059 84.3008 48.6458C79.645 53.3015 77.8345 61.7077 77.8345 73.8644C77.8345 88.8663 81.5849 117.835 93.6123 133.743C95.4228 136.588 97.3627 138.398 100.079 139.304C101.889 140.209 104.734 142.149 108.485 142.149C109.39 142.149 110.295 142.149 111.33 142.149C117.796 140.338 126.203 132.837 132.669 123.397C133.574 121.586 135.514 120.551 137.325 120.551C138.23 120.551 139.135 120.551 140.17 121.457C141.075 122.362 141.98 123.267 141.98 124.302C141.98 125.207 141.98 127.147 141.075 128.052C132.669 141.114 122.452 149.52 113.141 151.46C111.33 151.46 109.39 152.366 107.58 152.366C101.113 152.366 97.3627 149.52 93.6123 147.71C90.7671 145.899 88.0512 143.054 85.2061 139.304C68.523 117.835 67.4883 77.6149 67.4883 73.8644C67.4883 63.5183 68.3936 48.6458 76.7998 40.2395C80.5503 36.4891 86.1113 34.6785 91.6724 34.6785H92.5777C98.1387 34.6785 103.7 36.4891 107.45 40.2395C115.856 48.6458 117.667 62.7423 116.762 73.8644C116.762 85.1158 114.951 106.584 102.794 125.336C101.889 127.147 99.9493 128.182 98.1387 128.182C97.2334 128.182 96.3281 128.182 95.2935 127.276C92.4483 125.466 92.4484 122.62 93.483 119.775C101.889 106.713 105.51 91.7115 105.51 72.9592C105.51 60.8025 103.7 51.491 99.044 47.7405C98.1387 46.7059 96.1988 45.8006 91.6724 45.8006Z" fill="#C80040"/>
</svg>
