<svg width="255" height="75" viewBox="0 0 255 75" fill="none" xmlns="http://www.w3.org/2000/svg">
<g clip-path="url(#clip0_171810_185515)">
<path d="M61.3762 9.08268C61.3762 9.22029 61.3762 9.22029 61.2385 9.35791C59.0367 14.5873 55.5963 19.2662 51.1927 22.9818C50.5046 23.6698 49.8165 22.9818 49.5413 22.7065C45.6881 19.4038 40.5963 18.0276 35.5046 18.7157C30.5505 19.1286 26.0092 21.468 22.9817 25.3212C22.7064 25.5964 22.5688 25.8717 22.2936 26.1469C21.6055 26.9726 21.0551 27.9359 20.6422 28.8992C20.5046 29.1744 20.367 29.312 20.367 29.5873C20.0918 30.0001 19.9541 30.5506 19.8165 30.9634C19.6789 31.3763 19.5413 31.9267 19.4037 32.3396C18.7156 34.8166 18.578 37.5689 18.8532 40.1836C18.8532 40.7341 18.9908 41.2845 19.1284 41.835C19.4037 43.3487 19.9541 44.8625 20.7798 46.2386C21.0551 46.6515 21.3303 47.2019 21.6055 47.6148C21.8807 48.0276 22.156 48.4405 22.4312 48.8533C22.7064 49.2662 23.1193 49.679 23.3945 50.0919C23.6697 50.5047 24.0826 50.9175 24.4954 51.3304C24.9083 51.7432 23.8074 52.2937 23.6697 52.2937C22.5688 52.8441 21.6055 53.6698 20.7798 54.4955L20.6422 54.7707C20.367 55.046 20.0918 55.3212 19.9541 55.5964C17.3395 59.0368 15.4129 62.89 14.3119 66.8808C11.422 64.8166 8.94496 61.3762 6.88074 58.624C6.33028 57.7983 5.77982 56.9726 5.22937 56.1469C4.95414 55.5964 4.54129 55.046 4.26606 54.4955C3.99083 53.9451 3.7156 53.3946 3.44037 52.7065C3.30276 52.4313 3.16514 52.0185 3.02753 51.7432C2.47707 50.3671 2.06423 48.9909 1.65138 47.6148C1.37615 46.5139 1.10092 45.4129 0.825695 44.4496C0.68808 43.8992 0.68808 43.3487 0.550466 42.9359C0.137621 40.4588 0.137622 37.9818 0.275236 35.5047C0.275236 34.679 0.412851 33.7157 0.550466 32.89C0.68808 32.0643 0.825695 31.5139 0.96331 30.8258C1.51377 28.2111 2.33946 25.5964 3.44037 23.1194C3.99083 21.8808 4.54129 20.6423 5.22937 19.5414C5.50459 18.9909 5.91744 18.3029 6.33028 17.7524C9.77065 12.2478 14.7248 7.70653 20.5046 4.81663C21.6055 4.26617 22.7064 3.71571 23.945 3.16525C24.7707 2.89002 25.734 2.47718 26.6973 2.20195C28.211 1.7891 29.8624 1.37626 31.5138 1.10103L33.1651 0.825801C38.8074 0.000112832 44.4496 0.550572 49.8165 2.33956C53.8074 3.85332 57.6606 5.91754 61.1009 8.39461C61.3762 8.53222 61.5138 8.66984 61.6514 8.94507C61.3762 8.66984 61.3762 8.80745 61.3762 9.08268Z" fill="#4D37A5"/>
<path d="M60.4128 67.2936C55.3211 71.1468 49.266 73.6239 43.0734 74.5872C35.0917 75.6881 26.9724 74.312 19.8165 70.5964C17.7523 69.4955 15.8257 68.1193 13.8991 66.7432C13.6238 66.4679 13.4862 66.1927 13.4862 65.9175C14.7247 62.0643 16.789 58.4863 19.5413 55.4588C19.8165 55.1835 20.0917 54.9083 20.2293 54.6331L20.3669 54.3579C21.055 53.6698 21.6055 52.9817 22.2935 52.4312C22.5688 52.156 23.6697 50.9175 24.0825 51.1927C24.633 51.6056 25.0458 51.8808 25.5963 52.156L26.1468 52.4312C32.2018 56.2845 40.7339 57.2478 46.9266 53.6698C47.6146 53.2569 48.1651 52.8441 48.7156 52.2936C49.5413 51.3303 51.055 51.3303 52.0183 52.156L52.1559 52.2936C56.2844 55.4588 59.4495 59.7248 61.1009 64.8166C61.6513 65.7799 61.3761 66.8808 60.4128 67.2936Z" fill="#7A71BC"/>
<path d="M49.5413 37.7063C49.4037 44.3118 43.8991 49.5412 37.156 49.4036C30.4128 49.266 25.3211 43.7614 25.4587 37.0183C25.5963 30.4128 31.1009 25.1834 37.844 25.321C44.4495 25.5962 49.6789 31.1008 49.5413 37.7063Z" fill="#FD4363"/>
<path d="M96.3303 40.7339C95.6422 43.4862 94.2661 45.8256 92.0642 47.6146C89.8624 49.4036 87.2477 50.2293 84.3578 50.2293C80.9174 50.2293 78.0275 48.9908 75.6881 46.6513C73.3486 44.3119 72.1101 41.422 72.1101 37.9816C72.1101 34.5412 73.211 31.6513 75.5505 29.3119C77.8899 26.9724 80.7798 25.7339 84.0826 25.7339C87.1101 25.7339 89.5872 26.5596 91.9266 28.3486C94.2661 30.1376 95.6422 32.477 96.1927 35.3669H89.3119C88.3486 33.1651 86.5596 32.2018 84.2202 32.2018C82.5688 32.2018 81.3303 32.7522 80.367 33.9908C79.4037 35.0917 78.9908 36.4678 78.9908 38.1192C78.9908 39.7706 79.5413 41.1467 80.5046 42.2477C81.4679 43.3486 82.8441 43.899 84.4954 43.899C86.6973 43.899 88.3486 42.9357 89.4496 40.8715H96.3303V40.7339Z" fill="white"/>
<path d="M112.156 32.6146C110.367 32.6146 109.128 32.8898 108.303 33.4403C107.202 34.1284 106.789 35.2293 106.789 36.8807V49.4036H99.9083V26.5596H106.376V28.899H106.514C107.615 26.6972 109.541 25.7339 112.294 25.7339V32.6146H112.156Z" fill="white"/>
<path d="M137.615 40.046H120.55C120.963 42.9359 122.752 44.312 125.917 44.312C127.569 44.312 128.945 43.624 130.046 42.2478H137.064C136.101 44.5873 134.587 46.5139 132.661 47.89C130.596 49.4038 128.394 50.0918 125.917 50.0918C122.615 50.0918 119.725 48.8533 117.385 46.5139C115.046 44.1744 113.807 41.2845 113.807 37.9818C113.807 34.679 114.908 31.7891 117.248 29.312C119.587 26.835 122.477 25.5964 125.78 25.5964C129.22 25.5964 132.11 26.835 134.45 29.312C136.651 31.6515 137.89 34.679 137.89 38.1194C137.752 38.8074 137.752 39.4955 137.615 40.046ZM131.009 35.3671C130.459 32.7524 128.67 31.3762 125.78 31.3762C122.89 31.3762 121.101 32.7524 120.55 35.3671H131.009Z" fill="white"/>
<path d="M158.945 49.4037V46.9267H158.807C158.119 48.0276 157.156 48.8533 155.917 49.4037C154.817 49.8166 153.578 50.0918 152.064 50.0918C148.624 50.0918 145.872 48.8533 143.67 46.5138C141.606 44.1744 140.505 41.2845 140.505 37.8441C140.505 34.4037 141.468 31.5138 143.532 29.312C145.734 26.9725 148.486 25.734 151.789 25.734C154.541 25.734 156.743 26.6973 158.532 28.4863V18.8533H165.413V49.4037H158.945ZM157.294 33.7157C156.193 32.6147 154.817 32.0643 153.165 32.0643C151.514 32.0643 150.138 32.6147 149.037 33.7157C147.936 34.8166 147.385 36.1927 147.385 37.8441C147.385 39.4955 147.936 40.8716 149.037 41.9725C150.138 43.0735 151.514 43.6239 153.165 43.6239C154.817 43.6239 156.33 43.0735 157.431 41.9725C158.532 40.8716 159.083 39.4955 159.083 37.7065C158.945 36.1927 158.395 34.8166 157.294 33.7157Z" fill="white"/>
<path d="M170.367 24.0826V18.8533H177.248V24.0826H170.367ZM170.367 49.4037V26.5597H177.248V49.4037H170.367Z" fill="white"/>
<path d="M190.321 31.6514V49.2661H183.44V31.6514H180V26.4221H183.44V18.8533H190.321V26.4221H193.624V31.6514H190.321Z" fill="white"/>
<path d="M197.064 49.4039V42.3855H204.22V49.4039H197.064Z" fill="white"/>
<path d="M222.385 49.4039H215.78L207.523 26.5598H214.541L218.945 40.8717H219.083L223.486 26.5598H230.505L222.385 49.4039Z" fill="white"/>
<path d="M248.257 49.4036V36.8807C248.257 35.3669 247.982 34.266 247.569 33.5779C247.018 32.6146 246.055 32.2018 244.679 32.2018C243.165 32.2018 242.202 32.6146 241.514 33.5779C240.963 34.266 240.688 35.5045 240.688 37.0183V49.4036H233.807V26.5596H240.138V28.899H240.275C241.651 26.6972 243.716 25.7339 246.468 25.7339C248.807 25.7339 250.734 26.422 252.385 27.6605C253.349 28.4862 254.037 29.5871 254.45 30.9632C254.725 32.0642 255 33.4403 255 34.9541V49.266H248.257V49.4036Z" fill="white"/>
</g>
<defs>
<clipPath id="clip0_171810_185515">
<rect width="255" height="75" fill="white"/>
</clipPath>
</defs>
</svg>
