<svg width="89" height="89" viewBox="0 0 89 89" fill="none" xmlns="http://www.w3.org/2000/svg">
<g clip-path="url(#clip0_170429_182254)">
<path d="M65.8349 18.6399C65.8349 18.7612 65.8349 18.7612 65.714 18.8825C63.7799 23.492 60.7577 27.6163 56.8894 30.8915C56.6477 31.1341 56.5268 31.1341 56.285 31.1341C55.9223 31.1341 55.5597 30.7702 55.3179 30.5276C51.9331 27.6163 47.4604 26.4033 42.9876 27.0098C38.6358 27.3737 34.6466 29.4359 31.9871 32.8324C31.7453 33.075 31.6245 33.3176 31.3827 33.5602C30.7783 34.288 30.2947 35.1371 29.9321 35.9863C29.8112 36.2289 29.6903 36.3502 29.6903 36.5928C29.4485 36.9567 29.3276 37.4419 29.2068 37.8058C29.0859 38.1697 28.965 38.6549 28.8441 39.0189C28.2397 41.3236 28.1188 43.6284 28.3606 45.9331C28.3606 46.4184 28.4814 46.9036 28.6023 47.3888C28.8441 48.7231 29.3276 50.0575 30.0529 51.2705C30.2947 51.6344 30.5365 52.1196 30.7783 52.4835C30.7783 52.6048 30.8991 52.7261 31.02 52.7261C27.7561 55.2735 23.1625 59.7617 21.1075 66.4334C19.8986 64.9778 18.8106 63.5221 17.8436 62.1878C17.36 61.46 16.8765 60.7322 16.3929 60.0043C16.1512 59.5191 15.7885 59.0339 15.5467 58.5487C15.305 58.0635 15.0632 57.5783 14.8214 56.9718C14.7005 56.7291 14.5797 56.3652 14.4588 56.1226C13.9752 54.9096 13.6126 53.6966 13.2499 52.4835C13.0082 51.5131 12.7664 50.5427 12.5246 49.6936C12.4037 49.2083 12.4037 48.7231 12.2828 48.3592C12.0411 46.1758 11.9202 43.9923 12.0411 41.8088C12.0411 41.081 12.162 40.2319 12.2828 39.5041C12.4037 38.7762 12.5246 38.291 12.6455 37.6845C13.129 35.3798 13.8544 33.075 14.8214 30.8915C15.305 29.7998 15.7885 28.7081 16.3929 27.7376C16.6347 27.2524 16.9974 26.6459 17.36 26.1607C20.3821 21.3086 24.734 17.3056 29.8112 14.7582C30.7783 14.273 31.8662 13.7878 32.8333 13.3025C33.5586 13.0599 34.4048 12.696 35.251 12.4534C36.5807 12.0895 38.0314 11.7256 39.482 11.483L40.9326 11.2404C45.6471 10.27 50.7243 10.6339 55.4388 12.2108C58.9445 13.5451 62.3293 15.2434 65.3514 17.5482C65.5932 17.6695 65.714 17.7908 65.8349 18.0334C65.8349 18.276 65.9558 18.3973 65.8349 18.6399Z" fill="#F0F0F0"/>
<path d="M64.9887 69.9511C60.5159 73.3476 55.197 75.4097 49.7571 76.3801C42.7458 77.3506 35.6136 76.1375 29.3276 72.8623C27.5143 71.8919 25.8219 70.6789 24.1295 69.4658C24.1295 69.4658 24.1295 69.4659 24.0086 69.3445C23.8877 69.2232 23.7668 68.9806 23.7668 68.6167C24.8548 65.2202 26.6681 62.0663 29.0858 59.3977C29.2067 59.2764 29.2067 59.1551 29.3276 59.1551C29.4484 59.0338 29.5693 58.9125 29.6902 58.6699L29.8111 58.5485C30.4155 57.942 30.8991 57.3355 31.5035 56.8503C31.7453 56.6077 32.7123 55.516 33.075 55.7586C33.5585 56.0012 33.9212 56.3651 34.4047 56.6077L34.8883 56.8503C40.2072 60.2468 47.7021 61.0959 53.1419 57.942C53.7463 57.5781 54.2299 57.2142 54.7134 56.729C55.5596 55.8799 56.7685 55.8799 57.6147 56.6077L57.7355 56.729C61.3621 59.519 64.1425 63.2794 65.5931 67.7676C66.0766 68.4954 65.8348 69.5872 64.9887 69.9511Z" fill="#594DC9"/>
<path d="M55.4388 43.8708C55.3179 49.6934 50.4825 54.3029 44.5591 54.1816C38.6357 54.0603 34.163 49.2082 34.2839 43.2643C34.4048 37.4417 39.2402 32.8322 45.1635 32.9535C50.966 33.1961 55.5597 38.0483 55.4388 43.8708Z" fill="#FD4363"/>
</g>
<path d="M13.2468 75.452C7.06548 69.2707 2.85596 61.3952 1.15054 52.8215C-0.554883 44.2478 0.3204 35.3609 3.6657 27.2846C7.011 19.2084 12.6761 12.3055 19.9445 7.44884C27.213 2.59221 35.7584 -1.04244e-07 44.5 0C53.2417 1.04244e-07 61.7871 2.59221 69.0556 7.44884C76.324 12.3055 81.9891 19.2084 85.3344 27.2846C88.6797 35.3609 89.555 44.2478 87.8495 52.8215C86.1441 61.3952 81.9346 69.2707 75.7533 75.452L72.628 72.3267C78.1911 66.7635 81.9797 59.6756 83.5146 51.9593C85.0495 44.2429 84.2617 36.2447 81.2509 28.976C78.2402 21.7074 73.1416 15.4948 66.6 11.1238C60.0584 6.75287 52.3676 4.41988 44.5 4.41988C36.6325 4.41988 28.9417 6.75287 22.4001 11.1238C15.8585 15.4948 10.7599 21.7074 7.74914 28.976C4.73837 36.2447 3.95061 44.2429 5.48549 51.9592C7.02037 59.6756 10.8089 66.7635 16.3721 72.3267L13.2468 75.452Z" fill="url(#paint0_radial_170429_182254)"/>
<path d="M13.2468 75.452C7.06548 69.2707 2.85596 61.3952 1.15054 52.8215C-0.554883 44.2478 0.3204 35.3609 3.6657 27.2846C7.011 19.2084 12.6761 12.3055 19.9445 7.44884C27.213 2.59221 35.7584 -1.04244e-07 44.5 0C53.2417 1.04244e-07 61.7871 2.59221 69.0556 7.44884C76.324 12.3055 81.9891 19.2084 85.3344 27.2846C88.6797 35.3609 89.555 44.2478 87.8495 52.8215C86.1441 61.3952 81.9346 69.2707 75.7533 75.452L72.628 72.3267C78.1911 66.7635 81.9797 59.6756 83.5146 51.9593C85.0495 44.2429 84.2617 36.2447 81.2509 28.976C78.2402 21.7074 73.1416 15.4948 66.6 11.1238C60.0584 6.75287 52.3676 4.41988 44.5 4.41988C36.6325 4.41988 28.9417 6.75287 22.4001 11.1238C15.8585 15.4948 10.7599 21.7074 7.74914 28.976C4.73837 36.2447 3.95061 44.2429 5.48549 51.9592C7.02037 59.6756 10.8089 66.7635 16.3721 72.3267L13.2468 75.452Z" fill="black" fill-opacity="0.2"/>
<defs>
<radialGradient id="paint0_radial_170429_182254" cx="0" cy="0" r="1" gradientUnits="userSpaceOnUse" gradientTransform="translate(115.637 1.74679e-06) rotate(172.317) scale(109.87 89.5072)">
<stop stop-color="#FD4363"/>
<stop offset="1" stop-color="#2D229B"/>
</radialGradient>
<clipPath id="clip0_170429_182254">
<rect width="66" height="66" fill="white" transform="translate(11.9937 10.7051)"/>
</clipPath>
</defs>
</svg>
