<svg width="39" height="41" viewBox="0 0 39 41" fill="none" xmlns="http://www.w3.org/2000/svg">
<path d="M0.5 2.19873C0.5 1.09416 1.39543 0.19873 2.5 0.19873H38.5V40.1987H2.5C1.39543 40.1987 0.5 39.3033 0.5 38.1987V2.19873Z" fill="#F5F5F5"/>
<path d="M26.774 12.3242H21.7115C21.6452 12.3242 21.591 12.3785 21.591 12.4448V13.5698C21.591 13.636 21.6452 13.6903 21.7115 13.6903H24.9339L20.9301 17.6941C19.9256 16.9206 18.7001 16.5028 17.4124 16.5028C15.8676 16.5028 14.4131 17.1055 13.3222 18.1983C12.2314 19.2912 11.6267 20.7436 11.6267 22.2885C11.6267 23.8334 12.2294 25.2878 13.3222 26.3787C14.4131 27.4715 15.8676 28.0742 17.4124 28.0742C18.9573 28.0742 20.4118 27.4715 21.5026 26.3787C22.5955 25.2878 23.1981 23.8334 23.1981 22.2885C23.1981 21.0008 22.7803 19.7794 22.0089 18.7749L26.0106 14.7731V17.9894C26.0106 18.0557 26.0649 18.1099 26.1312 18.1099H27.2562C27.3225 18.1099 27.3767 18.0557 27.3767 17.9894V12.9269C27.3767 12.5954 27.1055 12.3242 26.774 12.3242ZM17.4124 26.5474C15.064 26.5474 13.1535 24.6369 13.1535 22.2885C13.1535 19.9401 15.064 18.0296 17.4124 18.0296C19.7609 18.0296 21.6714 19.9401 21.6714 22.2885C21.6714 24.6369 19.7609 26.5474 17.4124 26.5474Z" fill="#594DC9"/>
</svg>
