<svg width="39" height="41" viewBox="0 0 39 41" fill="none" xmlns="http://www.w3.org/2000/svg">
<path d="M0.5 2.19873C0.5 1.09416 1.39543 0.19873 2.5 0.19873H38.5V40.1987H2.5C1.39543 40.1987 0.5 39.3033 0.5 38.1987V2.19873Z" fill="#F5F5F5"/>
<path d="M27.8589 13.1245H11.1446C10.789 13.1245 10.5017 13.4118 10.5017 13.7674V26.6245C10.5017 26.9801 10.789 27.2674 11.1446 27.2674H27.8589C28.2144 27.2674 28.5017 26.9801 28.5017 26.6245V13.7674C28.5017 13.4118 28.2144 13.1245 27.8589 13.1245ZM27.0553 25.8209H11.9481V14.5709H27.0553V25.8209ZM21.4765 19.4727H23.9555C23.9816 19.4727 24.0017 19.4004 24.0017 19.312V18.3477C24.0017 18.2593 23.9816 18.187 23.9555 18.187H21.4765C21.4504 18.187 21.4303 18.2593 21.4303 18.3477V19.312C21.4303 19.4004 21.4504 19.4727 21.4765 19.4727ZM21.5729 22.3656H25.3035C25.3818 22.3656 25.4461 22.2933 25.4461 22.2049V21.2406C25.4461 21.1522 25.3818 21.0799 25.3035 21.0799H21.5729C21.4946 21.0799 21.4303 21.1522 21.4303 21.2406V22.2049C21.4303 22.2933 21.4946 22.3656 21.5729 22.3656ZM13.716 23.4303H14.5979C14.6823 23.4303 14.7506 23.364 14.7566 23.2796C14.833 22.2651 15.6807 21.4616 16.7093 21.4616C17.7379 21.4616 18.5856 22.2651 18.662 23.2796C18.668 23.364 18.7363 23.4303 18.8207 23.4303H19.7026C19.7244 23.4303 19.746 23.4259 19.766 23.4174C19.7861 23.4088 19.8041 23.3962 19.8192 23.3804C19.8342 23.3647 19.8459 23.346 19.8535 23.3255C19.8611 23.3051 19.8644 23.2833 19.8633 23.2616C19.8071 22.1908 19.2205 21.2587 18.3647 20.7283C18.7421 20.3134 18.9506 19.7724 18.9493 19.2116C18.9493 17.968 17.9468 16.9616 16.7113 16.9616C15.4758 16.9616 14.4734 17.968 14.4734 19.2116C14.4734 19.7962 14.6943 20.3265 15.058 20.7283C14.6223 20.9983 14.2584 21.3697 13.9974 21.8108C13.7365 22.252 13.5861 22.7497 13.5593 23.2616C13.5513 23.354 13.6236 23.4303 13.716 23.4303ZM16.7093 18.1669C17.2818 18.1669 17.7479 18.635 17.7479 19.2116C17.7479 19.7881 17.2818 20.2562 16.7093 20.2562C16.1368 20.2562 15.6707 19.7881 15.6707 19.2116C15.6707 18.635 16.1368 18.1669 16.7093 18.1669Z" fill="#594DC9"/>
</svg>
