<svg width="39" height="41" viewBox="0 0 39 41" fill="none" xmlns="http://www.w3.org/2000/svg">
<path d="M0.5 2.19873C0.5 1.09416 1.39543 0.19873 2.5 0.19873H38.5V40.1987H2.5C1.39543 40.1987 0.5 39.3033 0.5 38.1987V2.19873Z" fill="#F5F5F5"/>
<path d="M26.2916 20.0889L20.2541 14.0545L19.8494 13.6498C19.7572 13.5582 19.6325 13.5068 19.5026 13.5068C19.3726 13.5068 19.2479 13.5582 19.1557 13.6498L12.7135 20.0889C12.619 20.183 12.5443 20.2951 12.4939 20.4186C12.4434 20.542 12.4182 20.6743 12.4197 20.8077C12.426 21.3577 12.8838 21.7967 13.4338 21.7967H14.0979V26.8858H24.9072V21.7967H25.5854C25.8526 21.7967 26.1041 21.692 26.2932 21.503C26.3863 21.4102 26.46 21.2998 26.5102 21.1783C26.5603 21.0568 26.5859 20.9266 26.5854 20.7952C26.5854 20.5295 26.4807 20.278 26.2916 20.0889ZM20.3776 25.7608H18.6276V22.5733H20.3776V25.7608ZM23.7822 20.6717V25.7608H21.3776V22.1983C21.3776 21.853 21.0979 21.5733 20.7526 21.5733H18.2526C17.9072 21.5733 17.6276 21.853 17.6276 22.1983V25.7608H15.2229V20.6717H13.7229L19.5041 14.8952L19.8651 15.2561L25.2838 20.6717H23.7822Z" fill="#594DC9"/>
</svg>
