<svg width="39" height="41" viewBox="0 0 39 41" fill="none" xmlns="http://www.w3.org/2000/svg">
<path d="M0.5 2.19873C0.5 1.09416 1.39543 0.19873 2.5 0.19873H38.5V40.1987H2.5C1.39543 40.1987 0.5 39.3033 0.5 38.1987V2.19873Z" fill="#F5F5F5"/>
<path d="M26.8366 14.7113L24.6971 12.5738C24.436 12.3127 24.0864 12.166 23.7168 12.166C23.3471 12.166 22.9976 12.3107 22.7364 12.5738L20.4322 14.8741C20.171 15.1352 20.0243 15.4868 20.0243 15.8564C20.0243 16.2281 20.169 16.5756 20.4322 16.8388L22.2322 18.6408C21.8221 19.5962 21.2329 20.4643 20.4964 21.1982C19.7592 21.9395 18.8973 22.5241 17.9411 22.9379L16.1411 21.1359C15.8799 20.8747 15.5304 20.7281 15.1607 20.7281C14.9784 20.7274 14.7978 20.7631 14.6294 20.8331C14.4611 20.9032 14.3084 21.0061 14.1804 21.1359L11.8741 23.4361C11.613 23.6973 11.4663 24.0488 11.4663 24.4185C11.4663 24.7901 11.611 25.1377 11.8741 25.4008L14.0116 27.5383C14.4576 27.9843 15.0723 28.2395 15.7031 28.2395C15.8337 28.2395 15.9603 28.2294 16.0889 28.2073C18.7487 27.7694 21.3884 26.3531 23.5199 24.2236C25.6493 22.0901 27.0636 19.4504 27.5056 16.7886C27.6322 16.0332 27.379 15.2557 26.8366 14.7113ZM26.0813 16.5495C25.6895 18.918 24.4159 21.2805 22.4973 23.1991C20.5788 25.1176 18.2183 26.3912 15.8498 26.783C15.5525 26.8332 15.2471 26.7328 15.0301 26.5178L12.9308 24.4185L15.1567 22.1906L17.5634 24.6013L17.5815 24.6194L18.0154 24.4587C19.3311 23.9749 20.5259 23.2109 21.517 22.2195C22.508 21.2281 23.2716 20.033 23.7549 18.7171L23.9156 18.2832L21.4889 15.8584L23.7147 13.6305L25.8141 15.7299C26.031 15.9468 26.1315 16.2522 26.0813 16.5495Z" fill="#594DC9"/>
</svg>
