<svg width="39" height="41" viewBox="0 0 39 41" fill="none" xmlns="http://www.w3.org/2000/svg">
<path d="M0.5 2.19873C0.5 1.09416 1.39543 0.19873 2.5 0.19873H38.5V40.1987H2.5C1.39543 40.1987 0.5 39.3033 0.5 38.1987V2.19873Z" fill="#F5F5F5"/>
<path d="M26.4621 25.2512C26.0831 24.3535 25.5332 23.5382 24.8429 22.8505C24.1547 22.1609 23.3394 21.611 22.4422 21.2313C22.4342 21.2273 22.4261 21.2253 22.4181 21.2213C23.6697 20.3172 24.4833 18.8447 24.4833 17.1833C24.4833 14.4311 22.2534 12.2012 19.5011 12.2012C16.7489 12.2012 14.519 14.4311 14.519 17.1833C14.519 18.8447 15.3326 20.3172 16.5842 21.2233C16.5761 21.2273 16.5681 21.2293 16.5601 21.2333C15.6601 21.613 14.8525 22.1574 14.1594 22.8525C13.4697 23.5407 12.9199 24.3559 12.5402 25.2532C12.1672 26.1316 11.966 27.0734 11.9476 28.0275C11.947 28.049 11.9508 28.0703 11.9586 28.0903C11.9665 28.1102 11.9782 28.1284 11.9932 28.1438C12.0082 28.1591 12.0261 28.1713 12.0458 28.1796C12.0656 28.188 12.0868 28.1923 12.1083 28.1922H13.3136C13.402 28.1922 13.4723 28.1219 13.4743 28.0356C13.5145 26.4847 14.1373 25.0322 15.2382 23.9313C16.3772 22.7922 17.89 22.1655 19.5011 22.1655C21.1123 22.1655 22.625 22.7922 23.7641 23.9313C24.865 25.0322 25.4877 26.4847 25.5279 28.0356C25.5299 28.1239 25.6002 28.1922 25.6886 28.1922H26.894C26.9154 28.1923 26.9367 28.188 26.9564 28.1796C26.9762 28.1713 26.9941 28.1591 27.0091 28.1438C27.0241 28.1284 27.0358 28.1102 27.0436 28.0903C27.0515 28.0703 27.0552 28.049 27.0547 28.0275C27.0346 27.0672 26.8357 26.1331 26.4621 25.2512ZM19.5011 20.6387C18.579 20.6387 17.7112 20.2791 17.0583 19.6262C16.4054 18.9733 16.0458 18.1054 16.0458 17.1833C16.0458 16.2612 16.4054 15.3934 17.0583 14.7405C17.7112 14.0876 18.579 13.728 19.5011 13.728C20.4232 13.728 21.2911 14.0876 21.944 14.7405C22.5969 15.3934 22.9565 16.2612 22.9565 17.1833C22.9565 18.1054 22.5969 18.9733 21.944 19.6262C21.2911 20.2791 20.4232 20.6387 19.5011 20.6387Z" fill="#594DC9"/>
</svg>
