<svg width="354" height="104" viewBox="0 0 354 104" fill="none" xmlns="http://www.w3.org/2000/svg">
<g clip-path="url(#clip0_169676_180829)">
<path d="M85.044 12.5943C85.044 12.7851 85.044 12.7851 84.8534 12.9759C81.8025 20.2273 77.0354 26.7154 70.9336 31.8677C70.5522 32.2493 70.3615 32.2493 69.9802 32.2493C69.4081 32.2493 68.8361 31.6769 68.4547 31.2952C63.1156 26.7154 56.0604 24.8071 49.0052 25.7613C42.1406 26.3337 35.8481 29.5778 31.6531 34.9209C31.2718 35.3025 31.0811 35.6842 30.6997 36.0658C29.7463 37.2108 28.9836 38.5466 28.4116 39.8824C28.2209 40.264 28.0302 40.4548 28.0302 40.8365C27.6488 41.409 27.4581 42.1723 27.2675 42.7447C27.0768 43.3172 26.8861 44.0805 26.6954 44.653C25.742 48.2787 25.5513 51.9044 25.9327 55.5301C25.9327 56.2934 26.1234 57.0567 26.3141 57.82C26.6954 59.9191 27.4581 62.0181 28.6022 63.9264C28.9836 64.4989 29.365 65.2622 29.7463 65.8347C29.7463 66.0255 29.937 66.2163 30.1277 66.2163C24.9793 70.2236 17.7334 77.2842 14.4918 87.7796C12.585 85.4897 10.8688 83.1998 9.34338 81.1007C8.58065 79.9558 7.81792 78.8108 7.05519 77.6658C6.67383 76.9025 6.10178 76.1392 5.72042 75.3759C5.33906 74.6126 4.95769 73.8493 4.57633 72.8952C4.38565 72.5136 4.19497 71.9411 4.00429 71.5594C3.24156 69.6512 2.66951 67.7429 2.09747 65.8347C1.7161 64.3081 1.33474 62.7814 0.953377 61.4457C0.762695 60.6824 0.762695 59.9191 0.572014 59.3466C0.19065 55.9117 -3.1665e-05 52.4769 0.19065 49.042C0.19065 47.897 0.381332 46.5613 0.572014 45.4163C0.762695 44.2714 0.953377 43.508 1.14406 42.5539C1.90679 38.9282 3.05088 35.3025 4.57633 31.8677C5.33906 30.1503 6.10178 28.4328 7.05519 26.9062C7.43656 26.1429 8.0086 25.1888 8.58065 24.4255C13.3477 16.7925 20.2122 10.4952 28.2209 6.48787C29.7463 5.72456 31.4625 4.96126 32.9879 4.19796C34.132 3.81631 35.4668 3.24383 36.8015 2.86218C38.899 2.2897 41.1872 1.71722 43.4754 1.33557L45.7636 0.953921C53.2002 -0.572684 61.2088 -0.000207081 68.6454 2.48053C74.1752 4.57961 79.5143 7.25117 84.2813 10.8769C84.6627 11.0677 84.8534 11.2585 85.044 11.6402C85.044 12.0218 85.2347 12.2126 85.044 12.5943Z" fill="white"/>
<path d="M83.7093 93.3137C76.6541 98.6568 68.2641 101.901 59.6834 103.427C48.6239 104.954 37.3736 103.046 27.4582 97.8935C24.598 96.3669 21.9284 94.4586 19.2589 92.5504C19.2589 92.5504 19.2589 92.5504 19.0682 92.3596C18.8775 92.1687 18.6868 91.7871 18.6868 91.2146C20.403 85.8715 23.2632 80.91 27.0768 76.7119C27.2675 76.521 27.2675 76.3302 27.4582 76.3302C27.6489 76.1394 27.8396 75.9486 28.0302 75.5669L28.2209 75.3761C29.1743 74.422 29.9371 73.4678 30.8905 72.7045C31.2718 72.3229 32.7973 70.6054 33.3693 70.9871C34.1321 71.3687 34.7041 71.9412 35.4668 72.3229L36.2296 72.7045C44.6196 78.0476 56.4418 79.3834 65.0225 74.422C65.9759 73.8495 66.7386 73.277 67.5014 72.5137C68.8361 71.1779 70.743 71.1779 72.0777 72.3229L72.2684 72.5137C77.9889 76.9027 82.3745 82.8183 84.6627 89.8788C85.4255 91.0238 85.0441 92.7412 83.7093 93.3137Z" fill="white"/>
<path d="M68.6454 52.2864C68.4548 61.446 60.8275 68.6974 51.4841 68.5066C42.1407 68.3158 35.0854 60.6827 35.2761 51.3323C35.4668 42.1726 43.0941 34.9213 52.4375 35.1121C61.5902 35.4937 68.8361 43.1268 68.6454 52.2864Z" fill="white"/>
<path d="M133.477 56.4846C132.524 60.3011 130.617 63.5451 127.566 66.0259C124.515 68.5066 120.892 69.6515 116.888 69.6515C112.121 69.6515 108.117 67.9341 104.875 64.6901C101.633 61.446 99.9172 57.4387 99.9172 52.6681C99.9172 47.8974 101.443 43.8901 104.684 40.646C107.926 37.402 111.93 35.6846 116.507 35.6846C120.702 35.6846 124.134 36.8295 127.375 39.3103C130.617 41.791 132.524 45.035 133.287 49.0424H123.752C122.418 45.9892 119.939 44.6534 116.697 44.6534C114.409 44.6534 112.693 45.4167 111.358 47.1341C110.023 48.6607 109.451 50.569 109.451 52.8589C109.451 55.1488 110.214 57.0571 111.549 58.5837C112.884 60.1103 114.79 60.8736 117.079 60.8736C120.129 60.8736 122.418 59.5378 123.943 56.6754H133.477V56.4846Z" fill="white"/>
<path d="M155.406 45.2259C152.927 45.2259 151.211 45.6075 150.067 46.3708C148.541 47.3249 147.969 48.8515 147.969 51.1414V68.5066H138.435V36.6387H147.397V40.0736H147.588C149.113 37.0203 151.783 35.6846 155.596 35.6846V45.2259H155.406Z" fill="white"/>
<path d="M190.682 55.5303H167.037C167.609 59.5377 170.088 61.4459 174.474 61.4459C176.762 61.4459 178.669 60.4918 180.194 58.5836H189.919C188.584 61.8276 186.487 64.4992 183.817 66.4074C180.957 68.5065 177.906 69.4606 174.474 69.4606C169.897 69.4606 165.893 67.7432 162.652 64.4992C159.41 61.2551 157.694 57.2478 157.694 52.668C157.694 48.0881 159.219 44.0808 162.461 40.6459C165.702 37.2111 169.707 35.4937 174.283 35.4937C179.05 35.4937 183.054 37.2111 186.296 40.6459C189.347 43.89 191.063 48.0881 191.063 52.8588C190.872 53.8129 190.872 54.767 190.682 55.5303ZM181.529 49.0423C180.766 45.4166 178.287 43.5083 174.283 43.5083C170.279 43.5083 167.8 45.4166 167.037 49.0423H181.529Z" fill="white"/>
<path d="M220.237 68.5064V65.0715H220.047C219.093 66.5981 217.759 67.7431 216.042 68.5064C214.517 69.0788 212.801 69.4605 210.703 69.4605C205.936 69.4605 202.123 67.7431 199.072 64.499C196.212 61.255 194.686 57.2477 194.686 52.477C194.686 47.7064 196.021 43.699 198.881 40.6458C201.932 37.4018 205.746 35.6844 210.322 35.6844C214.136 35.6844 217.187 37.0201 219.665 39.5009V26.1431H229.2V68.5064H220.237ZM217.949 46.7522C216.424 45.2256 214.517 44.4623 212.229 44.4623C209.941 44.4623 208.034 45.2256 206.508 46.7522C204.983 48.2788 204.22 50.1871 204.22 52.477C204.22 54.7669 204.983 56.6752 206.508 58.2018C208.034 59.7284 209.941 60.4917 212.229 60.4917C214.517 60.4917 216.615 59.7284 218.14 58.2018C219.665 56.6752 220.428 54.7669 220.428 52.2862C220.237 50.1871 219.475 48.2788 217.949 46.7522Z" fill="white"/>
<path d="M236.064 33.3944V26.1431H245.598V33.3944H236.064ZM236.064 68.5064V36.6385H245.598V68.3155H236.064V68.5064Z" fill="white"/>
<path d="M263.713 43.8899V68.3155H254.179V43.8899H249.412V36.6385H254.179V26.1431H263.713V36.6385H268.289V43.8899H263.713Z" fill="white"/>
<path d="M273.056 68.5065V58.7744H282.972V68.5065H273.056Z" fill="white"/>
<path d="M308.142 68.5062H298.989L287.548 36.8291H297.273L303.375 56.675H303.565L309.667 36.8291H319.392L308.142 68.5062Z" fill="white"/>
<path d="M343.99 68.5066V51.1414C343.99 49.0424 343.609 47.5158 343.037 46.5616C342.274 45.2259 340.939 44.6534 339.032 44.6534C336.935 44.6534 335.6 45.2259 334.647 46.5616C333.884 47.5158 333.502 49.2332 333.502 51.3323V68.5066H323.968V36.6387H332.74V40.0736H332.93C334.837 37.0203 337.697 35.6846 341.511 35.6846C344.753 35.6846 347.422 36.6387 349.71 38.3561C351.045 39.5011 351.999 41.0277 352.571 42.9359C352.952 44.4626 353.333 46.3708 353.333 48.4699V68.3158H343.99V68.5066Z" fill="white"/>
</g>
<defs>
<clipPath id="clip0_169676_180829">
<rect width="353.333" height="104" fill="white"/>
</clipPath>
</defs>
</svg>
