<svg width="164" height="200" viewBox="0 0 164 200" fill="none" xmlns="http://www.w3.org/2000/svg">
<path d="M163.596 24.0448C163.596 24.4124 163.596 24.4124 163.229 24.78C157.352 38.7482 148.169 51.2462 136.415 61.171C135.681 61.9061 135.313 61.9061 134.579 61.9061C133.477 61.9061 132.375 60.8034 131.64 60.0682C121.356 51.2461 107.765 47.5703 94.175 49.4082C80.9519 50.511 68.8307 56.7599 60.7499 67.0523C60.0153 67.7875 59.648 68.5227 58.9134 69.2578C57.0768 71.4633 55.6076 74.0364 54.5057 76.6095C54.1384 77.3447 53.7711 77.7123 53.7711 78.4475C53.0365 79.5502 52.6691 81.0206 52.3018 82.1233C51.9345 83.2261 51.5672 84.6964 51.1999 85.7992C49.3634 92.7833 48.9961 99.7674 49.7307 106.752C49.7307 108.222 50.098 109.692 50.4653 111.163C51.1999 115.206 52.6691 119.249 54.873 122.925C55.6076 124.028 56.3422 125.498 57.0768 126.601C57.0768 126.969 57.4442 127.336 57.8115 127.336C47.8941 135.056 33.9364 148.656 27.6922 168.873C24.0191 164.462 20.7133 160.051 17.7749 156.008C16.3057 153.802 14.8364 151.597 13.3672 149.391C12.6326 147.921 11.5306 146.451 10.796 144.98C10.0614 143.51 9.3268 142.04 8.59218 140.202C8.22487 139.467 7.85756 138.364 7.49026 137.629C6.02102 133.953 4.9191 130.277 3.81718 126.601C3.08256 123.66 2.34794 120.72 1.61333 118.147C1.24602 116.676 1.24602 115.206 0.878713 114.103C0.144097 107.487 -0.223211 100.87 0.144097 94.2536C0.144097 92.0481 0.511405 89.475 0.878713 87.2695C1.24602 85.064 1.61333 83.5937 1.98064 81.7557C3.44987 74.7716 5.65372 67.7875 8.59218 61.171C10.0614 57.8627 11.5306 54.5544 13.3672 51.6137C14.1018 50.1434 15.2037 48.3055 16.3057 46.8351C25.4884 32.1317 38.7114 20.0014 54.1384 12.2821C57.0768 10.8118 60.3826 9.34143 63.3211 7.87109C65.5249 7.13592 68.0961 6.03316 70.6672 5.29799C74.7076 4.19523 79.1153 3.09248 83.523 2.35731L87.9307 1.62214C102.256 -1.31855 117.683 -0.21579 132.008 4.56282C142.66 8.60626 152.944 13.7524 162.127 20.7366C162.862 21.1042 163.229 21.4717 163.596 22.2069C163.596 22.9421 163.963 23.3097 163.596 24.0448Z" fill="white"/>
<path d="M161.025 179.534C147.434 189.826 131.273 196.075 114.744 199.016C93.4401 201.956 71.7689 198.281 52.6689 188.356C47.1593 185.415 42.0169 181.739 36.8746 178.063C36.8746 178.063 36.8746 178.063 36.5073 177.696C36.14 177.328 35.7727 176.593 35.7727 175.49C39.0785 165.198 44.5881 155.641 51.9343 147.554C52.3016 147.186 52.3016 146.819 52.6689 146.819C53.0362 146.451 53.4035 146.083 53.7708 145.348L54.1381 144.981C55.9746 143.143 57.4439 141.305 59.2804 139.835C60.015 139.099 62.9535 135.791 64.0554 136.526C65.5247 137.261 66.6266 138.364 68.0958 139.099L69.565 139.835C85.7266 150.127 108.5 152.7 125.029 143.143C126.865 142.04 128.334 140.937 129.804 139.467C132.375 136.894 136.048 136.894 138.619 139.099L138.986 139.467C150.006 147.921 158.454 159.317 162.861 172.917C164.331 175.123 163.596 178.431 161.025 179.534Z" fill="white"/>
<path d="M132.008 100.503C131.64 118.147 116.948 132.116 98.95 131.748C80.9519 131.381 67.3615 116.677 67.7288 98.6654C68.0961 81.0213 82.7885 67.0531 100.787 67.4207C118.417 68.1558 132.375 82.8592 132.008 100.503Z" fill="white"/>
</svg>
