<svg width="371" height="109" viewBox="0 0 371 109" fill="none" xmlns="http://www.w3.org/2000/svg">
<g clip-path="url(#clip0_169676_180811)">
<path d="M89.2963 13.1998C89.2963 13.3998 89.2963 13.3998 89.0961 13.5998C85.8926 21.1998 80.8872 27.9998 74.4803 33.3998C73.4792 34.3998 72.4781 33.3998 72.0777 32.9998C66.4717 28.1998 59.0637 26.1998 51.6557 27.1998C44.4479 27.7998 37.8408 31.1998 33.4361 36.7998C33.0356 37.1998 32.8354 37.5998 32.435 37.9998C31.4339 39.1998 30.633 40.5998 30.0324 41.9998C29.8322 42.3998 29.632 42.5998 29.632 42.9998C29.2315 43.5998 29.0313 44.3998 28.8311 44.9998C28.6309 45.5998 28.4307 46.3998 28.2305 46.9998C27.2294 50.5998 27.0292 54.5998 27.4296 58.3998C27.4296 59.1998 27.6298 59.9998 27.83 60.7998C28.2304 62.9998 29.0313 65.1998 30.2326 67.1998C30.633 67.7998 31.0335 68.5998 31.4339 69.1998C31.8343 69.7998 32.2348 70.3998 32.6352 70.9998C33.0356 71.5998 33.6363 72.1998 34.0367 72.7998C34.4371 73.3998 35.0378 73.9998 35.6384 74.5998C36.2391 75.1998 34.6374 75.9998 34.4371 75.9998C32.8354 76.7998 31.4339 77.9998 30.2326 79.1998L30.0324 79.5998C29.632 79.9998 29.2315 80.3998 29.0313 80.7998C25.2272 85.7998 22.4242 91.3998 20.8225 97.1998C16.6179 94.1998 13.014 89.1998 10.0108 85.1998C9.20994 83.9998 8.40908 82.7998 7.60822 81.5998C7.20778 80.7998 6.60714 79.9998 6.20671 79.1998C5.80627 78.3998 5.40584 77.5998 5.00541 76.5998C4.80519 76.1998 4.60498 75.5998 4.40476 75.1998C3.6039 73.1998 3.00325 71.1998 2.4026 69.1998C2.00217 67.5998 1.60174 65.9998 1.20131 64.5998C1.00109 63.7998 1.00109 62.9998 0.800877 62.3998C0.200229 58.7998 0.200229 55.1998 0.400445 51.5998C0.400445 50.3998 0.600661 48.9998 0.800877 47.7998C1.00109 46.5998 1.20131 45.7998 1.40152 44.7998C2.20239 40.9998 3.40368 37.1998 5.00541 33.5998C5.80627 31.7998 6.60714 29.9998 7.60822 28.3998C8.00865 27.5998 8.60929 26.5998 9.20994 25.7998C14.2153 17.7998 21.4231 11.1998 29.8322 6.99982C31.4339 6.19982 33.0356 5.39982 34.8376 4.59982C36.0389 4.19982 37.4404 3.59982 38.8419 3.19982C41.0443 2.59982 43.4469 1.99982 45.8494 1.59982L48.252 1.19982C56.4609 -0.00017786 64.6697 0.799822 72.4782 3.39982C78.2844 5.59982 83.8905 8.59982 88.8959 12.1998C89.2963 12.3998 89.4965 12.5998 89.6967 12.9998C89.2963 12.5998 89.2963 12.7998 89.2963 13.1998Z" fill="#4D37A5"/>
<path d="M87.8948 97.7999C80.4868 103.4 71.6773 107 62.6676 108.4C51.055 110 39.2423 108 28.8311 102.6C25.8278 101 23.0248 98.9999 20.2218 96.9999C19.8214 96.5999 19.6212 96.1999 19.6212 95.7999C21.4231 90.1999 24.4263 84.9999 28.4307 80.5999C28.8311 80.1999 29.2315 79.7999 29.4317 79.3999L29.6319 78.9999C30.633 77.9999 31.4339 76.9999 32.435 76.1999C32.8354 75.7999 34.4371 73.9999 35.0378 74.3999C35.8386 74.9999 36.4393 75.3999 37.2402 75.7999L38.041 76.1999C46.8505 81.7999 59.2639 83.1999 68.2736 77.9999C69.2747 77.3999 70.0756 76.7999 70.8764 75.9999C72.0777 74.5999 74.2801 74.5999 75.6816 75.7999L75.8818 75.9999C81.8883 80.5999 86.4933 86.7999 88.8959 94.1999C89.6967 95.5999 89.2963 97.1999 87.8948 97.7999Z" fill="#7A71BC"/>
<path d="M72.0777 54.7998C71.8775 64.3998 63.8688 71.9998 54.0583 71.7998C44.2477 71.5998 36.8397 63.5998 37.0399 53.7998C37.2401 44.1998 45.2488 36.5998 55.0593 36.7998C64.6697 37.1998 72.2779 45.1998 72.0777 54.7998Z" fill="#FD4363"/>
<path d="M140.151 59.1999C139.15 63.1999 137.148 66.5999 133.944 69.1999C130.741 71.7999 126.937 72.9999 122.732 72.9999C117.727 72.9999 113.522 71.1999 110.119 67.7999C106.715 64.3999 104.913 60.1999 104.913 55.1999C104.913 50.1999 106.515 45.9999 109.919 42.5999C113.322 39.1999 117.527 37.3999 122.332 37.3999C126.737 37.3999 130.341 38.5999 133.744 41.1999C137.148 43.7999 139.15 47.1999 139.951 51.3999H129.94C128.539 48.1999 125.936 46.7999 122.532 46.7999C120.13 46.7999 118.328 47.5999 116.926 49.3999C115.525 50.9999 114.924 52.9999 114.924 55.3999C114.924 57.7999 115.725 59.7999 117.126 61.3999C118.528 62.9999 120.53 63.7999 122.933 63.7999C126.136 63.7999 128.539 62.3999 130.14 59.3999H140.151V59.1999Z" fill="white"/>
<path d="M163.176 47.3999C160.573 47.3999 158.771 47.7999 157.57 48.5999C155.968 49.5999 155.368 51.1999 155.368 53.5999V71.7999H145.357V38.5999H154.767V41.9999H154.967C156.569 38.7999 159.372 37.3999 163.376 37.3999V47.3999H163.176Z" fill="white"/>
<path d="M200.216 58.1997H175.389C175.99 62.3997 178.593 64.3997 183.198 64.3997C185.6 64.3997 187.602 63.3997 189.204 61.3997H199.415C198.014 64.7997 195.811 67.5997 193.008 69.5997C190.005 71.7997 186.801 72.7997 183.198 72.7997C178.392 72.7997 174.188 70.9997 170.784 67.5997C167.381 64.1997 165.579 59.9997 165.579 55.1997C165.579 50.3997 167.18 46.1997 170.584 42.5997C173.988 38.9997 178.192 37.1997 182.997 37.1997C188.003 37.1997 192.207 38.9997 195.611 42.5997C198.814 45.9997 200.616 50.3997 200.616 55.3997C200.416 56.3997 200.416 57.3997 200.216 58.1997ZM190.606 51.3997C189.805 47.5997 187.202 45.5997 182.997 45.5997C178.793 45.5997 176.19 47.5997 175.389 51.3997H190.606Z" fill="white"/>
<path d="M231.249 71.7999V68.1999H231.049C230.048 69.7999 228.647 70.9999 226.845 71.7999C225.243 72.3999 223.441 72.7999 221.239 72.7999C216.233 72.7999 212.229 70.9999 209.025 67.5999C206.022 64.1999 204.42 59.9999 204.42 54.9999C204.42 49.9999 205.822 45.7999 208.825 42.5999C212.029 39.1999 216.033 37.3999 220.838 37.3999C224.842 37.3999 228.046 38.7999 230.649 41.3999V27.3999H240.659V71.7999H231.249ZM228.847 48.9999C227.245 47.3999 225.243 46.5999 222.84 46.5999C220.438 46.5999 218.436 47.3999 216.834 48.9999C215.232 50.5999 214.431 52.5999 214.431 54.9999C214.431 57.3999 215.232 59.3999 216.834 60.9999C218.436 62.5999 220.438 63.3999 222.84 63.3999C225.243 63.3999 227.445 62.5999 229.047 60.9999C230.649 59.3999 231.45 57.3999 231.45 54.7999C231.249 52.5999 230.448 50.5999 228.847 48.9999Z" fill="white"/>
<path d="M247.867 34.9999V27.3999H257.878V34.9999H247.867ZM247.867 71.7999V38.5999H257.878V71.7999H247.867Z" fill="white"/>
<path d="M276.899 45.9999V71.5999H266.888V45.9999H261.882V38.3999H266.888V27.3999H276.899V38.3999H281.704V45.9999H276.899Z" fill="white"/>
<path d="M286.709 71.8001V61.6001H297.12V71.8001H286.709Z" fill="white"/>
<path d="M323.549 71.8001H313.938L301.926 38.6001H312.137L318.543 59.4001H318.744L325.151 38.6001H335.362L323.549 71.8001Z" fill="white"/>
<path d="M361.189 71.7999V53.5999C361.189 51.3999 360.789 49.7999 360.188 48.7999C359.387 47.3999 357.986 46.7999 355.984 46.7999C353.781 46.7999 352.38 47.3999 351.379 48.7999C350.578 49.7999 350.178 51.5999 350.178 53.7999V71.7999H340.167V38.5999H349.377V41.9999H349.577C351.579 38.7999 354.582 37.3999 358.587 37.3999C361.99 37.3999 364.793 38.3999 367.196 40.1999C368.597 41.3999 369.599 42.9999 370.199 44.9999C370.6 46.5999 371 48.5999 371 50.7999V71.5999H361.189V71.7999Z" fill="white"/>
</g>
<defs>
<clipPath id="clip0_169676_180811">
<rect width="371" height="109" fill="white"/>
</clipPath>
</defs>
</svg>
