<svg width="225" height="66" viewBox="0 0 225 66" fill="none" xmlns="http://www.w3.org/2000/svg">
<g clip-path="url(#clip0_169498_180560)">
<path d="M54.4147 7.99261C54.4147 8.11371 54.4147 8.11371 54.2938 8.23481C52.3596 12.8366 49.3375 16.9541 45.4692 20.2238C44.8648 20.8293 44.2603 20.2238 44.0186 19.9816C40.6338 17.0752 36.1611 15.8642 31.6883 16.4697C27.3364 16.833 23.3472 18.8917 20.6878 22.2825C20.446 22.5247 20.3251 22.7669 20.0833 23.0091C19.4789 23.7357 18.9954 24.5834 18.6327 25.4311C18.5118 25.6733 18.3909 25.7944 18.3909 26.0366C18.1492 26.3999 18.0283 26.8844 17.9074 27.2477C17.7865 27.611 17.6656 28.0954 17.5448 28.4587C16.9403 30.6385 16.8194 33.0605 17.0612 35.3614C17.0612 35.8458 17.1821 36.3302 17.303 36.8146C17.5448 38.1467 18.0283 39.4788 18.7536 40.6899C18.9954 41.0532 19.2371 41.5376 19.4789 41.9009C19.7207 42.2642 19.9625 42.6275 20.2042 42.9908C20.446 43.3541 20.8087 43.7174 21.0504 44.0807C21.2922 44.444 21.6548 44.8073 22.0175 45.1706C22.3802 45.5339 21.4131 46.0183 21.2922 46.0183C20.3251 46.5027 19.4789 47.2293 18.7536 47.9559L18.6327 48.1981C18.3909 48.4403 18.1492 48.6825 18.0283 48.9247C15.7315 51.9522 14.0391 55.3431 13.072 58.855C10.5334 57.0385 8.35749 54.011 6.54421 51.5889C6.06067 50.8623 5.57713 50.1357 5.09359 49.4091C4.85182 48.9247 4.48917 48.4403 4.2474 47.9559C4.00563 47.4715 3.76386 46.9871 3.52209 46.3816C3.4012 46.1394 3.28032 45.7761 3.15943 45.5339C2.67589 44.3229 2.31324 43.1119 1.95058 41.9009C1.70881 40.9321 1.46704 39.9632 1.22527 39.1155C1.10439 38.6311 1.10439 38.1467 0.983502 37.7834C0.620847 35.6036 0.620847 33.4238 0.741732 31.244C0.741732 30.5174 0.862617 29.6697 0.983502 28.9431C1.10439 28.2165 1.22527 27.7321 1.34616 27.1266C1.8297 24.8256 2.55501 22.5247 3.52209 20.3449C4.00563 19.255 4.48917 18.1651 5.09359 17.1963C5.33536 16.7119 5.69802 16.1064 6.06067 15.622C9.0828 10.7779 13.4347 6.7816 18.5118 4.23848C19.4789 3.75408 20.446 3.26968 21.534 2.78527C22.2593 2.54307 23.1055 2.17977 23.9517 1.93757C25.2814 1.57426 26.732 1.21096 28.1826 0.96876L29.6333 0.726558C34.5895 -4.72069e-05 39.5458 0.484357 44.2603 2.05867C47.766 3.39078 51.1508 5.20729 54.1729 7.38711C54.4147 7.50821 54.5356 7.62931 54.6565 7.87151C54.4147 7.62931 54.4147 7.75041 54.4147 7.99261Z" fill="#4D37A5"/>
<path d="M53.5685 59.2183C49.0957 62.6092 43.7768 64.789 38.337 65.6367C31.3256 66.6055 24.1934 65.3945 17.9074 62.1248C16.0941 61.156 14.4017 59.9449 12.7093 58.7339C12.4676 58.4917 12.3467 58.2495 12.3467 58.0073C13.4346 54.6165 15.2479 51.4679 17.6656 48.8037C17.9074 48.5615 18.1492 48.3193 18.27 48.0771L18.3909 47.8348C18.9954 47.2293 19.4789 46.6238 20.0833 46.1394C20.3251 45.8972 21.2922 44.8073 21.6548 45.0495C22.1384 45.4128 22.501 45.655 22.9846 45.8972L23.4681 46.1394C28.787 49.5303 36.2819 50.378 41.7217 47.2293C42.3262 46.866 42.8097 46.5027 43.2933 46.0183C44.0186 45.1706 45.3483 45.1706 46.1945 45.8972L46.3154 46.0183C49.9419 48.8037 52.7223 52.5578 54.1729 57.0385C54.6564 57.8862 54.4147 58.855 53.5685 59.2183Z" fill="#7A71BC"/>
<path d="M44.0186 33.1817C43.8977 38.9945 39.0623 43.5964 33.139 43.4753C27.2156 43.3542 22.7428 38.5101 22.8637 32.5762C22.9846 26.7633 27.82 22.1615 33.7434 22.2826C39.5459 22.5248 44.1395 27.3688 44.0186 33.1817Z" fill="#FD4363"/>
<path d="M85.1195 35.8459C84.5151 38.2679 83.3062 40.3266 81.3721 41.9009C79.4379 43.4752 77.1411 44.2018 74.6025 44.2018C71.5804 44.2018 69.0418 43.1119 66.9868 41.0532C64.9317 38.9945 63.8438 36.4514 63.8438 33.4239C63.8438 30.3963 64.8108 27.8532 66.8659 25.7945C68.9209 23.7358 71.4595 22.6459 74.3607 22.6459C77.0202 22.6459 79.1962 23.3725 81.2512 24.9468C83.3062 26.5211 84.5151 28.5798 84.9986 31.1229H78.9544C78.1082 29.1853 76.5367 28.3376 74.4816 28.3376C73.031 28.3376 71.943 28.822 71.0969 29.9119C70.2507 30.8807 69.888 32.0917 69.888 33.545C69.888 34.9982 70.3715 36.2092 71.2177 37.178C72.0639 38.1468 73.2728 38.6312 74.7234 38.6312C76.6576 38.6312 78.1082 37.7835 79.0753 35.967H85.1195V35.8459Z" fill="#332D5F"/>
<path d="M99.0212 28.7009C97.4497 28.7009 96.3618 28.9431 95.6364 29.4275C94.6694 30.033 94.3067 31.0018 94.3067 32.455V43.4752H88.2625V23.3725H93.9441V25.4312H94.0649C95.032 23.4936 96.7244 22.6459 99.1421 22.6459V28.7009H99.0212Z" fill="#332D5F"/>
<path d="M121.385 35.2404H106.395C106.758 37.7835 108.329 38.9945 111.11 38.9945C112.56 38.9945 113.769 38.389 114.736 37.178H120.901C120.055 39.2367 118.726 40.9321 117.033 42.1431C115.22 43.4752 113.286 44.0807 111.11 44.0807C108.209 44.0807 105.67 42.9908 103.615 40.9321C101.56 38.8734 100.472 36.3303 100.472 33.4239C100.472 30.5174 101.439 27.9743 103.494 25.7945C105.549 23.6147 108.088 22.5248 110.989 22.5248C114.011 22.5248 116.55 23.6147 118.605 25.7945C120.539 27.8532 121.627 30.5174 121.627 33.545C121.506 34.1505 121.506 34.756 121.385 35.2404ZM115.583 31.1229C115.099 28.822 113.528 27.611 110.989 27.611C108.45 27.611 106.879 28.822 106.395 31.1229H115.583Z" fill="#332D5F"/>
<path d="M140.122 43.4752V41.2954H140.001C139.397 42.2642 138.551 42.9908 137.463 43.4752C136.496 43.8385 135.408 44.0807 134.078 44.0807C131.056 44.0807 128.638 42.9908 126.704 40.9321C124.891 38.8734 123.924 36.3303 123.924 33.3027C123.924 30.2752 124.77 27.7321 126.583 25.7945C128.517 23.7358 130.935 22.6459 133.836 22.6459C136.254 22.6459 138.188 23.4936 139.76 25.0679V16.5908H145.804V43.4752H140.122ZM138.672 29.6697C137.704 28.7009 136.496 28.2165 135.045 28.2165C133.594 28.2165 132.386 28.7009 131.418 29.6697C130.451 30.6385 129.968 31.8495 129.968 33.3027C129.968 34.756 130.451 35.967 131.418 36.9358C132.386 37.9046 133.594 38.389 135.045 38.389C136.496 38.389 137.825 37.9046 138.792 36.9358C139.76 35.967 140.243 34.756 140.243 33.1816C140.122 31.8495 139.639 30.6385 138.672 29.6697Z" fill="#332D5F"/>
<path d="M150.156 21.1927V16.5908H156.2V21.1927H150.156ZM150.156 43.4752V23.3725H156.2V43.4752H150.156Z" fill="#332D5F"/>
<path d="M167.684 27.8532V43.3541H161.64V27.8532H158.618V23.2514H161.64V16.5908H167.684V23.2514H170.585V27.8532H167.684Z" fill="#332D5F"/>
<path d="M173.607 43.4752V37.2991H179.893V43.4752H173.607Z" fill="#332D5F"/>
<path d="M195.85 43.4752H190.048L182.795 23.3724H188.96L192.828 35.9669H192.949L196.817 23.3724H202.982L195.85 43.4752Z" fill="#332D5F"/>
<path d="M218.577 43.4752V32.455C218.577 31.1229 218.335 30.1541 217.972 29.5486C217.489 28.7009 216.643 28.3376 215.434 28.3376C214.104 28.3376 213.258 28.7009 212.653 29.5486C212.17 30.1541 211.928 31.244 211.928 32.5761V43.4752H205.884V23.3725H211.445V25.4312H211.565C212.774 23.4936 214.588 22.6459 217.005 22.6459C219.06 22.6459 220.753 23.2514 222.203 24.3413C223.049 25.0679 223.654 26.0367 224.017 27.2477C224.258 28.2165 224.5 29.4275 224.5 30.7596V43.3541H218.577V43.4752Z" fill="#332D5F"/>
</g>
<defs>
<clipPath id="clip0_169498_180560">
<rect width="224" height="66" fill="white" transform="translate(0.5)"/>
</clipPath>
</defs>
</svg>
