<svg width="167" height="201" viewBox="0 0 167 201" fill="none" xmlns="http://www.w3.org/2000/svg">
<path d="M165.313 24.0256C165.313 24.395 165.313 24.395 164.944 24.7644C159.027 38.8019 149.782 51.3618 137.948 61.3359C136.099 63.1829 134.25 61.3359 133.51 60.597C123.155 51.7312 109.473 48.0372 95.7897 49.8842C82.4767 50.9924 70.273 57.2724 62.1373 67.6158C61.3977 68.3546 61.0279 69.0934 60.2882 69.8322C58.4392 72.0487 56.96 74.6346 55.8506 77.2204C55.4808 77.9592 55.1109 78.3286 55.1109 79.0675C54.3713 80.1757 54.0015 81.6533 53.6317 82.7615C53.2619 83.8698 52.8921 85.3474 52.5223 86.4556C50.6733 93.105 50.3035 100.493 51.0431 107.512C51.0431 108.99 51.4129 110.467 51.7827 111.945C52.5223 116.008 54.0015 120.072 56.2204 123.766C56.96 124.874 57.6996 126.352 58.4392 127.46C59.1788 128.568 59.9184 129.676 60.658 130.785C61.3977 131.893 62.5071 133.001 63.2467 134.109C63.9863 135.218 65.0957 136.326 66.2052 137.434C67.3146 138.542 64.3561 140.02 63.9863 140.02C61.0279 141.497 58.4392 143.714 56.2204 145.93L55.8506 146.669C55.1109 147.408 54.3713 148.147 54.0015 148.886C46.9752 158.121 41.7979 168.464 38.8394 179.177C31.0735 173.636 24.417 164.401 18.8699 157.013C17.3906 154.796 15.9114 152.58 14.4322 150.363C13.6926 148.886 12.5831 147.408 11.8435 145.93C11.1039 144.453 10.3643 142.975 9.62468 141.128C9.25488 140.389 8.88507 139.281 8.51526 138.542C7.03603 134.848 5.92661 131.154 4.81719 127.46C4.07758 124.505 3.33796 121.549 2.59835 118.964C2.22854 117.486 2.22854 116.008 1.85874 114.9C0.749315 108.251 0.749315 101.601 1.11912 94.952C1.11912 92.7355 1.48893 90.1497 1.85874 87.9333C2.22854 85.7168 2.59835 84.2392 2.96816 82.3921C4.44739 75.3734 6.66623 68.3546 9.62468 61.7053C11.1039 58.3806 12.5831 55.0559 14.4322 52.1006C15.1718 50.623 16.2812 48.776 17.3906 47.2983C26.6358 32.522 39.9489 20.3315 55.4808 12.574C58.4392 11.0963 61.3977 9.6187 64.7259 8.14106C66.9448 7.40225 69.5334 6.29402 72.1221 5.55521C76.1899 4.44698 80.6276 3.33876 85.0653 2.59994L89.503 1.86112C104.665 -0.355326 119.827 1.12231 134.25 5.92461C144.974 9.98811 155.329 15.5292 164.574 22.1786C165.313 22.548 165.683 22.9174 166.053 23.6562C165.313 22.9174 165.313 23.2868 165.313 24.0256Z" fill="#4D37A5"/>
<path d="M162.725 180.286C149.042 190.629 132.77 197.278 116.129 199.864C94.6802 202.82 72.8616 199.125 53.6316 189.151C48.0845 186.196 42.9072 182.502 37.7299 178.808C36.9903 178.069 36.6205 177.33 36.6205 176.592C39.9487 166.248 45.4958 156.644 52.892 148.517C53.6316 147.778 54.3712 147.039 54.741 146.3L55.1108 145.561C56.9599 143.714 58.4391 141.867 60.2881 140.39C61.0277 139.651 63.9862 136.326 65.0956 137.065C66.5748 138.173 67.6843 138.912 69.1635 139.651L70.6427 140.39C86.9142 150.733 109.842 153.319 126.484 143.714C128.333 142.606 129.812 141.498 131.291 140.02C133.51 137.434 137.578 137.434 140.166 139.651L140.536 140.02C151.63 148.517 160.136 159.968 164.574 173.636C166.053 176.222 165.313 179.177 162.725 180.286Z" fill="#7A71BC"/>
<path d="M133.51 100.862C133.14 118.594 118.348 132.631 100.228 132.262C82.107 131.893 68.4241 117.116 68.7939 99.0152C69.1637 81.2836 83.956 67.2461 102.077 67.6155C119.827 68.3543 133.88 83.1307 133.51 100.862Z" fill="#FD4363"/>
</svg>
