<svg width="32" height="32" viewBox="0 0 32 32" fill="none" xmlns="http://www.w3.org/2000/svg">
<path fill-rule="evenodd" clip-rule="evenodd" d="M10.2267 2.6665H21.7867C26.3067 2.6665 29.3334 5.83984 29.3334 10.5598V21.4545C29.3334 26.1598 26.3067 29.3332 21.7867 29.3332H10.2267C5.70675 29.3332 2.66675 26.1598 2.66675 21.4545V10.5598C2.66675 5.83984 5.70675 2.6665 10.2267 2.6665ZM15.2401 19.9865L21.5734 13.6532C22.0267 13.1998 22.0267 12.4665 21.5734 11.9998C21.1201 11.5465 20.3734 11.5465 19.9201 11.9998L14.4134 17.5065L12.0801 15.1732C11.6267 14.7198 10.8801 14.7198 10.4267 15.1732C9.97341 15.6265 9.97341 16.3598 10.4267 16.8265L13.6001 19.9865C13.8267 20.2132 14.1201 20.3198 14.4134 20.3198C14.7201 20.3198 15.0134 20.2132 15.2401 19.9865Z" fill="#FD4363"/>
</svg>
