<svg width="171" height="51" viewBox="0 0 171 51" fill="none" xmlns="http://www.w3.org/2000/svg">
<g clip-path="url(#clip0_171901_186780)">
<path d="M41.0591 6.69843C41.0591 6.79017 41.0591 6.79017 40.967 6.88192C39.4941 10.3682 37.1926 13.4874 34.2466 15.9645C33.7863 16.4232 33.326 15.9645 33.1419 15.781C30.5642 13.5792 27.158 12.6617 23.7517 13.1204C20.4375 13.3957 17.3995 14.9553 15.3742 17.5241C15.1901 17.7076 15.098 17.8911 14.9139 18.0746C14.4536 18.625 14.0854 19.2672 13.8092 19.9094C13.7171 20.0929 13.6251 20.1847 13.6251 20.3682C13.4409 20.6434 13.3489 21.0104 13.2568 21.2856C13.1648 21.5608 13.0727 21.9278 12.9806 22.203C12.5203 23.8544 12.4283 25.6893 12.6124 27.4324C12.6124 27.7993 12.7044 28.1663 12.7965 28.5333C12.9806 29.5425 13.3489 30.5516 13.9012 31.4691C14.0854 31.7443 14.2695 32.1113 14.4536 32.3865C14.6377 32.6617 14.8218 32.937 15.006 33.2122C15.1901 33.4874 15.4663 33.7627 15.6504 34.0379C15.8345 34.3131 16.1107 34.5883 16.3869 34.8636C16.6631 35.1388 15.9266 35.5058 15.8345 35.5058C15.098 35.8727 14.4536 36.4232 13.9012 36.9737L13.8092 37.1571C13.6251 37.3406 13.4409 37.5241 13.3489 37.7076C11.5997 40.0012 10.3109 42.57 9.57439 45.2305C7.64112 43.8544 5.98403 41.5608 4.60312 39.726C4.23487 39.1755 3.86663 38.625 3.49839 38.0746C3.31427 37.7076 3.03809 37.3406 2.85397 36.9737C2.66985 36.6067 2.48572 36.2397 2.3016 35.781C2.20954 35.5975 2.11748 35.3223 2.02542 35.1388C1.65718 34.2214 1.381 33.3039 1.10482 32.3865C0.920694 31.6526 0.736573 30.9186 0.552452 30.2764C0.460391 29.9094 0.460391 29.5425 0.368331 29.2672C0.092149 27.6159 0.0921491 25.9645 0.18421 24.3131C0.18421 23.7626 0.27627 23.1204 0.368331 22.57C0.460391 22.0195 0.552452 21.6526 0.644512 21.1938C1.01275 19.4507 1.56512 17.7076 2.3016 16.0562C2.66985 15.2305 3.03809 14.4049 3.49839 13.6709C3.68251 13.3039 3.95869 12.8452 4.23487 12.4782C6.53639 8.80852 9.85057 5.781 13.7171 3.85439C14.4536 3.48742 15.1901 3.12045 16.0186 2.75348C16.571 2.56999 17.2154 2.29476 17.8598 2.11128C18.8725 1.83605 19.9772 1.56082 21.082 1.37733L22.1867 1.19384C25.9612 0.643386 29.7357 1.01036 33.326 2.20302C35.9958 3.21219 38.5735 4.58834 40.875 6.23972C41.0591 6.33146 41.1512 6.4232 41.2432 6.60669C41.0591 6.4232 41.0591 6.51494 41.0591 6.69843Z" fill="#4D37A5"/>
<path d="M40.4146 45.5059C37.0084 48.0747 32.9577 49.726 28.815 50.3682C23.4755 51.1022 18.0439 50.1848 13.2568 47.7077C11.8758 46.9737 10.587 46.0563 9.29815 45.1389C9.11403 44.9554 9.02197 44.7719 9.02197 44.5884C9.85052 42.0196 11.2314 39.6343 13.0726 37.6159C13.2568 37.4325 13.4409 37.249 13.5329 37.0655L13.625 36.882C14.0853 36.4233 14.4535 35.9646 14.9139 35.5976C15.098 35.4141 15.8345 34.5884 16.1106 34.7719C16.4789 35.0471 16.7551 35.2306 17.1233 35.4141L17.4915 35.5976C21.5422 38.1664 27.25 38.8086 31.3927 36.4233C31.853 36.1481 32.2212 35.8728 32.5895 35.5059C33.1418 34.8637 34.1545 34.8637 34.7989 35.4141L34.891 35.5059C37.6528 37.6159 39.7702 40.46 40.8749 43.8545C41.2432 44.4967 41.0591 45.2306 40.4146 45.5059Z" fill="#7A71BC"/>
<path d="M33.1417 25.781C33.0497 30.1847 29.3672 33.6709 24.8563 33.5792C20.3453 33.4874 16.9391 29.8177 17.0311 25.3223C17.1232 20.9186 20.8056 17.4324 25.3166 17.5241C29.7355 17.7076 33.2338 21.3773 33.1417 25.781Z" fill="#FD4363"/>
<path d="M64.4424 27.7994C63.9821 29.6343 63.0615 31.1939 61.5885 32.3866C60.1156 33.5793 58.3664 34.1297 56.4331 34.1297C54.1316 34.1297 52.1984 33.304 50.6333 31.7444C49.0683 30.1848 48.2397 28.2582 48.2397 25.9646C48.2397 23.671 48.9762 21.7444 50.5413 20.1848C52.1063 18.6251 54.0396 17.7994 56.249 17.7994C58.2743 17.7994 59.9314 18.3499 61.4965 19.5426C63.0615 20.7352 63.9821 22.2949 64.3503 24.2215H59.7473C59.1029 22.7536 57.9061 22.1114 56.3411 22.1114C55.2364 22.1114 54.4078 22.4783 53.7634 23.304C53.119 24.038 52.8428 24.9554 52.8428 26.0563C52.8428 27.1572 53.211 28.0747 53.8554 28.8086C54.4999 29.5426 55.4205 29.9095 56.5252 29.9095C57.9982 29.9095 59.1029 29.2673 59.8394 27.8912H64.4424V27.7994Z" fill="white"/>
<path d="M75.0293 22.3866C73.8325 22.3866 73.004 22.5701 72.4516 22.9371C71.7151 23.3958 71.439 24.1297 71.439 25.2306V33.5793H66.8359V18.3499H71.1628V19.9095H71.2548C71.9913 18.4416 73.2802 17.7994 75.1214 17.7994V22.3866H75.0293Z" fill="white"/>
<path d="M92.0605 27.3407H80.645C80.9212 29.2673 82.118 30.1847 84.2354 30.1847C85.3401 30.1847 86.2607 29.726 86.9972 28.8086H91.6923C91.0479 30.3682 90.0352 31.6526 88.7463 32.57C87.3654 33.5792 85.8925 34.0379 84.2354 34.0379C82.0259 34.0379 80.0926 33.2122 78.5276 31.6526C76.9626 30.093 76.134 28.1664 76.134 25.9645C76.134 23.7627 76.8705 21.8361 78.4355 20.1847C80.0006 18.5333 81.9339 17.7076 84.1433 17.7076C86.4448 17.7076 88.3781 18.5333 89.9431 20.1847C91.4161 21.7443 92.2446 23.7627 92.2446 26.0563C92.1526 26.515 92.1526 26.9737 92.0605 27.3407ZM87.6416 24.2214C87.2734 22.4783 86.0766 21.5609 84.1433 21.5609C82.21 21.5609 81.0132 22.4783 80.645 24.2214H87.6416Z" fill="white"/>
<path d="M106.33 33.5793V31.9279H106.238C105.778 32.6618 105.133 33.2123 104.305 33.5793C103.568 33.8545 102.74 34.038 101.727 34.038C99.4255 34.038 97.5843 33.2123 96.1113 31.6526C94.7304 30.093 93.9939 28.1664 93.9939 25.8728C93.9939 23.5793 94.6383 21.6526 96.0192 20.1848C97.4922 18.6251 99.3334 17.7994 101.543 17.7994C103.384 17.7994 104.857 18.4416 106.054 19.6343V13.2123H110.657V33.5793H106.33ZM105.225 23.1205C104.489 22.3866 103.568 22.0196 102.463 22.0196C101.359 22.0196 100.438 22.3866 99.7017 23.1205C98.9652 23.8545 98.5969 24.7719 98.5969 25.8728C98.5969 26.9738 98.9652 27.8912 99.7017 28.6251C100.438 29.3591 101.359 29.726 102.463 29.726C103.568 29.726 104.581 29.3591 105.317 28.6251C106.054 27.8912 106.422 26.9737 106.422 25.7811C106.33 24.7719 105.962 23.8545 105.225 23.1205Z" fill="white"/>
<path d="M113.971 16.6985V13.2123H118.574V16.6985H113.971ZM113.971 33.5793V18.3499H118.574V33.5793H113.971Z" fill="white"/>
<path d="M127.32 21.7444V33.4875H122.717V21.7444H120.415V18.2582H122.717V13.2123H127.32V18.2582H129.529V21.7444H127.32Z" fill="white"/>
<path d="M131.831 33.5793V28.9004H136.618V33.5793H131.831Z" fill="white"/>
<path d="M148.77 33.5792H144.351L138.827 18.3499H143.522L146.468 27.8911H146.56L149.506 18.3499H154.202L148.77 33.5792Z" fill="white"/>
<path d="M166.077 33.5793V25.2306C166.077 24.2215 165.893 23.4875 165.617 23.0288C165.249 22.3866 164.604 22.1114 163.684 22.1114C162.671 22.1114 162.027 22.3866 161.566 23.0288C161.198 23.4875 161.014 24.3132 161.014 25.3224V33.5793H156.411V18.3499H160.646V19.9095H160.738C161.658 18.4416 163.039 17.7994 164.88 17.7994C166.446 17.7994 167.734 18.2582 168.839 19.0838C169.484 19.6343 169.944 20.3682 170.22 21.2857C170.404 22.0196 170.588 22.9371 170.588 23.9462V33.4875H166.077V33.5793Z" fill="white"/>
</g>
<defs>
<clipPath id="clip0_171901_186780">
<rect width="170.588" height="50" fill="white" transform="translate(0 0.643433)"/>
</clipPath>
</defs>
</svg>
