<svg width="168" height="50" viewBox="0 0 168 50" fill="none" xmlns="http://www.w3.org/2000/svg">
<g clip-path="url(#clip0_171876_187150)">
<g clip-path="url(#clip1_171876_187150)">
<path d="M40.4016 5.45991C40.4016 5.55165 40.4016 5.55165 40.311 5.64339C38.8617 9.12963 36.597 12.2489 33.6982 14.726C33.2453 15.1847 32.7923 14.726 32.6112 14.5425C30.0747 12.3406 26.723 11.4232 23.3713 11.8819C20.1102 12.1572 17.1208 13.7168 15.1279 16.2856C14.9468 16.4691 14.8562 16.6526 14.675 16.8361C14.2221 17.3865 13.8597 18.0287 13.588 18.6709C13.4974 18.8544 13.4068 18.9461 13.4068 19.1296C13.2256 19.4049 13.135 19.7718 13.0444 20.0471C12.9539 20.3223 12.8633 20.6893 12.7727 20.9645C12.3197 22.6159 12.2292 24.4507 12.4103 26.1938C12.4103 26.5608 12.5009 26.9278 12.5915 27.2948C12.7727 28.3039 13.135 29.3131 13.6786 30.2305C13.8597 30.5058 14.0409 30.8727 14.2221 31.148C14.4032 31.4232 14.5844 31.6984 14.7656 31.9737C14.9468 32.2489 15.2185 32.5241 15.3997 32.7994C15.5809 33.0746 15.8526 33.3498 16.1244 33.625C16.3962 33.9003 15.6715 34.2672 15.5809 34.2672C14.8562 34.6342 14.2221 35.1847 13.6786 35.7351L13.588 35.9186C13.4068 36.1021 13.2256 36.2856 13.135 36.4691C11.4139 38.7627 10.1457 41.3315 9.42097 43.992C7.51865 42.6159 5.88809 40.3223 4.52929 38.4874C4.16695 37.937 3.8046 37.3865 3.44225 36.8361C3.26108 36.4691 2.98932 36.1021 2.80815 35.7351C2.62697 35.3682 2.4458 35.0012 2.26463 34.5425C2.17404 34.359 2.08345 34.0838 1.99287 33.9003C1.63052 32.9828 1.35876 32.0654 1.087 31.148C0.905825 30.414 0.724651 29.6801 0.543478 29.0379C0.452891 28.6709 0.452891 28.3039 0.362304 28.0287C0.0905442 26.3773 0.0905442 24.726 0.181131 23.0746C0.181131 22.5241 0.271718 21.8819 0.362304 21.3315C0.452891 20.781 0.543478 20.414 0.634064 19.9553C0.996411 18.2122 1.53993 16.4691 2.26463 14.8177C2.62697 13.992 2.98932 13.1663 3.44225 12.4324C3.62343 12.0654 3.89519 11.6067 4.16695 11.2397C6.43161 7.57 9.69273 4.54247 13.4974 2.61587C14.2221 2.2489 14.9468 1.88192 15.762 1.51495C16.3056 1.33147 16.9397 1.05624 17.5738 0.87275C18.5702 0.597521 19.6573 0.322291 20.7443 0.138805L21.8314 -0.044681C25.5454 -0.59514 29.2595 -0.228167 32.7923 0.964493C35.4194 1.97367 37.9558 3.34981 40.2205 5.00119C40.4016 5.09293 40.4922 5.18468 40.5828 5.36816C40.4016 5.18468 40.4016 5.27642 40.4016 5.45991Z" fill="#4D37A5"/>
<path d="M39.7675 44.2672C36.4158 46.836 32.43 48.4874 28.3536 49.1296C23.0996 49.8635 17.7549 48.9461 13.0444 46.469C11.6856 45.7351 10.4174 44.8177 9.1492 43.9002C8.96803 43.7167 8.87744 43.5333 8.87744 43.3498C9.69272 40.781 11.0515 38.3956 12.8633 36.3773C13.0444 36.1938 13.2256 36.0103 13.3162 35.8268L13.4068 35.6434C13.8597 35.1846 14.2221 34.7259 14.675 34.3589C14.8562 34.1755 15.5809 33.3498 15.8526 33.5333C16.215 33.8085 16.4867 33.992 16.8491 34.1755L17.2114 34.3589C21.1972 36.9278 26.8136 37.57 30.89 35.1846C31.3429 34.9094 31.7053 34.6342 32.0676 34.2672C32.6112 33.625 33.6076 33.625 34.2417 34.1755L34.3323 34.2672C37.0499 36.3773 39.1334 39.2213 40.2204 42.6158C40.5828 43.258 40.4016 43.992 39.7675 44.2672Z" fill="#7A71BC"/>
<path d="M32.6112 24.5423C32.5206 28.946 28.8971 32.4323 24.4584 32.3405C20.0196 32.2488 16.6679 28.579 16.7585 24.0836C16.8491 19.68 20.4726 16.1937 24.9113 16.2855C29.2595 16.4689 32.7018 20.1387 32.6112 24.5423Z" fill="#FD4363"/>
<path d="M63.4107 26.5605C62.9577 28.3954 62.0519 29.955 60.6025 31.1477C59.1531 32.3404 57.4319 32.8908 55.5296 32.8908C53.265 32.8908 51.3626 32.0651 49.8227 30.5055C48.2827 28.9459 47.4674 27.0193 47.4674 24.7257C47.4674 22.4321 48.1921 20.5055 49.7321 18.9459C51.272 17.3862 53.1744 16.5605 55.3484 16.5605C57.3414 16.5605 58.9719 17.111 60.5119 18.3037C62.0519 19.4963 62.9577 21.056 63.3201 22.9826H58.7907C58.1566 21.5147 56.979 20.8725 55.439 20.8725C54.352 20.8725 53.5367 21.2394 52.9026 22.0651C52.2685 22.7991 51.9967 23.7165 51.9967 24.8174C51.9967 25.9183 52.3591 26.8358 52.9932 27.5697C53.6273 28.3037 54.5332 28.6706 55.6202 28.6706C57.0696 28.6706 58.1566 28.0284 58.8813 26.6523H63.4107V26.5605Z" fill="#332D5F"/>
<path d="M73.8281 21.1477C72.6505 21.1477 71.8352 21.3312 71.2917 21.6982C70.567 22.1569 70.2952 22.8908 70.2952 23.9917V32.3404H65.7659V17.111H70.0234V18.6706H70.114C70.8387 17.2027 72.1069 16.5605 73.9187 16.5605V21.1477H73.8281Z" fill="#332D5F"/>
<path d="M90.5867 26.1023H79.3539C79.6257 28.0289 80.8033 28.9463 82.8868 28.9463C83.9738 28.9463 84.8797 28.4876 85.6044 27.5702H90.2243C89.5902 29.1298 88.5938 30.4142 87.3255 31.3316C85.9667 32.3408 84.5174 32.7995 82.8868 32.7995C80.7127 32.7995 78.8104 31.9738 77.2704 30.4142C75.7304 28.8546 74.9152 26.928 74.9152 24.7261C74.9152 22.5243 75.6399 20.5977 77.1798 18.9463C78.7198 17.2949 80.6221 16.4692 82.7962 16.4692C85.0609 16.4692 86.9632 17.2949 88.5032 18.9463C89.9525 20.5059 90.7678 22.5243 90.7678 24.8179C90.6772 25.2766 90.6772 25.7353 90.5867 26.1023ZM86.2385 22.983C85.8761 21.2399 84.6985 20.3224 82.7962 20.3224C80.8939 20.3224 79.7163 21.2399 79.3539 22.983H86.2385Z" fill="#332D5F"/>
<path d="M104.628 32.3406V30.6892H104.537C104.084 31.4232 103.45 31.9736 102.635 32.3406C101.91 32.6158 101.095 32.7993 100.098 32.7993C97.8336 32.7993 96.0219 31.9736 94.5725 30.414C93.2137 28.8544 92.489 26.9278 92.489 24.6342C92.489 22.3406 93.1231 20.414 94.4819 18.9461C95.9313 17.3865 97.743 16.5608 99.9171 16.5608C101.729 16.5608 103.178 17.203 104.356 18.3957V11.9736H108.885V32.3406H104.628ZM103.541 21.8819C102.816 21.1479 101.91 20.781 100.823 20.781C99.7359 20.781 98.8301 21.1479 98.1054 21.8819C97.3807 22.6158 97.0183 23.5333 97.0183 24.6342C97.0183 25.7351 97.3807 26.6525 98.1054 27.3865C98.8301 28.1204 99.7359 28.4874 100.823 28.4874C101.91 28.4874 102.906 28.1204 103.631 27.3865C104.356 26.6525 104.718 25.7351 104.718 24.5424C104.628 23.5333 104.265 22.6158 103.541 21.8819Z" fill="#332D5F"/>
<path d="M112.146 15.4599V11.9736H116.676V15.4599H112.146ZM112.146 32.3406V17.1112H116.676V32.3406H112.146Z" fill="#332D5F"/>
<path d="M125.281 20.5057V32.2489H120.752V20.5057H118.487V17.0195H120.752V11.9736H125.281V17.0195H127.456V20.5057H125.281Z" fill="#332D5F"/>
<path d="M129.72 32.3405V27.6616H134.431V32.3405H129.72Z" fill="#332D5F"/>
<path d="M146.388 32.3407H142.04L136.605 17.1113H141.225L144.123 26.6526H144.214L147.113 17.1113H151.733L146.388 32.3407Z" fill="#332D5F"/>
<path d="M163.418 32.3404V23.9917C163.418 22.9826 163.237 22.2486 162.965 21.7899C162.603 21.1477 161.969 20.8725 161.063 20.8725C160.067 20.8725 159.433 21.1477 158.98 21.7899C158.617 22.2486 158.436 23.0743 158.436 24.0835V32.3404H153.907V17.111H158.074V18.6706H158.164C159.07 17.2027 160.429 16.5605 162.241 16.5605C163.781 16.5605 165.049 17.0193 166.136 17.845C166.77 18.3954 167.223 19.1294 167.495 20.0468C167.676 20.7807 167.857 21.6982 167.857 22.7073V32.2486H163.418V32.3404Z" fill="#332D5F"/>
</g>
<path d="M97.616 37.4097C98.1055 37.7766 98.3502 38.3882 98.3502 39.122C98.3502 39.8558 98.1055 40.345 97.616 40.8343C97.1265 41.2012 96.5147 41.4458 95.6581 41.4458H94.0672V43.4027H93.0883V36.9205H95.6581C96.5147 36.7982 97.1265 37.0428 97.616 37.4097ZM97.0041 40.2227C97.3712 39.9781 97.4936 39.6112 97.4936 39.122C97.4936 38.6328 97.3712 38.2659 97.0041 38.0212C96.637 37.7766 96.2699 37.6543 95.6581 37.6543H94.0672V40.5896H95.6581C96.2699 40.5896 96.637 40.4673 97.0041 40.2227Z" fill="#332D5F"/>
<path d="M100.431 43.036C100.063 42.7914 99.6963 42.5468 99.4516 42.1799C99.2068 41.813 99.0845 41.3237 99.0845 40.8345C99.0845 40.3453 99.2068 39.8561 99.4516 39.4892C99.6963 39.1222 99.9411 38.7553 100.431 38.633C100.798 38.3884 101.287 38.2661 101.777 38.2661C102.266 38.2661 102.756 38.3884 103.123 38.633C103.49 38.8776 103.857 39.1222 103.979 39.4892C104.224 39.8561 104.346 40.3453 104.346 40.8345C104.346 41.3237 104.224 41.813 103.979 42.1799C103.735 42.5468 103.49 42.9137 103.123 43.036C102.756 43.2806 102.266 43.4029 101.777 43.4029C101.287 43.4029 100.798 43.2806 100.431 43.036ZM102.633 42.4245C102.878 42.3022 103.123 42.0576 103.245 41.813C103.367 41.5683 103.49 41.2014 103.49 40.9568C103.49 40.5899 103.367 40.3453 103.245 40.1007C103.123 39.8561 102.878 39.6115 102.633 39.4892C102.388 39.3669 102.021 39.1222 101.777 39.1222C101.41 39.1222 101.165 39.2445 100.92 39.3669C100.675 39.4892 100.431 39.7338 100.308 39.9784C100.186 40.223 100.063 40.5899 100.063 40.8345C100.063 41.2014 100.186 41.4461 100.308 41.6907C100.431 41.9353 100.675 42.1799 100.92 42.3022C101.165 42.4245 101.41 42.5468 101.777 42.5468C102.021 42.6691 102.388 42.5468 102.633 42.4245Z" fill="#332D5F"/>
<path d="M112.912 38.3882L111.077 43.2804H110.22L108.752 39.4889L107.283 43.2804H106.427L104.591 38.3882H105.448L106.916 42.302L108.385 38.3882H109.119L110.587 42.302L112.056 38.3882H112.912Z" fill="#332D5F"/>
<path d="M118.052 41.2012H114.014C114.014 41.6904 114.258 41.9351 114.626 42.302C114.993 42.5466 115.36 42.6689 115.849 42.6689C116.461 42.6689 116.951 42.4243 117.318 42.0573L117.807 42.6689C117.562 42.9135 117.318 43.1581 116.951 43.2804C116.584 43.4027 116.216 43.525 115.849 43.525C115.36 43.525 114.87 43.4027 114.503 43.1581C114.136 42.9135 113.769 42.6689 113.524 42.302C113.279 41.9351 113.157 41.4458 113.157 40.9566C113.157 40.4674 113.279 40.1005 113.524 39.6112C113.769 39.2443 114.014 38.8774 114.381 38.7551C114.748 38.5105 115.237 38.3882 115.605 38.3882C115.972 38.3882 116.461 38.5105 116.828 38.7551C117.195 38.9997 117.44 39.2443 117.685 39.6112C117.93 39.9782 118.052 40.4674 118.052 40.9566C118.174 40.9566 118.174 41.0789 118.052 41.2012ZM114.626 39.4889C114.381 39.7336 114.136 40.1005 114.136 40.4674H117.318C117.318 40.1005 117.073 39.7336 116.828 39.4889C116.584 39.2443 116.216 39.122 115.727 39.122C115.237 39.122 114.87 39.2443 114.626 39.4889Z" fill="#332D5F"/>
<path d="M120.867 38.6328C121.111 38.5105 121.601 38.3882 121.968 38.3882V39.2443C121.968 39.2443 121.845 39.2443 121.723 39.2443C121.234 39.2443 120.867 39.3666 120.622 39.7335C120.377 39.9782 120.255 40.4674 120.255 40.9566V43.4027H119.398V38.5105H120.255V39.3666C120.377 38.9997 120.622 38.7551 120.867 38.6328Z" fill="#332D5F"/>
<path d="M127.597 41.2012H123.559C123.559 41.6904 123.803 41.9351 124.171 42.302C124.538 42.5466 124.905 42.6689 125.394 42.6689C126.006 42.6689 126.496 42.4243 126.863 42.0573L127.352 42.6689C127.108 42.9135 126.863 43.1581 126.496 43.2804C126.129 43.4027 125.761 43.525 125.394 43.525C124.905 43.525 124.415 43.4027 124.048 43.1581C123.681 42.9135 123.314 42.6689 123.069 42.302C122.825 41.9351 122.702 41.4458 122.702 40.9566C122.702 40.4674 122.825 40.1005 123.069 39.6112C123.314 39.2443 123.559 38.8774 123.926 38.7551C124.293 38.5105 124.782 38.3882 125.15 38.3882C125.517 38.3882 126.006 38.5105 126.373 38.7551C126.74 38.9997 126.985 39.2443 127.23 39.6112C127.475 39.9782 127.597 40.4674 127.597 40.9566C127.597 40.9566 127.597 41.0789 127.597 41.2012ZM124.048 39.4889C123.803 39.7336 123.559 40.1005 123.559 40.4674H126.74C126.74 40.1005 126.496 39.7336 126.251 39.4889C126.006 39.2443 125.639 39.122 125.15 39.122C124.66 39.122 124.293 39.2443 124.048 39.4889Z" fill="#332D5F"/>
<path d="M133.471 36.4316V43.403H132.614V42.6692C132.369 42.9138 132.125 43.1584 131.88 43.2807C131.635 43.403 131.268 43.5254 130.901 43.5254C130.411 43.5254 130.044 43.403 129.555 43.1584C129.188 42.9138 128.821 42.6692 128.698 42.3023C128.454 41.9354 128.331 41.4462 128.331 40.9569C128.331 40.4677 128.454 39.9785 128.698 39.6116C128.943 39.2447 129.188 38.8777 129.555 38.7554C129.922 38.5108 130.411 38.3885 130.901 38.3885C131.268 38.3885 131.635 38.5108 131.88 38.6331C132.125 38.7554 132.369 39.0001 132.614 39.2447V36.5539H133.471V36.4316ZM131.758 42.4246C132.002 42.3023 132.247 42.0577 132.369 41.8131C132.492 41.5685 132.614 41.2015 132.614 40.9569C132.614 40.59 132.492 40.3454 132.369 40.1008C132.247 39.8562 132.002 39.6116 131.758 39.4893C131.513 39.367 131.268 39.2447 130.901 39.2447C130.534 39.2447 130.289 39.367 130.044 39.4893C129.8 39.6116 129.555 39.8562 129.433 40.1008C129.31 40.3454 129.188 40.7123 129.188 40.9569C129.188 41.3239 129.31 41.5685 129.433 41.8131C129.555 42.0577 129.8 42.3023 130.044 42.4246C130.289 42.5469 130.534 42.6692 130.901 42.6692C131.268 42.6692 131.513 42.5469 131.758 42.4246Z" fill="#332D5F"/>
<path d="M141.547 38.6334C141.914 38.878 142.281 39.1226 142.404 39.4895C142.649 39.8564 142.771 40.3456 142.771 40.8349C142.771 41.3241 142.649 41.8133 142.404 42.1802C142.159 42.5471 141.914 42.914 141.547 43.0363C141.18 43.281 140.691 43.4033 140.201 43.4033C139.834 43.4033 139.467 43.281 139.222 43.1587C138.977 43.0364 138.61 42.7917 138.488 42.5471V43.281H137.631V36.3096H138.488V39.0003C138.733 38.7557 138.977 38.5111 139.222 38.3888C139.467 38.2664 139.834 38.1441 140.201 38.1441C140.813 38.3888 141.18 38.5111 141.547 38.6334ZM141.058 42.4248C141.302 42.3025 141.547 42.0579 141.67 41.8133C141.792 41.5687 141.914 41.2018 141.914 40.9572C141.914 40.5903 141.792 40.3456 141.67 40.101C141.547 39.8564 141.302 39.6118 141.058 39.4895C140.813 39.3672 140.568 39.2449 140.201 39.2449C139.834 39.2449 139.589 39.3672 139.345 39.4895C139.1 39.6118 138.855 39.8564 138.733 40.101C138.61 40.3456 138.488 40.7126 138.488 40.9572C138.488 41.3241 138.61 41.5687 138.733 41.8133C138.855 42.0579 139.1 42.3025 139.345 42.4248C139.589 42.5471 139.834 42.6694 140.201 42.6694C140.568 42.6694 140.813 42.5471 141.058 42.4248Z" fill="#332D5F"/>
<path d="M148.278 38.3882L145.83 43.7696C145.586 44.2589 145.341 44.6258 145.096 44.8704C144.851 45.115 144.484 45.2373 144.117 45.2373C143.872 45.2373 143.628 45.2373 143.383 45.115C143.138 44.9927 143.016 44.8704 142.771 44.7481L143.138 44.1365C143.383 44.3812 143.75 44.5035 143.995 44.5035C144.239 44.5035 144.362 44.5035 144.484 44.3812C144.607 44.2589 144.729 44.0142 144.851 43.7696L144.974 43.4027L142.771 38.5105H143.75L145.463 42.4243L147.176 38.5105H148.278V38.3882Z" fill="#332D5F"/>
<path d="M156.109 43.2805L154.641 41.3236C154.519 41.3236 154.274 41.3236 154.274 41.3236H152.683V43.2805H151.704V36.7983H154.274C155.13 36.7983 155.742 37.043 156.232 37.4099C156.721 37.7768 156.966 38.3883 156.966 39.1221C156.966 39.6114 156.844 40.1006 156.599 40.4675C156.354 40.8344 155.987 41.079 155.498 41.2013L157.088 43.4028H156.109V43.2805ZM155.62 40.2229C155.987 39.9783 156.109 39.6114 156.109 39.1221C156.109 38.6329 155.987 38.266 155.62 38.0214C155.253 37.7768 154.886 37.6545 154.274 37.6545H152.683V40.5898H154.274C154.886 40.5898 155.375 40.4675 155.62 40.2229Z" fill="#332D5F"/>
<path d="M158.557 36.7983H159.536V43.2805H158.557V36.7983Z" fill="#332D5F"/>
<path d="M162.595 43.0366C162.106 42.792 161.616 42.3028 161.372 41.8136C161.127 41.3244 160.882 40.7128 160.882 40.1013C160.882 39.4898 161.004 38.8782 161.372 38.389C161.739 37.8998 162.106 37.5329 162.595 37.166C163.085 36.9214 163.697 36.6768 164.431 36.6768C165.043 36.6768 165.655 36.7991 166.144 37.166C166.634 37.4106 167.123 37.8998 167.368 38.389C167.613 38.8782 167.857 39.4898 167.857 40.1013C167.857 40.7128 167.735 41.3244 167.368 41.8136C167.123 42.3028 166.634 42.6697 166.144 43.0366C165.655 43.2812 165.043 43.5259 164.431 43.5259C163.697 43.4036 163.207 43.2812 162.595 43.0366ZM165.655 42.3028C166.022 42.0582 166.389 41.8136 166.511 41.4467C166.756 41.0797 166.878 40.5905 166.878 40.2236C166.878 39.7344 166.756 39.3675 166.511 39.0006C166.266 38.6336 166.022 38.2667 165.655 38.1444C165.287 38.0221 164.798 37.7775 164.308 37.7775C163.819 37.7775 163.452 37.8998 162.962 38.1444C162.473 38.389 162.228 38.6336 162.106 39.0006C161.861 39.3675 161.739 39.8567 161.739 40.2236C161.739 40.7128 161.861 41.0797 162.106 41.4467C162.351 41.8136 162.595 42.1805 162.962 42.3028C163.33 42.5474 163.819 42.6697 164.308 42.6697C164.92 42.5474 165.287 42.4251 165.655 42.3028Z" fill="#332D5F"/>
</g>
<defs>
<clipPath id="clip0_171876_187150">
<rect width="167.857" height="50" fill="white"/>
</clipPath>
<clipPath id="clip1_171876_187150">
<rect width="167.857" height="50" fill="white" transform="translate(0 -0.595215)"/>
</clipPath>
</defs>
</svg>
